%TF.GenerationSoftware,KiCad,Pcbnew,9.0.7*%
%TF.CreationDate,2026-01-28T20:07:14-06:00*%
%TF.ProjectId,MicroPad actual,4d696372-6f50-4616-9420-61637475616c,rev?*%
%TF.SameCoordinates,Original*%
%TF.FileFunction,Soldermask,Top*%
%TF.FilePolarity,Negative*%
%FSLAX46Y46*%
G04 Gerber Fmt 4.6, Leading zero omitted, Abs format (unit mm)*
G04 Created by KiCad (PCBNEW 9.0.7) date 2026-01-28 20:07:14*
%MOMM*%
%LPD*%
G01*
G04 APERTURE LIST*
G04 Aperture macros list*
%AMRoundRect*
0 Rectangle with rounded corners*
0 $1 Rounding radius*
0 $2 $3 $4 $5 $6 $7 $8 $9 X,Y pos of 4 corners*
0 Add a 4 corners polygon primitive as box body*
4,1,4,$2,$3,$4,$5,$6,$7,$8,$9,$2,$3,0*
0 Add four circle primitives for the rounded corners*
1,1,$1+$1,$2,$3*
1,1,$1+$1,$4,$5*
1,1,$1+$1,$6,$7*
1,1,$1+$1,$8,$9*
0 Add four rect primitives between the rounded corners*
20,1,$1+$1,$2,$3,$4,$5,0*
20,1,$1+$1,$4,$5,$6,$7,0*
20,1,$1+$1,$6,$7,$8,$9,0*
20,1,$1+$1,$8,$9,$2,$3,0*%
G04 Aperture macros list end*
%ADD10R,1.600000X0.850000*%
%ADD11R,2.000000X2.000000*%
%ADD12C,2.000000*%
%ADD13C,3.200000*%
%ADD14C,1.700000*%
%ADD15C,4.000000*%
%ADD16C,2.200000*%
%ADD17RoundRect,0.152400X1.063600X0.609600X-1.063600X0.609600X-1.063600X-0.609600X1.063600X-0.609600X0*%
%ADD18C,1.524000*%
%ADD19RoundRect,0.152400X-1.063600X-0.609600X1.063600X-0.609600X1.063600X0.609600X-1.063600X0.609600X0*%
%ADD20R,1.700000X1.700000*%
G04 APERTURE END LIST*
D10*
%TO.C,D2*%
X86850000Y-68175000D03*
X86850000Y-69925000D03*
X90350000Y-69925000D03*
X90350000Y-68175000D03*
%TD*%
%TO.C,D1*%
X157250000Y-68300000D03*
X157250000Y-70050000D03*
X160750000Y-70050000D03*
X160750000Y-68300000D03*
%TD*%
D11*
%TO.C,SW7*%
X85725000Y-37862500D03*
D12*
X85725000Y-42862500D03*
X85725000Y-40362500D03*
D13*
X93225000Y-34762500D03*
X93225000Y-45962500D03*
D12*
X100225000Y-42862500D03*
X100225000Y-37862500D03*
%TD*%
D14*
%TO.C,SW3*%
X137795000Y-78581250D03*
D15*
X142875000Y-78581250D03*
D14*
X147955000Y-78581250D03*
D16*
X145415000Y-73501250D03*
X139065000Y-76041250D03*
%TD*%
D14*
%TO.C,SW6*%
X137795000Y-59531250D03*
D15*
X142875000Y-59531250D03*
D14*
X147955000Y-59531250D03*
D16*
X145415000Y-54451250D03*
X139065000Y-56991250D03*
%TD*%
D14*
%TO.C,SW1*%
X99695000Y-78581250D03*
D15*
X104775000Y-78581250D03*
D14*
X109855000Y-78581250D03*
D16*
X107315000Y-73501250D03*
X100965000Y-76041250D03*
%TD*%
D14*
%TO.C,SW5*%
X118745000Y-59531250D03*
D15*
X123825000Y-59531250D03*
D14*
X128905000Y-59531250D03*
D16*
X126365000Y-54451250D03*
X120015000Y-56991250D03*
%TD*%
D17*
%TO.C,U1*%
X155851250Y-32861250D03*
D18*
X156686250Y-32861250D03*
D17*
X155851250Y-35401250D03*
D18*
X156686250Y-35401250D03*
D17*
X155851250Y-37941250D03*
D18*
X156686250Y-37941250D03*
D17*
X155851250Y-40481250D03*
D18*
X156686250Y-40481250D03*
D17*
X155851250Y-43021250D03*
D18*
X156686250Y-43021250D03*
D17*
X155851250Y-45561250D03*
D18*
X156686250Y-45561250D03*
D17*
X155851250Y-48101250D03*
D18*
X156686250Y-48101250D03*
X171926250Y-48101250D03*
D19*
X172761250Y-48101250D03*
D18*
X171926250Y-45561250D03*
D19*
X172761250Y-45561250D03*
D18*
X171926250Y-43021250D03*
D19*
X172761250Y-43021250D03*
D18*
X171926250Y-40481250D03*
D19*
X172761250Y-40481250D03*
D18*
X171926250Y-37941250D03*
D19*
X172761250Y-37941250D03*
D18*
X171926250Y-35401250D03*
D19*
X172761250Y-35401250D03*
D18*
X171926250Y-32861250D03*
D19*
X172761250Y-32861250D03*
%TD*%
D20*
%TO.C,J1*%
X147637500Y-35242500D03*
D14*
X147637500Y-37782500D03*
X147637500Y-40322500D03*
X147637500Y-42862500D03*
%TD*%
%TO.C,SW2*%
X118745000Y-78581250D03*
D15*
X123825000Y-78581250D03*
D14*
X128905000Y-78581250D03*
D16*
X126365000Y-73501250D03*
X120015000Y-76041250D03*
%TD*%
D14*
%TO.C,SW4*%
X99695000Y-59531250D03*
D15*
X104775000Y-59531250D03*
D14*
X109855000Y-59531250D03*
D16*
X107315000Y-54451250D03*
X100965000Y-56991250D03*
%TD*%
M02*
