%TF.GenerationSoftware,KiCad,Pcbnew,9.0.7*%
%TF.CreationDate,2026-01-28T20:07:14-06:00*%
%TF.ProjectId,MicroPad actual,4d696372-6f50-4616-9420-61637475616c,rev?*%
%TF.SameCoordinates,Original*%
%TF.FileFunction,Copper,L2,Bot*%
%TF.FilePolarity,Positive*%
%FSLAX46Y46*%
G04 Gerber Fmt 4.6, Leading zero omitted, Abs format (unit mm)*
G04 Created by KiCad (PCBNEW 9.0.7) date 2026-01-28 20:07:14*
%MOMM*%
%LPD*%
G01*
G04 APERTURE LIST*
%TA.AperFunction,ComponentPad*%
%ADD10R,2.000000X2.000000*%
%TD*%
%TA.AperFunction,ComponentPad*%
%ADD11C,2.000000*%
%TD*%
%TA.AperFunction,ComponentPad*%
%ADD12C,3.200000*%
%TD*%
%TA.AperFunction,ComponentPad*%
%ADD13C,2.200000*%
%TD*%
%TA.AperFunction,ComponentPad*%
%ADD14C,1.524000*%
%TD*%
%TA.AperFunction,ComponentPad*%
%ADD15R,1.700000X1.700000*%
%TD*%
%TA.AperFunction,ComponentPad*%
%ADD16C,1.700000*%
%TD*%
%TA.AperFunction,ViaPad*%
%ADD17C,0.600000*%
%TD*%
%TA.AperFunction,Conductor*%
%ADD18C,0.200000*%
%TD*%
G04 APERTURE END LIST*
D10*
%TO.P,SW7,A,A*%
%TO.N,Net-(U1-GPIO4{slash}MISO)*%
X85725000Y-37862500D03*
D11*
%TO.P,SW7,B,B*%
%TO.N,Net-(U1-GPIO2{slash}SCK)*%
X85725000Y-42862500D03*
%TO.P,SW7,C,C*%
%TO.N,GND*%
X85725000Y-40362500D03*
D12*
%TO.P,SW7,MP*%
%TO.N,N/C*%
X93225000Y-34762500D03*
X93225000Y-45962500D03*
D11*
%TO.P,SW7,S1*%
X100225000Y-42862500D03*
%TO.P,SW7,S2*%
X100225000Y-37862500D03*
%TD*%
D13*
%TO.P,SW3,1,1*%
%TO.N,GND*%
X145415000Y-73501250D03*
%TO.P,SW3,2,2*%
%TO.N,Net-(U1-GPIO28{slash}ADC2{slash}A2)*%
X139065000Y-76041250D03*
%TD*%
%TO.P,SW6,1,1*%
%TO.N,GND*%
X145415000Y-54451250D03*
%TO.P,SW6,2,2*%
%TO.N,Net-(U1-GPIO7{slash}SCL)*%
X139065000Y-56991250D03*
%TD*%
%TO.P,SW1,1,1*%
%TO.N,GND*%
X107315000Y-73501250D03*
%TO.P,SW1,2,2*%
%TO.N,Net-(U1-GPIO26{slash}ADC0{slash}A0)*%
X100965000Y-76041250D03*
%TD*%
%TO.P,SW5,1,1*%
%TO.N,GND*%
X126365000Y-54451250D03*
%TO.P,SW5,2,2*%
%TO.N,Net-(U1-GPIO6{slash}SDA)*%
X120015000Y-56991250D03*
%TD*%
D14*
%TO.P,U1,1,GPIO26/ADC0/A0*%
%TO.N,Net-(U1-GPIO26{slash}ADC0{slash}A0)*%
X156686250Y-32861250D03*
%TO.P,U1,2,GPIO27/ADC1/A1*%
%TO.N,Net-(U1-GPIO27{slash}ADC1{slash}A1)*%
X156686250Y-35401250D03*
%TO.P,U1,3,GPIO28/ADC2/A2*%
%TO.N,Net-(U1-GPIO28{slash}ADC2{slash}A2)*%
X156686250Y-37941250D03*
%TO.P,U1,4,GPIO29/ADC3/A3*%
%TO.N,Net-(U1-GPIO29{slash}ADC3{slash}A3)*%
X156686250Y-40481250D03*
%TO.P,U1,5,GPIO6/SDA*%
%TO.N,Net-(U1-GPIO6{slash}SDA)*%
X156686250Y-43021250D03*
%TO.P,U1,6,GPIO7/SCL*%
%TO.N,Net-(U1-GPIO7{slash}SCL)*%
X156686250Y-45561250D03*
%TO.P,U1,7,GPIO0/TX*%
%TO.N,Net-(J1-Pin_2)*%
X156686250Y-48101250D03*
%TO.P,U1,8,GPIO1/RX*%
%TO.N,Net-(J1-Pin_1)*%
X171926250Y-48101250D03*
%TO.P,U1,9,GPIO2/SCK*%
%TO.N,Net-(U1-GPIO2{slash}SCK)*%
X171926250Y-45561250D03*
%TO.P,U1,10,GPIO4/MISO*%
%TO.N,Net-(U1-GPIO4{slash}MISO)*%
X171926250Y-43021250D03*
%TO.P,U1,11,GPIO3/MOSI*%
%TO.N,Net-(D1-DIN)*%
X171926250Y-40481250D03*
%TO.P,U1,12,3V3*%
%TO.N,unconnected-(U1-3V3-Pad12)*%
X171926250Y-37941250D03*
%TO.P,U1,13,GND*%
%TO.N,GND*%
X171926250Y-35401250D03*
%TO.P,U1,14,VBUS*%
%TO.N,+5V*%
X171926250Y-32861250D03*
%TD*%
D15*
%TO.P,J1,1,Pin_1*%
%TO.N,Net-(J1-Pin_1)*%
X147637500Y-35242500D03*
D16*
%TO.P,J1,2,Pin_2*%
%TO.N,Net-(J1-Pin_2)*%
X147637500Y-37782500D03*
%TO.P,J1,3,Pin_3*%
%TO.N,VCC*%
X147637500Y-40322500D03*
%TO.P,J1,4,Pin_4*%
%TO.N,GND*%
X147637500Y-42862500D03*
%TD*%
D13*
%TO.P,SW2,1,1*%
%TO.N,GND*%
X126365000Y-73501250D03*
%TO.P,SW2,2,2*%
%TO.N,Net-(U1-GPIO27{slash}ADC1{slash}A1)*%
X120015000Y-76041250D03*
%TD*%
%TO.P,SW4,1,1*%
%TO.N,GND*%
X107315000Y-54451250D03*
%TO.P,SW4,2,2*%
%TO.N,Net-(U1-GPIO29{slash}ADC3{slash}A3)*%
X100965000Y-56991250D03*
%TD*%
D17*
%TO.N,VCC*%
X151212550Y-47626000D03*
X142878000Y-47626000D03*
%TO.N,Net-(D1-DIN)*%
X163119050Y-41672750D03*
%TO.N,Net-(J1-Pin_1)*%
X168000000Y-39000000D03*
%TO.N,Net-(U1-GPIO4{slash}MISO)*%
X169072300Y-39291450D03*
X169072300Y-39291450D03*
X169072300Y-39291450D03*
%TD*%
D18*
%TO.N,VCC*%
X151212550Y-47626000D02*
X142878000Y-47626000D01*
%TO.N,GND*%
X85725000Y-40362500D02*
X93226250Y-40362500D01*
X93226250Y-40362500D02*
X107315000Y-54451250D01*
%TO.N,Net-(D1-DIN)*%
X163119050Y-41672750D02*
X164310550Y-40481250D01*
X164310550Y-40481250D02*
X171926250Y-40481250D01*
%TO.N,Net-(J1-Pin_1)*%
X168000000Y-33500000D02*
X168000000Y-39000000D01*
X166000000Y-31500000D02*
X168000000Y-33500000D01*
X154000000Y-31500000D02*
X166000000Y-31500000D01*
X147637500Y-35242500D02*
X150257500Y-35242500D01*
X150257500Y-35242500D02*
X154000000Y-31500000D01*
%TO.N,Net-(J1-Pin_2)*%
X153593850Y-46435350D02*
X155259750Y-48101250D01*
X155259750Y-48101250D02*
X156686250Y-48101250D01*
X147637500Y-37782500D02*
X153593850Y-43738850D01*
X153593850Y-43738850D02*
X153593850Y-46435350D01*
%TO.N,Net-(U1-GPIO29{slash}ADC3{slash}A3)*%
X112951800Y-56991250D02*
X120255650Y-64295100D01*
X155975150Y-64295100D02*
X160737750Y-59532500D01*
X160737750Y-44532750D02*
X156686250Y-40481250D01*
X160737750Y-59532500D02*
X160737750Y-44532750D01*
X100965000Y-56991250D02*
X112951800Y-56991250D01*
X120255650Y-64295100D02*
X155975150Y-64295100D01*
%TO.N,Net-(U1-GPIO6{slash}SDA)*%
X159547100Y-57151200D02*
X159547100Y-45882100D01*
X120015000Y-56991250D02*
X129620900Y-56991250D01*
X159547100Y-45882100D02*
X156686250Y-43021250D01*
X153593850Y-63104450D02*
X159547100Y-57151200D01*
X135734100Y-63104450D02*
X153593850Y-63104450D01*
X129620900Y-56991250D02*
X135734100Y-63104450D01*
%TO.N,Net-(U1-GPIO7{slash}SCL)*%
X139065000Y-56991250D02*
X139224950Y-57151200D01*
X158356450Y-47231450D02*
X156686250Y-45561250D01*
X158356450Y-57151200D02*
X158356450Y-47231450D01*
X139224950Y-57151200D02*
X158356450Y-57151200D01*
%TO.N,Net-(U1-GPIO2{slash}SCK)*%
X175025550Y-45244700D02*
X174709000Y-45561250D01*
X158356450Y-85726800D02*
X175025550Y-69057700D01*
X94061350Y-51198850D02*
X94061350Y-85726800D01*
X174709000Y-45561250D02*
X171926250Y-45561250D01*
X94061350Y-85726800D02*
X158356450Y-85726800D01*
X85725000Y-42862500D02*
X94061350Y-51198850D01*
X175025550Y-69057700D02*
X175025550Y-45244700D01*
%TO.N,Net-(U1-GPIO4{slash}MISO)*%
X85725000Y-37862500D02*
X85725000Y-33340000D01*
X88487750Y-30577250D02*
X169072300Y-30577250D01*
X85725000Y-33340000D02*
X88487750Y-30577250D01*
X169072300Y-30577250D02*
X169072300Y-32147550D01*
X169072300Y-32147550D02*
X169072300Y-39291450D01*
%TD*%
M02*
