%TF.GenerationSoftware,KiCad,Pcbnew,9.0.7*%
%TF.CreationDate,2026-01-28T20:06:28-06:00*%
%TF.ProjectId,MicroPad actual,4d696372-6f50-4616-9420-61637475616c,rev?*%
%TF.SameCoordinates,Original*%
%TF.FileFunction,Drillmap*%
%TF.FilePolarity,Positive*%
%FSLAX45Y45*%
G04 Gerber Fmt 4.5, Leading zero omitted, Abs format (unit mm)*
G04 Created by KiCad (PCBNEW 9.0.7) date 2026-01-28 20:06:28*
%MOMM*%
%LPD*%
G01*
G04 APERTURE LIST*
%ADD10C,0.050000*%
%ADD11C,0.200000*%
%ADD12C,0.100000*%
%ADD13C,0.150000*%
%ADD14C,0.260000*%
G04 APERTURE END LIST*
D10*
X8334375Y-2997625D02*
X17609375Y-2997625D01*
X17609375Y-9025000D01*
X8334375Y-9025000D01*
X8334375Y-2997625D01*
D11*
D12*
X14272800Y-4747600D02*
X14302800Y-4777600D01*
X14302800Y-4747600D02*
X14272800Y-4777600D01*
X15106255Y-4747600D02*
X15136255Y-4777600D01*
X15136255Y-4747600D02*
X15106255Y-4777600D01*
X16296905Y-4152275D02*
X16326905Y-4182275D01*
X16326905Y-4152275D02*
X16296905Y-4182275D01*
X16785000Y-3885000D02*
X16815000Y-3915000D01*
X16815000Y-3885000D02*
X16785000Y-3915000D01*
X16892230Y-3914145D02*
X16922230Y-3944145D01*
X16922230Y-3914145D02*
X16892230Y-3944145D01*
X16892230Y-3914145D02*
X16922230Y-3944145D01*
X16922230Y-3914145D02*
X16892230Y-3944145D01*
X16892230Y-3914145D02*
X16922230Y-3944145D01*
X16922230Y-3914145D02*
X16892230Y-3944145D01*
X15713075Y-3286125D02*
G75*
G02*
X15624175Y-3286125I-44450J0D01*
G01*
X15624175Y-3286125D02*
G75*
G02*
X15713075Y-3286125I44450J0D01*
G01*
X15713075Y-3540125D02*
G75*
G02*
X15624175Y-3540125I-44450J0D01*
G01*
X15624175Y-3540125D02*
G75*
G02*
X15713075Y-3540125I44450J0D01*
G01*
X15713075Y-3794125D02*
G75*
G02*
X15624175Y-3794125I-44450J0D01*
G01*
X15624175Y-3794125D02*
G75*
G02*
X15713075Y-3794125I44450J0D01*
G01*
X15713075Y-4048125D02*
G75*
G02*
X15624175Y-4048125I-44450J0D01*
G01*
X15624175Y-4048125D02*
G75*
G02*
X15713075Y-4048125I44450J0D01*
G01*
X15713075Y-4302125D02*
G75*
G02*
X15624175Y-4302125I-44450J0D01*
G01*
X15624175Y-4302125D02*
G75*
G02*
X15713075Y-4302125I44450J0D01*
G01*
X15713075Y-4556125D02*
G75*
G02*
X15624175Y-4556125I-44450J0D01*
G01*
X15624175Y-4556125D02*
G75*
G02*
X15713075Y-4556125I44450J0D01*
G01*
X15713075Y-4810125D02*
G75*
G02*
X15624175Y-4810125I-44450J0D01*
G01*
X15624175Y-4810125D02*
G75*
G02*
X15713075Y-4810125I44450J0D01*
G01*
X17237075Y-3286125D02*
G75*
G02*
X17148175Y-3286125I-44450J0D01*
G01*
X17148175Y-3286125D02*
G75*
G02*
X17237075Y-3286125I44450J0D01*
G01*
X17237075Y-3540125D02*
G75*
G02*
X17148175Y-3540125I-44450J0D01*
G01*
X17148175Y-3540125D02*
G75*
G02*
X17237075Y-3540125I44450J0D01*
G01*
X17237075Y-3794125D02*
G75*
G02*
X17148175Y-3794125I-44450J0D01*
G01*
X17148175Y-3794125D02*
G75*
G02*
X17237075Y-3794125I44450J0D01*
G01*
X17237075Y-4048125D02*
G75*
G02*
X17148175Y-4048125I-44450J0D01*
G01*
X17148175Y-4048125D02*
G75*
G02*
X17237075Y-4048125I44450J0D01*
G01*
X17237075Y-4302125D02*
G75*
G02*
X17148175Y-4302125I-44450J0D01*
G01*
X17148175Y-4302125D02*
G75*
G02*
X17237075Y-4302125I44450J0D01*
G01*
X17237075Y-4556125D02*
G75*
G02*
X17148175Y-4556125I-44450J0D01*
G01*
X17148175Y-4556125D02*
G75*
G02*
X17237075Y-4556125I44450J0D01*
G01*
X17237075Y-4810125D02*
G75*
G02*
X17148175Y-4810125I-44450J0D01*
G01*
X17148175Y-4810125D02*
G75*
G02*
X17237075Y-4810125I44450J0D01*
G01*
X8572500Y-3736250D02*
X8572500Y-3836250D01*
X8522500Y-3786250D02*
X8622500Y-3786250D01*
X8572500Y-3986250D02*
X8572500Y-4086250D01*
X8522500Y-4036250D02*
X8622500Y-4036250D01*
X8572500Y-4236250D02*
X8572500Y-4336250D01*
X8522500Y-4286250D02*
X8622500Y-4286250D01*
X10022500Y-3736250D02*
X10022500Y-3836250D01*
X9972500Y-3786250D02*
X10072500Y-3786250D01*
X10022500Y-4236250D02*
X10022500Y-4336250D01*
X9972500Y-4286250D02*
X10072500Y-4286250D01*
X14763750Y-3474250D02*
X14763750Y-3574250D01*
X14713750Y-3524250D02*
X14813750Y-3524250D01*
X14763750Y-3728250D02*
X14763750Y-3828250D01*
X14713750Y-3778250D02*
X14813750Y-3778250D01*
X14763750Y-3982250D02*
X14763750Y-4082250D01*
X14713750Y-4032250D02*
X14813750Y-4032250D01*
X14763750Y-4236250D02*
X14763750Y-4336250D01*
X14713750Y-4286250D02*
X14813750Y-4286250D01*
D13*
X10149534Y-5752158D02*
X10149534Y-5646091D01*
X10043467Y-5646091D01*
X10043467Y-5752158D01*
X10149534Y-5752158D01*
X10149534Y-7657158D02*
X10149534Y-7551091D01*
X10043467Y-7551091D01*
X10043467Y-7657158D01*
X10149534Y-7657158D01*
X10784534Y-5498159D02*
X10784534Y-5392092D01*
X10678467Y-5392092D01*
X10678467Y-5498159D01*
X10784534Y-5498159D01*
X10784534Y-7403158D02*
X10784534Y-7297091D01*
X10678467Y-7297091D01*
X10678467Y-7403158D01*
X10784534Y-7403158D01*
X12054533Y-5752158D02*
X12054533Y-5646091D01*
X11948466Y-5646091D01*
X11948466Y-5752158D01*
X12054533Y-5752158D01*
X12054533Y-7657158D02*
X12054533Y-7551091D01*
X11948466Y-7551091D01*
X11948466Y-7657158D01*
X12054533Y-7657158D01*
X12689533Y-5498159D02*
X12689533Y-5392092D01*
X12583466Y-5392092D01*
X12583466Y-5498159D01*
X12689533Y-5498159D01*
X12689533Y-7403158D02*
X12689533Y-7297091D01*
X12583466Y-7297091D01*
X12583466Y-7403158D01*
X12689533Y-7403158D01*
X13959533Y-5752158D02*
X13959533Y-5646091D01*
X13853466Y-5646091D01*
X13853466Y-5752158D01*
X13959533Y-5752158D01*
X13959533Y-7657158D02*
X13959533Y-7551091D01*
X13853466Y-7551091D01*
X13853466Y-7657158D01*
X13959533Y-7657158D01*
X14594533Y-5498159D02*
X14594533Y-5392092D01*
X14488466Y-5392092D01*
X14488466Y-5498159D01*
X14594533Y-5498159D01*
X14594533Y-7403158D02*
X14594533Y-7297091D01*
X14488466Y-7297091D01*
X14488466Y-7403158D01*
X14594533Y-7403158D01*
D14*
X9322500Y-3606250D02*
X9452500Y-3476250D01*
X9322500Y-3346250D01*
X9192500Y-3476250D01*
X9322500Y-3606250D01*
X9322500Y-4726250D02*
X9452500Y-4596250D01*
X9322500Y-4466250D01*
X9192500Y-4596250D01*
X9322500Y-4726250D01*
D11*
X8592652Y-9338984D02*
X8592652Y-9138984D01*
X8592652Y-9138984D02*
X8640271Y-9138984D01*
X8640271Y-9138984D02*
X8668842Y-9148508D01*
X8668842Y-9148508D02*
X8687890Y-9167555D01*
X8687890Y-9167555D02*
X8697414Y-9186603D01*
X8697414Y-9186603D02*
X8706938Y-9224698D01*
X8706938Y-9224698D02*
X8706938Y-9253270D01*
X8706938Y-9253270D02*
X8697414Y-9291365D01*
X8697414Y-9291365D02*
X8687890Y-9310412D01*
X8687890Y-9310412D02*
X8668842Y-9329460D01*
X8668842Y-9329460D02*
X8640271Y-9338984D01*
X8640271Y-9338984D02*
X8592652Y-9338984D01*
X8792652Y-9338984D02*
X8792652Y-9205650D01*
X8792652Y-9243746D02*
X8802176Y-9224698D01*
X8802176Y-9224698D02*
X8811699Y-9215174D01*
X8811699Y-9215174D02*
X8830747Y-9205650D01*
X8830747Y-9205650D02*
X8849795Y-9205650D01*
X8916461Y-9338984D02*
X8916461Y-9205650D01*
X8916461Y-9138984D02*
X8906938Y-9148508D01*
X8906938Y-9148508D02*
X8916461Y-9158031D01*
X8916461Y-9158031D02*
X8925985Y-9148508D01*
X8925985Y-9148508D02*
X8916461Y-9138984D01*
X8916461Y-9138984D02*
X8916461Y-9158031D01*
X9040271Y-9338984D02*
X9021223Y-9329460D01*
X9021223Y-9329460D02*
X9011699Y-9310412D01*
X9011699Y-9310412D02*
X9011699Y-9138984D01*
X9145033Y-9338984D02*
X9125985Y-9329460D01*
X9125985Y-9329460D02*
X9116461Y-9310412D01*
X9116461Y-9310412D02*
X9116461Y-9138984D01*
X9373604Y-9338984D02*
X9373604Y-9138984D01*
X9373604Y-9138984D02*
X9440271Y-9281841D01*
X9440271Y-9281841D02*
X9506938Y-9138984D01*
X9506938Y-9138984D02*
X9506938Y-9338984D01*
X9687890Y-9338984D02*
X9687890Y-9234222D01*
X9687890Y-9234222D02*
X9678366Y-9215174D01*
X9678366Y-9215174D02*
X9659319Y-9205650D01*
X9659319Y-9205650D02*
X9621223Y-9205650D01*
X9621223Y-9205650D02*
X9602176Y-9215174D01*
X9687890Y-9329460D02*
X9668842Y-9338984D01*
X9668842Y-9338984D02*
X9621223Y-9338984D01*
X9621223Y-9338984D02*
X9602176Y-9329460D01*
X9602176Y-9329460D02*
X9592652Y-9310412D01*
X9592652Y-9310412D02*
X9592652Y-9291365D01*
X9592652Y-9291365D02*
X9602176Y-9272317D01*
X9602176Y-9272317D02*
X9621223Y-9262793D01*
X9621223Y-9262793D02*
X9668842Y-9262793D01*
X9668842Y-9262793D02*
X9687890Y-9253270D01*
X9783128Y-9205650D02*
X9783128Y-9405650D01*
X9783128Y-9215174D02*
X9802176Y-9205650D01*
X9802176Y-9205650D02*
X9840271Y-9205650D01*
X9840271Y-9205650D02*
X9859319Y-9215174D01*
X9859319Y-9215174D02*
X9868842Y-9224698D01*
X9868842Y-9224698D02*
X9878366Y-9243746D01*
X9878366Y-9243746D02*
X9878366Y-9300889D01*
X9878366Y-9300889D02*
X9868842Y-9319936D01*
X9868842Y-9319936D02*
X9859319Y-9329460D01*
X9859319Y-9329460D02*
X9840271Y-9338984D01*
X9840271Y-9338984D02*
X9802176Y-9338984D01*
X9802176Y-9338984D02*
X9783128Y-9329460D01*
X9964080Y-9319936D02*
X9973604Y-9329460D01*
X9973604Y-9329460D02*
X9964080Y-9338984D01*
X9964080Y-9338984D02*
X9954557Y-9329460D01*
X9954557Y-9329460D02*
X9964080Y-9319936D01*
X9964080Y-9319936D02*
X9964080Y-9338984D01*
X9964080Y-9215174D02*
X9973604Y-9224698D01*
X9973604Y-9224698D02*
X9964080Y-9234222D01*
X9964080Y-9234222D02*
X9954557Y-9224698D01*
X9954557Y-9224698D02*
X9964080Y-9215174D01*
X9964080Y-9215174D02*
X9964080Y-9234222D01*
D12*
X8301875Y-9652500D02*
X8331875Y-9682500D01*
X8331875Y-9652500D02*
X8301875Y-9682500D01*
D11*
X8630747Y-9558984D02*
X8649795Y-9558984D01*
X8649795Y-9558984D02*
X8668842Y-9568508D01*
X8668842Y-9568508D02*
X8678366Y-9578031D01*
X8678366Y-9578031D02*
X8687890Y-9597079D01*
X8687890Y-9597079D02*
X8697414Y-9635174D01*
X8697414Y-9635174D02*
X8697414Y-9682793D01*
X8697414Y-9682793D02*
X8687890Y-9720889D01*
X8687890Y-9720889D02*
X8678366Y-9739936D01*
X8678366Y-9739936D02*
X8668842Y-9749460D01*
X8668842Y-9749460D02*
X8649795Y-9758984D01*
X8649795Y-9758984D02*
X8630747Y-9758984D01*
X8630747Y-9758984D02*
X8611699Y-9749460D01*
X8611699Y-9749460D02*
X8602176Y-9739936D01*
X8602176Y-9739936D02*
X8592652Y-9720889D01*
X8592652Y-9720889D02*
X8583128Y-9682793D01*
X8583128Y-9682793D02*
X8583128Y-9635174D01*
X8583128Y-9635174D02*
X8592652Y-9597079D01*
X8592652Y-9597079D02*
X8602176Y-9578031D01*
X8602176Y-9578031D02*
X8611699Y-9568508D01*
X8611699Y-9568508D02*
X8630747Y-9558984D01*
X8783128Y-9739936D02*
X8792652Y-9749460D01*
X8792652Y-9749460D02*
X8783128Y-9758984D01*
X8783128Y-9758984D02*
X8773604Y-9749460D01*
X8773604Y-9749460D02*
X8783128Y-9739936D01*
X8783128Y-9739936D02*
X8783128Y-9758984D01*
X8859319Y-9558984D02*
X8983128Y-9558984D01*
X8983128Y-9558984D02*
X8916461Y-9635174D01*
X8916461Y-9635174D02*
X8945033Y-9635174D01*
X8945033Y-9635174D02*
X8964080Y-9644698D01*
X8964080Y-9644698D02*
X8973604Y-9654222D01*
X8973604Y-9654222D02*
X8983128Y-9673270D01*
X8983128Y-9673270D02*
X8983128Y-9720889D01*
X8983128Y-9720889D02*
X8973604Y-9739936D01*
X8973604Y-9739936D02*
X8964080Y-9749460D01*
X8964080Y-9749460D02*
X8945033Y-9758984D01*
X8945033Y-9758984D02*
X8887890Y-9758984D01*
X8887890Y-9758984D02*
X8868842Y-9749460D01*
X8868842Y-9749460D02*
X8859319Y-9739936D01*
X9106938Y-9558984D02*
X9125985Y-9558984D01*
X9125985Y-9558984D02*
X9145033Y-9568508D01*
X9145033Y-9568508D02*
X9154557Y-9578031D01*
X9154557Y-9578031D02*
X9164080Y-9597079D01*
X9164080Y-9597079D02*
X9173604Y-9635174D01*
X9173604Y-9635174D02*
X9173604Y-9682793D01*
X9173604Y-9682793D02*
X9164080Y-9720889D01*
X9164080Y-9720889D02*
X9154557Y-9739936D01*
X9154557Y-9739936D02*
X9145033Y-9749460D01*
X9145033Y-9749460D02*
X9125985Y-9758984D01*
X9125985Y-9758984D02*
X9106938Y-9758984D01*
X9106938Y-9758984D02*
X9087890Y-9749460D01*
X9087890Y-9749460D02*
X9078366Y-9739936D01*
X9078366Y-9739936D02*
X9068842Y-9720889D01*
X9068842Y-9720889D02*
X9059319Y-9682793D01*
X9059319Y-9682793D02*
X9059319Y-9635174D01*
X9059319Y-9635174D02*
X9068842Y-9597079D01*
X9068842Y-9597079D02*
X9078366Y-9578031D01*
X9078366Y-9578031D02*
X9087890Y-9568508D01*
X9087890Y-9568508D02*
X9106938Y-9558984D01*
X9297414Y-9558984D02*
X9316461Y-9558984D01*
X9316461Y-9558984D02*
X9335509Y-9568508D01*
X9335509Y-9568508D02*
X9345033Y-9578031D01*
X9345033Y-9578031D02*
X9354557Y-9597079D01*
X9354557Y-9597079D02*
X9364080Y-9635174D01*
X9364080Y-9635174D02*
X9364080Y-9682793D01*
X9364080Y-9682793D02*
X9354557Y-9720889D01*
X9354557Y-9720889D02*
X9345033Y-9739936D01*
X9345033Y-9739936D02*
X9335509Y-9749460D01*
X9335509Y-9749460D02*
X9316461Y-9758984D01*
X9316461Y-9758984D02*
X9297414Y-9758984D01*
X9297414Y-9758984D02*
X9278366Y-9749460D01*
X9278366Y-9749460D02*
X9268842Y-9739936D01*
X9268842Y-9739936D02*
X9259319Y-9720889D01*
X9259319Y-9720889D02*
X9249795Y-9682793D01*
X9249795Y-9682793D02*
X9249795Y-9635174D01*
X9249795Y-9635174D02*
X9259319Y-9597079D01*
X9259319Y-9597079D02*
X9268842Y-9578031D01*
X9268842Y-9578031D02*
X9278366Y-9568508D01*
X9278366Y-9568508D02*
X9297414Y-9558984D01*
X9449795Y-9758984D02*
X9449795Y-9625650D01*
X9449795Y-9644698D02*
X9459319Y-9635174D01*
X9459319Y-9635174D02*
X9478366Y-9625650D01*
X9478366Y-9625650D02*
X9506938Y-9625650D01*
X9506938Y-9625650D02*
X9525985Y-9635174D01*
X9525985Y-9635174D02*
X9535509Y-9654222D01*
X9535509Y-9654222D02*
X9535509Y-9758984D01*
X9535509Y-9654222D02*
X9545033Y-9635174D01*
X9545033Y-9635174D02*
X9564080Y-9625650D01*
X9564080Y-9625650D02*
X9592652Y-9625650D01*
X9592652Y-9625650D02*
X9611700Y-9635174D01*
X9611700Y-9635174D02*
X9621223Y-9654222D01*
X9621223Y-9654222D02*
X9621223Y-9758984D01*
X9716461Y-9758984D02*
X9716461Y-9625650D01*
X9716461Y-9644698D02*
X9725985Y-9635174D01*
X9725985Y-9635174D02*
X9745033Y-9625650D01*
X9745033Y-9625650D02*
X9773604Y-9625650D01*
X9773604Y-9625650D02*
X9792652Y-9635174D01*
X9792652Y-9635174D02*
X9802176Y-9654222D01*
X9802176Y-9654222D02*
X9802176Y-9758984D01*
X9802176Y-9654222D02*
X9811700Y-9635174D01*
X9811700Y-9635174D02*
X9830747Y-9625650D01*
X9830747Y-9625650D02*
X9859319Y-9625650D01*
X9859319Y-9625650D02*
X9878366Y-9635174D01*
X9878366Y-9635174D02*
X9887890Y-9654222D01*
X9887890Y-9654222D02*
X9887890Y-9758984D01*
X10278366Y-9549460D02*
X10106938Y-9806603D01*
X10535509Y-9558984D02*
X10554557Y-9558984D01*
X10554557Y-9558984D02*
X10573604Y-9568508D01*
X10573604Y-9568508D02*
X10583128Y-9578031D01*
X10583128Y-9578031D02*
X10592652Y-9597079D01*
X10592652Y-9597079D02*
X10602176Y-9635174D01*
X10602176Y-9635174D02*
X10602176Y-9682793D01*
X10602176Y-9682793D02*
X10592652Y-9720889D01*
X10592652Y-9720889D02*
X10583128Y-9739936D01*
X10583128Y-9739936D02*
X10573604Y-9749460D01*
X10573604Y-9749460D02*
X10554557Y-9758984D01*
X10554557Y-9758984D02*
X10535509Y-9758984D01*
X10535509Y-9758984D02*
X10516462Y-9749460D01*
X10516462Y-9749460D02*
X10506938Y-9739936D01*
X10506938Y-9739936D02*
X10497414Y-9720889D01*
X10497414Y-9720889D02*
X10487890Y-9682793D01*
X10487890Y-9682793D02*
X10487890Y-9635174D01*
X10487890Y-9635174D02*
X10497414Y-9597079D01*
X10497414Y-9597079D02*
X10506938Y-9578031D01*
X10506938Y-9578031D02*
X10516462Y-9568508D01*
X10516462Y-9568508D02*
X10535509Y-9558984D01*
X10687890Y-9739936D02*
X10697414Y-9749460D01*
X10697414Y-9749460D02*
X10687890Y-9758984D01*
X10687890Y-9758984D02*
X10678366Y-9749460D01*
X10678366Y-9749460D02*
X10687890Y-9739936D01*
X10687890Y-9739936D02*
X10687890Y-9758984D01*
X10821223Y-9558984D02*
X10840271Y-9558984D01*
X10840271Y-9558984D02*
X10859319Y-9568508D01*
X10859319Y-9568508D02*
X10868843Y-9578031D01*
X10868843Y-9578031D02*
X10878366Y-9597079D01*
X10878366Y-9597079D02*
X10887890Y-9635174D01*
X10887890Y-9635174D02*
X10887890Y-9682793D01*
X10887890Y-9682793D02*
X10878366Y-9720889D01*
X10878366Y-9720889D02*
X10868843Y-9739936D01*
X10868843Y-9739936D02*
X10859319Y-9749460D01*
X10859319Y-9749460D02*
X10840271Y-9758984D01*
X10840271Y-9758984D02*
X10821223Y-9758984D01*
X10821223Y-9758984D02*
X10802176Y-9749460D01*
X10802176Y-9749460D02*
X10792652Y-9739936D01*
X10792652Y-9739936D02*
X10783128Y-9720889D01*
X10783128Y-9720889D02*
X10773604Y-9682793D01*
X10773604Y-9682793D02*
X10773604Y-9635174D01*
X10773604Y-9635174D02*
X10783128Y-9597079D01*
X10783128Y-9597079D02*
X10792652Y-9578031D01*
X10792652Y-9578031D02*
X10802176Y-9568508D01*
X10802176Y-9568508D02*
X10821223Y-9558984D01*
X11078366Y-9758984D02*
X10964081Y-9758984D01*
X11021223Y-9758984D02*
X11021223Y-9558984D01*
X11021223Y-9558984D02*
X11002176Y-9587555D01*
X11002176Y-9587555D02*
X10983128Y-9606603D01*
X10983128Y-9606603D02*
X10964081Y-9616127D01*
X11268842Y-9758984D02*
X11154557Y-9758984D01*
X11211700Y-9758984D02*
X11211700Y-9558984D01*
X11211700Y-9558984D02*
X11192652Y-9587555D01*
X11192652Y-9587555D02*
X11173604Y-9606603D01*
X11173604Y-9606603D02*
X11154557Y-9616127D01*
X11383128Y-9644698D02*
X11364081Y-9635174D01*
X11364081Y-9635174D02*
X11354557Y-9625650D01*
X11354557Y-9625650D02*
X11345033Y-9606603D01*
X11345033Y-9606603D02*
X11345033Y-9597079D01*
X11345033Y-9597079D02*
X11354557Y-9578031D01*
X11354557Y-9578031D02*
X11364081Y-9568508D01*
X11364081Y-9568508D02*
X11383128Y-9558984D01*
X11383128Y-9558984D02*
X11421223Y-9558984D01*
X11421223Y-9558984D02*
X11440271Y-9568508D01*
X11440271Y-9568508D02*
X11449795Y-9578031D01*
X11449795Y-9578031D02*
X11459319Y-9597079D01*
X11459319Y-9597079D02*
X11459319Y-9606603D01*
X11459319Y-9606603D02*
X11449795Y-9625650D01*
X11449795Y-9625650D02*
X11440271Y-9635174D01*
X11440271Y-9635174D02*
X11421223Y-9644698D01*
X11421223Y-9644698D02*
X11383128Y-9644698D01*
X11383128Y-9644698D02*
X11364081Y-9654222D01*
X11364081Y-9654222D02*
X11354557Y-9663746D01*
X11354557Y-9663746D02*
X11345033Y-9682793D01*
X11345033Y-9682793D02*
X11345033Y-9720889D01*
X11345033Y-9720889D02*
X11354557Y-9739936D01*
X11354557Y-9739936D02*
X11364081Y-9749460D01*
X11364081Y-9749460D02*
X11383128Y-9758984D01*
X11383128Y-9758984D02*
X11421223Y-9758984D01*
X11421223Y-9758984D02*
X11440271Y-9749460D01*
X11440271Y-9749460D02*
X11449795Y-9739936D01*
X11449795Y-9739936D02*
X11459319Y-9720889D01*
X11459319Y-9720889D02*
X11459319Y-9682793D01*
X11459319Y-9682793D02*
X11449795Y-9663746D01*
X11449795Y-9663746D02*
X11440271Y-9654222D01*
X11440271Y-9654222D02*
X11421223Y-9644698D01*
X11535509Y-9558984D02*
X11535509Y-9597079D01*
X11611700Y-9558984D02*
X11611700Y-9597079D01*
X11906938Y-9835174D02*
X11897414Y-9825650D01*
X11897414Y-9825650D02*
X11878366Y-9797079D01*
X11878366Y-9797079D02*
X11868843Y-9778031D01*
X11868843Y-9778031D02*
X11859319Y-9749460D01*
X11859319Y-9749460D02*
X11849795Y-9701841D01*
X11849795Y-9701841D02*
X11849795Y-9663746D01*
X11849795Y-9663746D02*
X11859319Y-9616127D01*
X11859319Y-9616127D02*
X11868843Y-9587555D01*
X11868843Y-9587555D02*
X11878366Y-9568508D01*
X11878366Y-9568508D02*
X11897414Y-9539936D01*
X11897414Y-9539936D02*
X11906938Y-9530412D01*
X11964081Y-9558984D02*
X12097414Y-9558984D01*
X12097414Y-9558984D02*
X12011700Y-9758984D01*
X12325985Y-9758984D02*
X12325985Y-9558984D01*
X12411700Y-9758984D02*
X12411700Y-9654222D01*
X12411700Y-9654222D02*
X12402176Y-9635174D01*
X12402176Y-9635174D02*
X12383128Y-9625650D01*
X12383128Y-9625650D02*
X12354557Y-9625650D01*
X12354557Y-9625650D02*
X12335509Y-9635174D01*
X12335509Y-9635174D02*
X12325985Y-9644698D01*
X12535509Y-9758984D02*
X12516462Y-9749460D01*
X12516462Y-9749460D02*
X12506938Y-9739936D01*
X12506938Y-9739936D02*
X12497414Y-9720889D01*
X12497414Y-9720889D02*
X12497414Y-9663746D01*
X12497414Y-9663746D02*
X12506938Y-9644698D01*
X12506938Y-9644698D02*
X12516462Y-9635174D01*
X12516462Y-9635174D02*
X12535509Y-9625650D01*
X12535509Y-9625650D02*
X12564081Y-9625650D01*
X12564081Y-9625650D02*
X12583128Y-9635174D01*
X12583128Y-9635174D02*
X12592652Y-9644698D01*
X12592652Y-9644698D02*
X12602176Y-9663746D01*
X12602176Y-9663746D02*
X12602176Y-9720889D01*
X12602176Y-9720889D02*
X12592652Y-9739936D01*
X12592652Y-9739936D02*
X12583128Y-9749460D01*
X12583128Y-9749460D02*
X12564081Y-9758984D01*
X12564081Y-9758984D02*
X12535509Y-9758984D01*
X12716462Y-9758984D02*
X12697414Y-9749460D01*
X12697414Y-9749460D02*
X12687890Y-9730412D01*
X12687890Y-9730412D02*
X12687890Y-9558984D01*
X12868843Y-9749460D02*
X12849795Y-9758984D01*
X12849795Y-9758984D02*
X12811700Y-9758984D01*
X12811700Y-9758984D02*
X12792652Y-9749460D01*
X12792652Y-9749460D02*
X12783128Y-9730412D01*
X12783128Y-9730412D02*
X12783128Y-9654222D01*
X12783128Y-9654222D02*
X12792652Y-9635174D01*
X12792652Y-9635174D02*
X12811700Y-9625650D01*
X12811700Y-9625650D02*
X12849795Y-9625650D01*
X12849795Y-9625650D02*
X12868843Y-9635174D01*
X12868843Y-9635174D02*
X12878366Y-9654222D01*
X12878366Y-9654222D02*
X12878366Y-9673270D01*
X12878366Y-9673270D02*
X12783128Y-9692317D01*
X12954557Y-9749460D02*
X12973605Y-9758984D01*
X12973605Y-9758984D02*
X13011700Y-9758984D01*
X13011700Y-9758984D02*
X13030747Y-9749460D01*
X13030747Y-9749460D02*
X13040271Y-9730412D01*
X13040271Y-9730412D02*
X13040271Y-9720889D01*
X13040271Y-9720889D02*
X13030747Y-9701841D01*
X13030747Y-9701841D02*
X13011700Y-9692317D01*
X13011700Y-9692317D02*
X12983128Y-9692317D01*
X12983128Y-9692317D02*
X12964081Y-9682793D01*
X12964081Y-9682793D02*
X12954557Y-9663746D01*
X12954557Y-9663746D02*
X12954557Y-9654222D01*
X12954557Y-9654222D02*
X12964081Y-9635174D01*
X12964081Y-9635174D02*
X12983128Y-9625650D01*
X12983128Y-9625650D02*
X13011700Y-9625650D01*
X13011700Y-9625650D02*
X13030747Y-9635174D01*
X13106938Y-9835174D02*
X13116462Y-9825650D01*
X13116462Y-9825650D02*
X13135509Y-9797079D01*
X13135509Y-9797079D02*
X13145033Y-9778031D01*
X13145033Y-9778031D02*
X13154557Y-9749460D01*
X13154557Y-9749460D02*
X13164081Y-9701841D01*
X13164081Y-9701841D02*
X13164081Y-9663746D01*
X13164081Y-9663746D02*
X13154557Y-9616127D01*
X13154557Y-9616127D02*
X13145033Y-9587555D01*
X13145033Y-9587555D02*
X13135509Y-9568508D01*
X13135509Y-9568508D02*
X13116462Y-9539936D01*
X13116462Y-9539936D02*
X13106938Y-9530412D01*
D12*
X8331875Y-9931500D02*
G75*
G02*
X8242975Y-9931500I-44450J0D01*
G01*
X8242975Y-9931500D02*
G75*
G02*
X8331875Y-9931500I44450J0D01*
G01*
D11*
X8630747Y-9822984D02*
X8649795Y-9822984D01*
X8649795Y-9822984D02*
X8668842Y-9832508D01*
X8668842Y-9832508D02*
X8678366Y-9842031D01*
X8678366Y-9842031D02*
X8687890Y-9861079D01*
X8687890Y-9861079D02*
X8697414Y-9899174D01*
X8697414Y-9899174D02*
X8697414Y-9946793D01*
X8697414Y-9946793D02*
X8687890Y-9984889D01*
X8687890Y-9984889D02*
X8678366Y-10003936D01*
X8678366Y-10003936D02*
X8668842Y-10013460D01*
X8668842Y-10013460D02*
X8649795Y-10022984D01*
X8649795Y-10022984D02*
X8630747Y-10022984D01*
X8630747Y-10022984D02*
X8611699Y-10013460D01*
X8611699Y-10013460D02*
X8602176Y-10003936D01*
X8602176Y-10003936D02*
X8592652Y-9984889D01*
X8592652Y-9984889D02*
X8583128Y-9946793D01*
X8583128Y-9946793D02*
X8583128Y-9899174D01*
X8583128Y-9899174D02*
X8592652Y-9861079D01*
X8592652Y-9861079D02*
X8602176Y-9842031D01*
X8602176Y-9842031D02*
X8611699Y-9832508D01*
X8611699Y-9832508D02*
X8630747Y-9822984D01*
X8783128Y-10003936D02*
X8792652Y-10013460D01*
X8792652Y-10013460D02*
X8783128Y-10022984D01*
X8783128Y-10022984D02*
X8773604Y-10013460D01*
X8773604Y-10013460D02*
X8783128Y-10003936D01*
X8783128Y-10003936D02*
X8783128Y-10022984D01*
X8906938Y-9908698D02*
X8887890Y-9899174D01*
X8887890Y-9899174D02*
X8878366Y-9889650D01*
X8878366Y-9889650D02*
X8868842Y-9870603D01*
X8868842Y-9870603D02*
X8868842Y-9861079D01*
X8868842Y-9861079D02*
X8878366Y-9842031D01*
X8878366Y-9842031D02*
X8887890Y-9832508D01*
X8887890Y-9832508D02*
X8906938Y-9822984D01*
X8906938Y-9822984D02*
X8945033Y-9822984D01*
X8945033Y-9822984D02*
X8964080Y-9832508D01*
X8964080Y-9832508D02*
X8973604Y-9842031D01*
X8973604Y-9842031D02*
X8983128Y-9861079D01*
X8983128Y-9861079D02*
X8983128Y-9870603D01*
X8983128Y-9870603D02*
X8973604Y-9889650D01*
X8973604Y-9889650D02*
X8964080Y-9899174D01*
X8964080Y-9899174D02*
X8945033Y-9908698D01*
X8945033Y-9908698D02*
X8906938Y-9908698D01*
X8906938Y-9908698D02*
X8887890Y-9918222D01*
X8887890Y-9918222D02*
X8878366Y-9927746D01*
X8878366Y-9927746D02*
X8868842Y-9946793D01*
X8868842Y-9946793D02*
X8868842Y-9984889D01*
X8868842Y-9984889D02*
X8878366Y-10003936D01*
X8878366Y-10003936D02*
X8887890Y-10013460D01*
X8887890Y-10013460D02*
X8906938Y-10022984D01*
X8906938Y-10022984D02*
X8945033Y-10022984D01*
X8945033Y-10022984D02*
X8964080Y-10013460D01*
X8964080Y-10013460D02*
X8973604Y-10003936D01*
X8973604Y-10003936D02*
X8983128Y-9984889D01*
X8983128Y-9984889D02*
X8983128Y-9946793D01*
X8983128Y-9946793D02*
X8973604Y-9927746D01*
X8973604Y-9927746D02*
X8964080Y-9918222D01*
X8964080Y-9918222D02*
X8945033Y-9908698D01*
X9097414Y-9908698D02*
X9078366Y-9899174D01*
X9078366Y-9899174D02*
X9068842Y-9889650D01*
X9068842Y-9889650D02*
X9059319Y-9870603D01*
X9059319Y-9870603D02*
X9059319Y-9861079D01*
X9059319Y-9861079D02*
X9068842Y-9842031D01*
X9068842Y-9842031D02*
X9078366Y-9832508D01*
X9078366Y-9832508D02*
X9097414Y-9822984D01*
X9097414Y-9822984D02*
X9135509Y-9822984D01*
X9135509Y-9822984D02*
X9154557Y-9832508D01*
X9154557Y-9832508D02*
X9164080Y-9842031D01*
X9164080Y-9842031D02*
X9173604Y-9861079D01*
X9173604Y-9861079D02*
X9173604Y-9870603D01*
X9173604Y-9870603D02*
X9164080Y-9889650D01*
X9164080Y-9889650D02*
X9154557Y-9899174D01*
X9154557Y-9899174D02*
X9135509Y-9908698D01*
X9135509Y-9908698D02*
X9097414Y-9908698D01*
X9097414Y-9908698D02*
X9078366Y-9918222D01*
X9078366Y-9918222D02*
X9068842Y-9927746D01*
X9068842Y-9927746D02*
X9059319Y-9946793D01*
X9059319Y-9946793D02*
X9059319Y-9984889D01*
X9059319Y-9984889D02*
X9068842Y-10003936D01*
X9068842Y-10003936D02*
X9078366Y-10013460D01*
X9078366Y-10013460D02*
X9097414Y-10022984D01*
X9097414Y-10022984D02*
X9135509Y-10022984D01*
X9135509Y-10022984D02*
X9154557Y-10013460D01*
X9154557Y-10013460D02*
X9164080Y-10003936D01*
X9164080Y-10003936D02*
X9173604Y-9984889D01*
X9173604Y-9984889D02*
X9173604Y-9946793D01*
X9173604Y-9946793D02*
X9164080Y-9927746D01*
X9164080Y-9927746D02*
X9154557Y-9918222D01*
X9154557Y-9918222D02*
X9135509Y-9908698D01*
X9268842Y-10022984D02*
X9306938Y-10022984D01*
X9306938Y-10022984D02*
X9325985Y-10013460D01*
X9325985Y-10013460D02*
X9335509Y-10003936D01*
X9335509Y-10003936D02*
X9354557Y-9975365D01*
X9354557Y-9975365D02*
X9364080Y-9937270D01*
X9364080Y-9937270D02*
X9364080Y-9861079D01*
X9364080Y-9861079D02*
X9354557Y-9842031D01*
X9354557Y-9842031D02*
X9345033Y-9832508D01*
X9345033Y-9832508D02*
X9325985Y-9822984D01*
X9325985Y-9822984D02*
X9287890Y-9822984D01*
X9287890Y-9822984D02*
X9268842Y-9832508D01*
X9268842Y-9832508D02*
X9259319Y-9842031D01*
X9259319Y-9842031D02*
X9249795Y-9861079D01*
X9249795Y-9861079D02*
X9249795Y-9908698D01*
X9249795Y-9908698D02*
X9259319Y-9927746D01*
X9259319Y-9927746D02*
X9268842Y-9937270D01*
X9268842Y-9937270D02*
X9287890Y-9946793D01*
X9287890Y-9946793D02*
X9325985Y-9946793D01*
X9325985Y-9946793D02*
X9345033Y-9937270D01*
X9345033Y-9937270D02*
X9354557Y-9927746D01*
X9354557Y-9927746D02*
X9364080Y-9908698D01*
X9449795Y-10022984D02*
X9449795Y-9889650D01*
X9449795Y-9908698D02*
X9459319Y-9899174D01*
X9459319Y-9899174D02*
X9478366Y-9889650D01*
X9478366Y-9889650D02*
X9506938Y-9889650D01*
X9506938Y-9889650D02*
X9525985Y-9899174D01*
X9525985Y-9899174D02*
X9535509Y-9918222D01*
X9535509Y-9918222D02*
X9535509Y-10022984D01*
X9535509Y-9918222D02*
X9545033Y-9899174D01*
X9545033Y-9899174D02*
X9564080Y-9889650D01*
X9564080Y-9889650D02*
X9592652Y-9889650D01*
X9592652Y-9889650D02*
X9611700Y-9899174D01*
X9611700Y-9899174D02*
X9621223Y-9918222D01*
X9621223Y-9918222D02*
X9621223Y-10022984D01*
X9716461Y-10022984D02*
X9716461Y-9889650D01*
X9716461Y-9908698D02*
X9725985Y-9899174D01*
X9725985Y-9899174D02*
X9745033Y-9889650D01*
X9745033Y-9889650D02*
X9773604Y-9889650D01*
X9773604Y-9889650D02*
X9792652Y-9899174D01*
X9792652Y-9899174D02*
X9802176Y-9918222D01*
X9802176Y-9918222D02*
X9802176Y-10022984D01*
X9802176Y-9918222D02*
X9811700Y-9899174D01*
X9811700Y-9899174D02*
X9830747Y-9889650D01*
X9830747Y-9889650D02*
X9859319Y-9889650D01*
X9859319Y-9889650D02*
X9878366Y-9899174D01*
X9878366Y-9899174D02*
X9887890Y-9918222D01*
X9887890Y-9918222D02*
X9887890Y-10022984D01*
X10278366Y-9813460D02*
X10106938Y-10070603D01*
X10535509Y-9822984D02*
X10554557Y-9822984D01*
X10554557Y-9822984D02*
X10573604Y-9832508D01*
X10573604Y-9832508D02*
X10583128Y-9842031D01*
X10583128Y-9842031D02*
X10592652Y-9861079D01*
X10592652Y-9861079D02*
X10602176Y-9899174D01*
X10602176Y-9899174D02*
X10602176Y-9946793D01*
X10602176Y-9946793D02*
X10592652Y-9984889D01*
X10592652Y-9984889D02*
X10583128Y-10003936D01*
X10583128Y-10003936D02*
X10573604Y-10013460D01*
X10573604Y-10013460D02*
X10554557Y-10022984D01*
X10554557Y-10022984D02*
X10535509Y-10022984D01*
X10535509Y-10022984D02*
X10516462Y-10013460D01*
X10516462Y-10013460D02*
X10506938Y-10003936D01*
X10506938Y-10003936D02*
X10497414Y-9984889D01*
X10497414Y-9984889D02*
X10487890Y-9946793D01*
X10487890Y-9946793D02*
X10487890Y-9899174D01*
X10487890Y-9899174D02*
X10497414Y-9861079D01*
X10497414Y-9861079D02*
X10506938Y-9842031D01*
X10506938Y-9842031D02*
X10516462Y-9832508D01*
X10516462Y-9832508D02*
X10535509Y-9822984D01*
X10687890Y-10003936D02*
X10697414Y-10013460D01*
X10697414Y-10013460D02*
X10687890Y-10022984D01*
X10687890Y-10022984D02*
X10678366Y-10013460D01*
X10678366Y-10013460D02*
X10687890Y-10003936D01*
X10687890Y-10003936D02*
X10687890Y-10022984D01*
X10821223Y-9822984D02*
X10840271Y-9822984D01*
X10840271Y-9822984D02*
X10859319Y-9832508D01*
X10859319Y-9832508D02*
X10868843Y-9842031D01*
X10868843Y-9842031D02*
X10878366Y-9861079D01*
X10878366Y-9861079D02*
X10887890Y-9899174D01*
X10887890Y-9899174D02*
X10887890Y-9946793D01*
X10887890Y-9946793D02*
X10878366Y-9984889D01*
X10878366Y-9984889D02*
X10868843Y-10003936D01*
X10868843Y-10003936D02*
X10859319Y-10013460D01*
X10859319Y-10013460D02*
X10840271Y-10022984D01*
X10840271Y-10022984D02*
X10821223Y-10022984D01*
X10821223Y-10022984D02*
X10802176Y-10013460D01*
X10802176Y-10013460D02*
X10792652Y-10003936D01*
X10792652Y-10003936D02*
X10783128Y-9984889D01*
X10783128Y-9984889D02*
X10773604Y-9946793D01*
X10773604Y-9946793D02*
X10773604Y-9899174D01*
X10773604Y-9899174D02*
X10783128Y-9861079D01*
X10783128Y-9861079D02*
X10792652Y-9842031D01*
X10792652Y-9842031D02*
X10802176Y-9832508D01*
X10802176Y-9832508D02*
X10821223Y-9822984D01*
X10954557Y-9822984D02*
X11078366Y-9822984D01*
X11078366Y-9822984D02*
X11011700Y-9899174D01*
X11011700Y-9899174D02*
X11040271Y-9899174D01*
X11040271Y-9899174D02*
X11059319Y-9908698D01*
X11059319Y-9908698D02*
X11068843Y-9918222D01*
X11068843Y-9918222D02*
X11078366Y-9937270D01*
X11078366Y-9937270D02*
X11078366Y-9984889D01*
X11078366Y-9984889D02*
X11068843Y-10003936D01*
X11068843Y-10003936D02*
X11059319Y-10013460D01*
X11059319Y-10013460D02*
X11040271Y-10022984D01*
X11040271Y-10022984D02*
X10983128Y-10022984D01*
X10983128Y-10022984D02*
X10964081Y-10013460D01*
X10964081Y-10013460D02*
X10954557Y-10003936D01*
X11259319Y-9822984D02*
X11164081Y-9822984D01*
X11164081Y-9822984D02*
X11154557Y-9918222D01*
X11154557Y-9918222D02*
X11164081Y-9908698D01*
X11164081Y-9908698D02*
X11183128Y-9899174D01*
X11183128Y-9899174D02*
X11230747Y-9899174D01*
X11230747Y-9899174D02*
X11249795Y-9908698D01*
X11249795Y-9908698D02*
X11259319Y-9918222D01*
X11259319Y-9918222D02*
X11268842Y-9937270D01*
X11268842Y-9937270D02*
X11268842Y-9984889D01*
X11268842Y-9984889D02*
X11259319Y-10003936D01*
X11259319Y-10003936D02*
X11249795Y-10013460D01*
X11249795Y-10013460D02*
X11230747Y-10022984D01*
X11230747Y-10022984D02*
X11183128Y-10022984D01*
X11183128Y-10022984D02*
X11164081Y-10013460D01*
X11164081Y-10013460D02*
X11154557Y-10003936D01*
X11392652Y-9822984D02*
X11411700Y-9822984D01*
X11411700Y-9822984D02*
X11430747Y-9832508D01*
X11430747Y-9832508D02*
X11440271Y-9842031D01*
X11440271Y-9842031D02*
X11449795Y-9861079D01*
X11449795Y-9861079D02*
X11459319Y-9899174D01*
X11459319Y-9899174D02*
X11459319Y-9946793D01*
X11459319Y-9946793D02*
X11449795Y-9984889D01*
X11449795Y-9984889D02*
X11440271Y-10003936D01*
X11440271Y-10003936D02*
X11430747Y-10013460D01*
X11430747Y-10013460D02*
X11411700Y-10022984D01*
X11411700Y-10022984D02*
X11392652Y-10022984D01*
X11392652Y-10022984D02*
X11373604Y-10013460D01*
X11373604Y-10013460D02*
X11364081Y-10003936D01*
X11364081Y-10003936D02*
X11354557Y-9984889D01*
X11354557Y-9984889D02*
X11345033Y-9946793D01*
X11345033Y-9946793D02*
X11345033Y-9899174D01*
X11345033Y-9899174D02*
X11354557Y-9861079D01*
X11354557Y-9861079D02*
X11364081Y-9842031D01*
X11364081Y-9842031D02*
X11373604Y-9832508D01*
X11373604Y-9832508D02*
X11392652Y-9822984D01*
X11535509Y-9822984D02*
X11535509Y-9861079D01*
X11611700Y-9822984D02*
X11611700Y-9861079D01*
X11906938Y-10099174D02*
X11897414Y-10089650D01*
X11897414Y-10089650D02*
X11878366Y-10061079D01*
X11878366Y-10061079D02*
X11868843Y-10042031D01*
X11868843Y-10042031D02*
X11859319Y-10013460D01*
X11859319Y-10013460D02*
X11849795Y-9965841D01*
X11849795Y-9965841D02*
X11849795Y-9927746D01*
X11849795Y-9927746D02*
X11859319Y-9880127D01*
X11859319Y-9880127D02*
X11868843Y-9851555D01*
X11868843Y-9851555D02*
X11878366Y-9832508D01*
X11878366Y-9832508D02*
X11897414Y-9803936D01*
X11897414Y-9803936D02*
X11906938Y-9794412D01*
X12087890Y-10022984D02*
X11973604Y-10022984D01*
X12030747Y-10022984D02*
X12030747Y-9822984D01*
X12030747Y-9822984D02*
X12011700Y-9851555D01*
X12011700Y-9851555D02*
X11992652Y-9870603D01*
X11992652Y-9870603D02*
X11973604Y-9880127D01*
X12259319Y-9889650D02*
X12259319Y-10022984D01*
X12211700Y-9813460D02*
X12164081Y-9956317D01*
X12164081Y-9956317D02*
X12287890Y-9956317D01*
X12516462Y-10022984D02*
X12516462Y-9822984D01*
X12602176Y-10022984D02*
X12602176Y-9918222D01*
X12602176Y-9918222D02*
X12592652Y-9899174D01*
X12592652Y-9899174D02*
X12573605Y-9889650D01*
X12573605Y-9889650D02*
X12545033Y-9889650D01*
X12545033Y-9889650D02*
X12525985Y-9899174D01*
X12525985Y-9899174D02*
X12516462Y-9908698D01*
X12725985Y-10022984D02*
X12706938Y-10013460D01*
X12706938Y-10013460D02*
X12697414Y-10003936D01*
X12697414Y-10003936D02*
X12687890Y-9984889D01*
X12687890Y-9984889D02*
X12687890Y-9927746D01*
X12687890Y-9927746D02*
X12697414Y-9908698D01*
X12697414Y-9908698D02*
X12706938Y-9899174D01*
X12706938Y-9899174D02*
X12725985Y-9889650D01*
X12725985Y-9889650D02*
X12754557Y-9889650D01*
X12754557Y-9889650D02*
X12773605Y-9899174D01*
X12773605Y-9899174D02*
X12783128Y-9908698D01*
X12783128Y-9908698D02*
X12792652Y-9927746D01*
X12792652Y-9927746D02*
X12792652Y-9984889D01*
X12792652Y-9984889D02*
X12783128Y-10003936D01*
X12783128Y-10003936D02*
X12773605Y-10013460D01*
X12773605Y-10013460D02*
X12754557Y-10022984D01*
X12754557Y-10022984D02*
X12725985Y-10022984D01*
X12906938Y-10022984D02*
X12887890Y-10013460D01*
X12887890Y-10013460D02*
X12878366Y-9994412D01*
X12878366Y-9994412D02*
X12878366Y-9822984D01*
X13059319Y-10013460D02*
X13040271Y-10022984D01*
X13040271Y-10022984D02*
X13002176Y-10022984D01*
X13002176Y-10022984D02*
X12983128Y-10013460D01*
X12983128Y-10013460D02*
X12973605Y-9994412D01*
X12973605Y-9994412D02*
X12973605Y-9918222D01*
X12973605Y-9918222D02*
X12983128Y-9899174D01*
X12983128Y-9899174D02*
X13002176Y-9889650D01*
X13002176Y-9889650D02*
X13040271Y-9889650D01*
X13040271Y-9889650D02*
X13059319Y-9899174D01*
X13059319Y-9899174D02*
X13068843Y-9918222D01*
X13068843Y-9918222D02*
X13068843Y-9937270D01*
X13068843Y-9937270D02*
X12973605Y-9956317D01*
X13145033Y-10013460D02*
X13164081Y-10022984D01*
X13164081Y-10022984D02*
X13202176Y-10022984D01*
X13202176Y-10022984D02*
X13221224Y-10013460D01*
X13221224Y-10013460D02*
X13230747Y-9994412D01*
X13230747Y-9994412D02*
X13230747Y-9984889D01*
X13230747Y-9984889D02*
X13221224Y-9965841D01*
X13221224Y-9965841D02*
X13202176Y-9956317D01*
X13202176Y-9956317D02*
X13173605Y-9956317D01*
X13173605Y-9956317D02*
X13154557Y-9946793D01*
X13154557Y-9946793D02*
X13145033Y-9927746D01*
X13145033Y-9927746D02*
X13145033Y-9918222D01*
X13145033Y-9918222D02*
X13154557Y-9899174D01*
X13154557Y-9899174D02*
X13173605Y-9889650D01*
X13173605Y-9889650D02*
X13202176Y-9889650D01*
X13202176Y-9889650D02*
X13221224Y-9899174D01*
X13297414Y-10099174D02*
X13306938Y-10089650D01*
X13306938Y-10089650D02*
X13325986Y-10061079D01*
X13325986Y-10061079D02*
X13335509Y-10042031D01*
X13335509Y-10042031D02*
X13345033Y-10013460D01*
X13345033Y-10013460D02*
X13354557Y-9965841D01*
X13354557Y-9965841D02*
X13354557Y-9927746D01*
X13354557Y-9927746D02*
X13345033Y-9880127D01*
X13345033Y-9880127D02*
X13335509Y-9851555D01*
X13335509Y-9851555D02*
X13325986Y-9832508D01*
X13325986Y-9832508D02*
X13306938Y-9803936D01*
X13306938Y-9803936D02*
X13297414Y-9794412D01*
D12*
X8281875Y-10145500D02*
X8281875Y-10245500D01*
X8231875Y-10195500D02*
X8331875Y-10195500D01*
D11*
X8697414Y-10286984D02*
X8583128Y-10286984D01*
X8640271Y-10286984D02*
X8640271Y-10086984D01*
X8640271Y-10086984D02*
X8621223Y-10115555D01*
X8621223Y-10115555D02*
X8602176Y-10134603D01*
X8602176Y-10134603D02*
X8583128Y-10144127D01*
X8783128Y-10267936D02*
X8792652Y-10277460D01*
X8792652Y-10277460D02*
X8783128Y-10286984D01*
X8783128Y-10286984D02*
X8773604Y-10277460D01*
X8773604Y-10277460D02*
X8783128Y-10267936D01*
X8783128Y-10267936D02*
X8783128Y-10286984D01*
X8916461Y-10086984D02*
X8935509Y-10086984D01*
X8935509Y-10086984D02*
X8954557Y-10096508D01*
X8954557Y-10096508D02*
X8964080Y-10106031D01*
X8964080Y-10106031D02*
X8973604Y-10125079D01*
X8973604Y-10125079D02*
X8983128Y-10163174D01*
X8983128Y-10163174D02*
X8983128Y-10210793D01*
X8983128Y-10210793D02*
X8973604Y-10248889D01*
X8973604Y-10248889D02*
X8964080Y-10267936D01*
X8964080Y-10267936D02*
X8954557Y-10277460D01*
X8954557Y-10277460D02*
X8935509Y-10286984D01*
X8935509Y-10286984D02*
X8916461Y-10286984D01*
X8916461Y-10286984D02*
X8897414Y-10277460D01*
X8897414Y-10277460D02*
X8887890Y-10267936D01*
X8887890Y-10267936D02*
X8878366Y-10248889D01*
X8878366Y-10248889D02*
X8868842Y-10210793D01*
X8868842Y-10210793D02*
X8868842Y-10163174D01*
X8868842Y-10163174D02*
X8878366Y-10125079D01*
X8878366Y-10125079D02*
X8887890Y-10106031D01*
X8887890Y-10106031D02*
X8897414Y-10096508D01*
X8897414Y-10096508D02*
X8916461Y-10086984D01*
X9106938Y-10086984D02*
X9125985Y-10086984D01*
X9125985Y-10086984D02*
X9145033Y-10096508D01*
X9145033Y-10096508D02*
X9154557Y-10106031D01*
X9154557Y-10106031D02*
X9164080Y-10125079D01*
X9164080Y-10125079D02*
X9173604Y-10163174D01*
X9173604Y-10163174D02*
X9173604Y-10210793D01*
X9173604Y-10210793D02*
X9164080Y-10248889D01*
X9164080Y-10248889D02*
X9154557Y-10267936D01*
X9154557Y-10267936D02*
X9145033Y-10277460D01*
X9145033Y-10277460D02*
X9125985Y-10286984D01*
X9125985Y-10286984D02*
X9106938Y-10286984D01*
X9106938Y-10286984D02*
X9087890Y-10277460D01*
X9087890Y-10277460D02*
X9078366Y-10267936D01*
X9078366Y-10267936D02*
X9068842Y-10248889D01*
X9068842Y-10248889D02*
X9059319Y-10210793D01*
X9059319Y-10210793D02*
X9059319Y-10163174D01*
X9059319Y-10163174D02*
X9068842Y-10125079D01*
X9068842Y-10125079D02*
X9078366Y-10106031D01*
X9078366Y-10106031D02*
X9087890Y-10096508D01*
X9087890Y-10096508D02*
X9106938Y-10086984D01*
X9297414Y-10086984D02*
X9316461Y-10086984D01*
X9316461Y-10086984D02*
X9335509Y-10096508D01*
X9335509Y-10096508D02*
X9345033Y-10106031D01*
X9345033Y-10106031D02*
X9354557Y-10125079D01*
X9354557Y-10125079D02*
X9364080Y-10163174D01*
X9364080Y-10163174D02*
X9364080Y-10210793D01*
X9364080Y-10210793D02*
X9354557Y-10248889D01*
X9354557Y-10248889D02*
X9345033Y-10267936D01*
X9345033Y-10267936D02*
X9335509Y-10277460D01*
X9335509Y-10277460D02*
X9316461Y-10286984D01*
X9316461Y-10286984D02*
X9297414Y-10286984D01*
X9297414Y-10286984D02*
X9278366Y-10277460D01*
X9278366Y-10277460D02*
X9268842Y-10267936D01*
X9268842Y-10267936D02*
X9259319Y-10248889D01*
X9259319Y-10248889D02*
X9249795Y-10210793D01*
X9249795Y-10210793D02*
X9249795Y-10163174D01*
X9249795Y-10163174D02*
X9259319Y-10125079D01*
X9259319Y-10125079D02*
X9268842Y-10106031D01*
X9268842Y-10106031D02*
X9278366Y-10096508D01*
X9278366Y-10096508D02*
X9297414Y-10086984D01*
X9449795Y-10286984D02*
X9449795Y-10153650D01*
X9449795Y-10172698D02*
X9459319Y-10163174D01*
X9459319Y-10163174D02*
X9478366Y-10153650D01*
X9478366Y-10153650D02*
X9506938Y-10153650D01*
X9506938Y-10153650D02*
X9525985Y-10163174D01*
X9525985Y-10163174D02*
X9535509Y-10182222D01*
X9535509Y-10182222D02*
X9535509Y-10286984D01*
X9535509Y-10182222D02*
X9545033Y-10163174D01*
X9545033Y-10163174D02*
X9564080Y-10153650D01*
X9564080Y-10153650D02*
X9592652Y-10153650D01*
X9592652Y-10153650D02*
X9611700Y-10163174D01*
X9611700Y-10163174D02*
X9621223Y-10182222D01*
X9621223Y-10182222D02*
X9621223Y-10286984D01*
X9716461Y-10286984D02*
X9716461Y-10153650D01*
X9716461Y-10172698D02*
X9725985Y-10163174D01*
X9725985Y-10163174D02*
X9745033Y-10153650D01*
X9745033Y-10153650D02*
X9773604Y-10153650D01*
X9773604Y-10153650D02*
X9792652Y-10163174D01*
X9792652Y-10163174D02*
X9802176Y-10182222D01*
X9802176Y-10182222D02*
X9802176Y-10286984D01*
X9802176Y-10182222D02*
X9811700Y-10163174D01*
X9811700Y-10163174D02*
X9830747Y-10153650D01*
X9830747Y-10153650D02*
X9859319Y-10153650D01*
X9859319Y-10153650D02*
X9878366Y-10163174D01*
X9878366Y-10163174D02*
X9887890Y-10182222D01*
X9887890Y-10182222D02*
X9887890Y-10286984D01*
X10278366Y-10077460D02*
X10106938Y-10334603D01*
X10535509Y-10086984D02*
X10554557Y-10086984D01*
X10554557Y-10086984D02*
X10573604Y-10096508D01*
X10573604Y-10096508D02*
X10583128Y-10106031D01*
X10583128Y-10106031D02*
X10592652Y-10125079D01*
X10592652Y-10125079D02*
X10602176Y-10163174D01*
X10602176Y-10163174D02*
X10602176Y-10210793D01*
X10602176Y-10210793D02*
X10592652Y-10248889D01*
X10592652Y-10248889D02*
X10583128Y-10267936D01*
X10583128Y-10267936D02*
X10573604Y-10277460D01*
X10573604Y-10277460D02*
X10554557Y-10286984D01*
X10554557Y-10286984D02*
X10535509Y-10286984D01*
X10535509Y-10286984D02*
X10516462Y-10277460D01*
X10516462Y-10277460D02*
X10506938Y-10267936D01*
X10506938Y-10267936D02*
X10497414Y-10248889D01*
X10497414Y-10248889D02*
X10487890Y-10210793D01*
X10487890Y-10210793D02*
X10487890Y-10163174D01*
X10487890Y-10163174D02*
X10497414Y-10125079D01*
X10497414Y-10125079D02*
X10506938Y-10106031D01*
X10506938Y-10106031D02*
X10516462Y-10096508D01*
X10516462Y-10096508D02*
X10535509Y-10086984D01*
X10687890Y-10267936D02*
X10697414Y-10277460D01*
X10697414Y-10277460D02*
X10687890Y-10286984D01*
X10687890Y-10286984D02*
X10678366Y-10277460D01*
X10678366Y-10277460D02*
X10687890Y-10267936D01*
X10687890Y-10267936D02*
X10687890Y-10286984D01*
X10821223Y-10086984D02*
X10840271Y-10086984D01*
X10840271Y-10086984D02*
X10859319Y-10096508D01*
X10859319Y-10096508D02*
X10868843Y-10106031D01*
X10868843Y-10106031D02*
X10878366Y-10125079D01*
X10878366Y-10125079D02*
X10887890Y-10163174D01*
X10887890Y-10163174D02*
X10887890Y-10210793D01*
X10887890Y-10210793D02*
X10878366Y-10248889D01*
X10878366Y-10248889D02*
X10868843Y-10267936D01*
X10868843Y-10267936D02*
X10859319Y-10277460D01*
X10859319Y-10277460D02*
X10840271Y-10286984D01*
X10840271Y-10286984D02*
X10821223Y-10286984D01*
X10821223Y-10286984D02*
X10802176Y-10277460D01*
X10802176Y-10277460D02*
X10792652Y-10267936D01*
X10792652Y-10267936D02*
X10783128Y-10248889D01*
X10783128Y-10248889D02*
X10773604Y-10210793D01*
X10773604Y-10210793D02*
X10773604Y-10163174D01*
X10773604Y-10163174D02*
X10783128Y-10125079D01*
X10783128Y-10125079D02*
X10792652Y-10106031D01*
X10792652Y-10106031D02*
X10802176Y-10096508D01*
X10802176Y-10096508D02*
X10821223Y-10086984D01*
X10954557Y-10086984D02*
X11078366Y-10086984D01*
X11078366Y-10086984D02*
X11011700Y-10163174D01*
X11011700Y-10163174D02*
X11040271Y-10163174D01*
X11040271Y-10163174D02*
X11059319Y-10172698D01*
X11059319Y-10172698D02*
X11068843Y-10182222D01*
X11068843Y-10182222D02*
X11078366Y-10201270D01*
X11078366Y-10201270D02*
X11078366Y-10248889D01*
X11078366Y-10248889D02*
X11068843Y-10267936D01*
X11068843Y-10267936D02*
X11059319Y-10277460D01*
X11059319Y-10277460D02*
X11040271Y-10286984D01*
X11040271Y-10286984D02*
X10983128Y-10286984D01*
X10983128Y-10286984D02*
X10964081Y-10277460D01*
X10964081Y-10277460D02*
X10954557Y-10267936D01*
X11173604Y-10286984D02*
X11211700Y-10286984D01*
X11211700Y-10286984D02*
X11230747Y-10277460D01*
X11230747Y-10277460D02*
X11240271Y-10267936D01*
X11240271Y-10267936D02*
X11259319Y-10239365D01*
X11259319Y-10239365D02*
X11268842Y-10201270D01*
X11268842Y-10201270D02*
X11268842Y-10125079D01*
X11268842Y-10125079D02*
X11259319Y-10106031D01*
X11259319Y-10106031D02*
X11249795Y-10096508D01*
X11249795Y-10096508D02*
X11230747Y-10086984D01*
X11230747Y-10086984D02*
X11192652Y-10086984D01*
X11192652Y-10086984D02*
X11173604Y-10096508D01*
X11173604Y-10096508D02*
X11164081Y-10106031D01*
X11164081Y-10106031D02*
X11154557Y-10125079D01*
X11154557Y-10125079D02*
X11154557Y-10172698D01*
X11154557Y-10172698D02*
X11164081Y-10191746D01*
X11164081Y-10191746D02*
X11173604Y-10201270D01*
X11173604Y-10201270D02*
X11192652Y-10210793D01*
X11192652Y-10210793D02*
X11230747Y-10210793D01*
X11230747Y-10210793D02*
X11249795Y-10201270D01*
X11249795Y-10201270D02*
X11259319Y-10191746D01*
X11259319Y-10191746D02*
X11268842Y-10172698D01*
X11440271Y-10153650D02*
X11440271Y-10286984D01*
X11392652Y-10077460D02*
X11345033Y-10220317D01*
X11345033Y-10220317D02*
X11468842Y-10220317D01*
X11535509Y-10086984D02*
X11535509Y-10125079D01*
X11611700Y-10086984D02*
X11611700Y-10125079D01*
X11906938Y-10363174D02*
X11897414Y-10353650D01*
X11897414Y-10353650D02*
X11878366Y-10325079D01*
X11878366Y-10325079D02*
X11868843Y-10306031D01*
X11868843Y-10306031D02*
X11859319Y-10277460D01*
X11859319Y-10277460D02*
X11849795Y-10229841D01*
X11849795Y-10229841D02*
X11849795Y-10191746D01*
X11849795Y-10191746D02*
X11859319Y-10144127D01*
X11859319Y-10144127D02*
X11868843Y-10115555D01*
X11868843Y-10115555D02*
X11878366Y-10096508D01*
X11878366Y-10096508D02*
X11897414Y-10067936D01*
X11897414Y-10067936D02*
X11906938Y-10058412D01*
X11992652Y-10286984D02*
X12030747Y-10286984D01*
X12030747Y-10286984D02*
X12049795Y-10277460D01*
X12049795Y-10277460D02*
X12059319Y-10267936D01*
X12059319Y-10267936D02*
X12078366Y-10239365D01*
X12078366Y-10239365D02*
X12087890Y-10201270D01*
X12087890Y-10201270D02*
X12087890Y-10125079D01*
X12087890Y-10125079D02*
X12078366Y-10106031D01*
X12078366Y-10106031D02*
X12068843Y-10096508D01*
X12068843Y-10096508D02*
X12049795Y-10086984D01*
X12049795Y-10086984D02*
X12011700Y-10086984D01*
X12011700Y-10086984D02*
X11992652Y-10096508D01*
X11992652Y-10096508D02*
X11983128Y-10106031D01*
X11983128Y-10106031D02*
X11973604Y-10125079D01*
X11973604Y-10125079D02*
X11973604Y-10172698D01*
X11973604Y-10172698D02*
X11983128Y-10191746D01*
X11983128Y-10191746D02*
X11992652Y-10201270D01*
X11992652Y-10201270D02*
X12011700Y-10210793D01*
X12011700Y-10210793D02*
X12049795Y-10210793D01*
X12049795Y-10210793D02*
X12068843Y-10201270D01*
X12068843Y-10201270D02*
X12078366Y-10191746D01*
X12078366Y-10191746D02*
X12087890Y-10172698D01*
X12325985Y-10286984D02*
X12325985Y-10086984D01*
X12411700Y-10286984D02*
X12411700Y-10182222D01*
X12411700Y-10182222D02*
X12402176Y-10163174D01*
X12402176Y-10163174D02*
X12383128Y-10153650D01*
X12383128Y-10153650D02*
X12354557Y-10153650D01*
X12354557Y-10153650D02*
X12335509Y-10163174D01*
X12335509Y-10163174D02*
X12325985Y-10172698D01*
X12535509Y-10286984D02*
X12516462Y-10277460D01*
X12516462Y-10277460D02*
X12506938Y-10267936D01*
X12506938Y-10267936D02*
X12497414Y-10248889D01*
X12497414Y-10248889D02*
X12497414Y-10191746D01*
X12497414Y-10191746D02*
X12506938Y-10172698D01*
X12506938Y-10172698D02*
X12516462Y-10163174D01*
X12516462Y-10163174D02*
X12535509Y-10153650D01*
X12535509Y-10153650D02*
X12564081Y-10153650D01*
X12564081Y-10153650D02*
X12583128Y-10163174D01*
X12583128Y-10163174D02*
X12592652Y-10172698D01*
X12592652Y-10172698D02*
X12602176Y-10191746D01*
X12602176Y-10191746D02*
X12602176Y-10248889D01*
X12602176Y-10248889D02*
X12592652Y-10267936D01*
X12592652Y-10267936D02*
X12583128Y-10277460D01*
X12583128Y-10277460D02*
X12564081Y-10286984D01*
X12564081Y-10286984D02*
X12535509Y-10286984D01*
X12716462Y-10286984D02*
X12697414Y-10277460D01*
X12697414Y-10277460D02*
X12687890Y-10258412D01*
X12687890Y-10258412D02*
X12687890Y-10086984D01*
X12868843Y-10277460D02*
X12849795Y-10286984D01*
X12849795Y-10286984D02*
X12811700Y-10286984D01*
X12811700Y-10286984D02*
X12792652Y-10277460D01*
X12792652Y-10277460D02*
X12783128Y-10258412D01*
X12783128Y-10258412D02*
X12783128Y-10182222D01*
X12783128Y-10182222D02*
X12792652Y-10163174D01*
X12792652Y-10163174D02*
X12811700Y-10153650D01*
X12811700Y-10153650D02*
X12849795Y-10153650D01*
X12849795Y-10153650D02*
X12868843Y-10163174D01*
X12868843Y-10163174D02*
X12878366Y-10182222D01*
X12878366Y-10182222D02*
X12878366Y-10201270D01*
X12878366Y-10201270D02*
X12783128Y-10220317D01*
X12954557Y-10277460D02*
X12973605Y-10286984D01*
X12973605Y-10286984D02*
X13011700Y-10286984D01*
X13011700Y-10286984D02*
X13030747Y-10277460D01*
X13030747Y-10277460D02*
X13040271Y-10258412D01*
X13040271Y-10258412D02*
X13040271Y-10248889D01*
X13040271Y-10248889D02*
X13030747Y-10229841D01*
X13030747Y-10229841D02*
X13011700Y-10220317D01*
X13011700Y-10220317D02*
X12983128Y-10220317D01*
X12983128Y-10220317D02*
X12964081Y-10210793D01*
X12964081Y-10210793D02*
X12954557Y-10191746D01*
X12954557Y-10191746D02*
X12954557Y-10182222D01*
X12954557Y-10182222D02*
X12964081Y-10163174D01*
X12964081Y-10163174D02*
X12983128Y-10153650D01*
X12983128Y-10153650D02*
X13011700Y-10153650D01*
X13011700Y-10153650D02*
X13030747Y-10163174D01*
X13106938Y-10363174D02*
X13116462Y-10353650D01*
X13116462Y-10353650D02*
X13135509Y-10325079D01*
X13135509Y-10325079D02*
X13145033Y-10306031D01*
X13145033Y-10306031D02*
X13154557Y-10277460D01*
X13154557Y-10277460D02*
X13164081Y-10229841D01*
X13164081Y-10229841D02*
X13164081Y-10191746D01*
X13164081Y-10191746D02*
X13154557Y-10144127D01*
X13154557Y-10144127D02*
X13145033Y-10115555D01*
X13145033Y-10115555D02*
X13135509Y-10096508D01*
X13135509Y-10096508D02*
X13116462Y-10067936D01*
X13116462Y-10067936D02*
X13106938Y-10058412D01*
D13*
X8309908Y-10512534D02*
X8309908Y-10406467D01*
X8203841Y-10406467D01*
X8203841Y-10512534D01*
X8309908Y-10512534D01*
D11*
X8697414Y-10550984D02*
X8583128Y-10550984D01*
X8640271Y-10550984D02*
X8640271Y-10350984D01*
X8640271Y-10350984D02*
X8621223Y-10379555D01*
X8621223Y-10379555D02*
X8602176Y-10398603D01*
X8602176Y-10398603D02*
X8583128Y-10408127D01*
X8783128Y-10531936D02*
X8792652Y-10541460D01*
X8792652Y-10541460D02*
X8783128Y-10550984D01*
X8783128Y-10550984D02*
X8773604Y-10541460D01*
X8773604Y-10541460D02*
X8783128Y-10531936D01*
X8783128Y-10531936D02*
X8783128Y-10550984D01*
X8973604Y-10350984D02*
X8878366Y-10350984D01*
X8878366Y-10350984D02*
X8868842Y-10446222D01*
X8868842Y-10446222D02*
X8878366Y-10436698D01*
X8878366Y-10436698D02*
X8897414Y-10427174D01*
X8897414Y-10427174D02*
X8945033Y-10427174D01*
X8945033Y-10427174D02*
X8964080Y-10436698D01*
X8964080Y-10436698D02*
X8973604Y-10446222D01*
X8973604Y-10446222D02*
X8983128Y-10465270D01*
X8983128Y-10465270D02*
X8983128Y-10512889D01*
X8983128Y-10512889D02*
X8973604Y-10531936D01*
X8973604Y-10531936D02*
X8964080Y-10541460D01*
X8964080Y-10541460D02*
X8945033Y-10550984D01*
X8945033Y-10550984D02*
X8897414Y-10550984D01*
X8897414Y-10550984D02*
X8878366Y-10541460D01*
X8878366Y-10541460D02*
X8868842Y-10531936D01*
X9106938Y-10350984D02*
X9125985Y-10350984D01*
X9125985Y-10350984D02*
X9145033Y-10360508D01*
X9145033Y-10360508D02*
X9154557Y-10370031D01*
X9154557Y-10370031D02*
X9164080Y-10389079D01*
X9164080Y-10389079D02*
X9173604Y-10427174D01*
X9173604Y-10427174D02*
X9173604Y-10474793D01*
X9173604Y-10474793D02*
X9164080Y-10512889D01*
X9164080Y-10512889D02*
X9154557Y-10531936D01*
X9154557Y-10531936D02*
X9145033Y-10541460D01*
X9145033Y-10541460D02*
X9125985Y-10550984D01*
X9125985Y-10550984D02*
X9106938Y-10550984D01*
X9106938Y-10550984D02*
X9087890Y-10541460D01*
X9087890Y-10541460D02*
X9078366Y-10531936D01*
X9078366Y-10531936D02*
X9068842Y-10512889D01*
X9068842Y-10512889D02*
X9059319Y-10474793D01*
X9059319Y-10474793D02*
X9059319Y-10427174D01*
X9059319Y-10427174D02*
X9068842Y-10389079D01*
X9068842Y-10389079D02*
X9078366Y-10370031D01*
X9078366Y-10370031D02*
X9087890Y-10360508D01*
X9087890Y-10360508D02*
X9106938Y-10350984D01*
X9297414Y-10350984D02*
X9316461Y-10350984D01*
X9316461Y-10350984D02*
X9335509Y-10360508D01*
X9335509Y-10360508D02*
X9345033Y-10370031D01*
X9345033Y-10370031D02*
X9354557Y-10389079D01*
X9354557Y-10389079D02*
X9364080Y-10427174D01*
X9364080Y-10427174D02*
X9364080Y-10474793D01*
X9364080Y-10474793D02*
X9354557Y-10512889D01*
X9354557Y-10512889D02*
X9345033Y-10531936D01*
X9345033Y-10531936D02*
X9335509Y-10541460D01*
X9335509Y-10541460D02*
X9316461Y-10550984D01*
X9316461Y-10550984D02*
X9297414Y-10550984D01*
X9297414Y-10550984D02*
X9278366Y-10541460D01*
X9278366Y-10541460D02*
X9268842Y-10531936D01*
X9268842Y-10531936D02*
X9259319Y-10512889D01*
X9259319Y-10512889D02*
X9249795Y-10474793D01*
X9249795Y-10474793D02*
X9249795Y-10427174D01*
X9249795Y-10427174D02*
X9259319Y-10389079D01*
X9259319Y-10389079D02*
X9268842Y-10370031D01*
X9268842Y-10370031D02*
X9278366Y-10360508D01*
X9278366Y-10360508D02*
X9297414Y-10350984D01*
X9449795Y-10550984D02*
X9449795Y-10417650D01*
X9449795Y-10436698D02*
X9459319Y-10427174D01*
X9459319Y-10427174D02*
X9478366Y-10417650D01*
X9478366Y-10417650D02*
X9506938Y-10417650D01*
X9506938Y-10417650D02*
X9525985Y-10427174D01*
X9525985Y-10427174D02*
X9535509Y-10446222D01*
X9535509Y-10446222D02*
X9535509Y-10550984D01*
X9535509Y-10446222D02*
X9545033Y-10427174D01*
X9545033Y-10427174D02*
X9564080Y-10417650D01*
X9564080Y-10417650D02*
X9592652Y-10417650D01*
X9592652Y-10417650D02*
X9611700Y-10427174D01*
X9611700Y-10427174D02*
X9621223Y-10446222D01*
X9621223Y-10446222D02*
X9621223Y-10550984D01*
X9716461Y-10550984D02*
X9716461Y-10417650D01*
X9716461Y-10436698D02*
X9725985Y-10427174D01*
X9725985Y-10427174D02*
X9745033Y-10417650D01*
X9745033Y-10417650D02*
X9773604Y-10417650D01*
X9773604Y-10417650D02*
X9792652Y-10427174D01*
X9792652Y-10427174D02*
X9802176Y-10446222D01*
X9802176Y-10446222D02*
X9802176Y-10550984D01*
X9802176Y-10446222D02*
X9811700Y-10427174D01*
X9811700Y-10427174D02*
X9830747Y-10417650D01*
X9830747Y-10417650D02*
X9859319Y-10417650D01*
X9859319Y-10417650D02*
X9878366Y-10427174D01*
X9878366Y-10427174D02*
X9887890Y-10446222D01*
X9887890Y-10446222D02*
X9887890Y-10550984D01*
X10278366Y-10341460D02*
X10106938Y-10598603D01*
X10535509Y-10350984D02*
X10554557Y-10350984D01*
X10554557Y-10350984D02*
X10573604Y-10360508D01*
X10573604Y-10360508D02*
X10583128Y-10370031D01*
X10583128Y-10370031D02*
X10592652Y-10389079D01*
X10592652Y-10389079D02*
X10602176Y-10427174D01*
X10602176Y-10427174D02*
X10602176Y-10474793D01*
X10602176Y-10474793D02*
X10592652Y-10512889D01*
X10592652Y-10512889D02*
X10583128Y-10531936D01*
X10583128Y-10531936D02*
X10573604Y-10541460D01*
X10573604Y-10541460D02*
X10554557Y-10550984D01*
X10554557Y-10550984D02*
X10535509Y-10550984D01*
X10535509Y-10550984D02*
X10516462Y-10541460D01*
X10516462Y-10541460D02*
X10506938Y-10531936D01*
X10506938Y-10531936D02*
X10497414Y-10512889D01*
X10497414Y-10512889D02*
X10487890Y-10474793D01*
X10487890Y-10474793D02*
X10487890Y-10427174D01*
X10487890Y-10427174D02*
X10497414Y-10389079D01*
X10497414Y-10389079D02*
X10506938Y-10370031D01*
X10506938Y-10370031D02*
X10516462Y-10360508D01*
X10516462Y-10360508D02*
X10535509Y-10350984D01*
X10687890Y-10531936D02*
X10697414Y-10541460D01*
X10697414Y-10541460D02*
X10687890Y-10550984D01*
X10687890Y-10550984D02*
X10678366Y-10541460D01*
X10678366Y-10541460D02*
X10687890Y-10531936D01*
X10687890Y-10531936D02*
X10687890Y-10550984D01*
X10821223Y-10350984D02*
X10840271Y-10350984D01*
X10840271Y-10350984D02*
X10859319Y-10360508D01*
X10859319Y-10360508D02*
X10868843Y-10370031D01*
X10868843Y-10370031D02*
X10878366Y-10389079D01*
X10878366Y-10389079D02*
X10887890Y-10427174D01*
X10887890Y-10427174D02*
X10887890Y-10474793D01*
X10887890Y-10474793D02*
X10878366Y-10512889D01*
X10878366Y-10512889D02*
X10868843Y-10531936D01*
X10868843Y-10531936D02*
X10859319Y-10541460D01*
X10859319Y-10541460D02*
X10840271Y-10550984D01*
X10840271Y-10550984D02*
X10821223Y-10550984D01*
X10821223Y-10550984D02*
X10802176Y-10541460D01*
X10802176Y-10541460D02*
X10792652Y-10531936D01*
X10792652Y-10531936D02*
X10783128Y-10512889D01*
X10783128Y-10512889D02*
X10773604Y-10474793D01*
X10773604Y-10474793D02*
X10773604Y-10427174D01*
X10773604Y-10427174D02*
X10783128Y-10389079D01*
X10783128Y-10389079D02*
X10792652Y-10370031D01*
X10792652Y-10370031D02*
X10802176Y-10360508D01*
X10802176Y-10360508D02*
X10821223Y-10350984D01*
X11068843Y-10350984D02*
X10973604Y-10350984D01*
X10973604Y-10350984D02*
X10964081Y-10446222D01*
X10964081Y-10446222D02*
X10973604Y-10436698D01*
X10973604Y-10436698D02*
X10992652Y-10427174D01*
X10992652Y-10427174D02*
X11040271Y-10427174D01*
X11040271Y-10427174D02*
X11059319Y-10436698D01*
X11059319Y-10436698D02*
X11068843Y-10446222D01*
X11068843Y-10446222D02*
X11078366Y-10465270D01*
X11078366Y-10465270D02*
X11078366Y-10512889D01*
X11078366Y-10512889D02*
X11068843Y-10531936D01*
X11068843Y-10531936D02*
X11059319Y-10541460D01*
X11059319Y-10541460D02*
X11040271Y-10550984D01*
X11040271Y-10550984D02*
X10992652Y-10550984D01*
X10992652Y-10550984D02*
X10973604Y-10541460D01*
X10973604Y-10541460D02*
X10964081Y-10531936D01*
X11173604Y-10550984D02*
X11211700Y-10550984D01*
X11211700Y-10550984D02*
X11230747Y-10541460D01*
X11230747Y-10541460D02*
X11240271Y-10531936D01*
X11240271Y-10531936D02*
X11259319Y-10503365D01*
X11259319Y-10503365D02*
X11268842Y-10465270D01*
X11268842Y-10465270D02*
X11268842Y-10389079D01*
X11268842Y-10389079D02*
X11259319Y-10370031D01*
X11259319Y-10370031D02*
X11249795Y-10360508D01*
X11249795Y-10360508D02*
X11230747Y-10350984D01*
X11230747Y-10350984D02*
X11192652Y-10350984D01*
X11192652Y-10350984D02*
X11173604Y-10360508D01*
X11173604Y-10360508D02*
X11164081Y-10370031D01*
X11164081Y-10370031D02*
X11154557Y-10389079D01*
X11154557Y-10389079D02*
X11154557Y-10436698D01*
X11154557Y-10436698D02*
X11164081Y-10455746D01*
X11164081Y-10455746D02*
X11173604Y-10465270D01*
X11173604Y-10465270D02*
X11192652Y-10474793D01*
X11192652Y-10474793D02*
X11230747Y-10474793D01*
X11230747Y-10474793D02*
X11249795Y-10465270D01*
X11249795Y-10465270D02*
X11259319Y-10455746D01*
X11259319Y-10455746D02*
X11268842Y-10436698D01*
X11459319Y-10550984D02*
X11345033Y-10550984D01*
X11402176Y-10550984D02*
X11402176Y-10350984D01*
X11402176Y-10350984D02*
X11383128Y-10379555D01*
X11383128Y-10379555D02*
X11364081Y-10398603D01*
X11364081Y-10398603D02*
X11345033Y-10408127D01*
X11535509Y-10350984D02*
X11535509Y-10389079D01*
X11611700Y-10350984D02*
X11611700Y-10389079D01*
X11906938Y-10627174D02*
X11897414Y-10617650D01*
X11897414Y-10617650D02*
X11878366Y-10589079D01*
X11878366Y-10589079D02*
X11868843Y-10570031D01*
X11868843Y-10570031D02*
X11859319Y-10541460D01*
X11859319Y-10541460D02*
X11849795Y-10493841D01*
X11849795Y-10493841D02*
X11849795Y-10455746D01*
X11849795Y-10455746D02*
X11859319Y-10408127D01*
X11859319Y-10408127D02*
X11868843Y-10379555D01*
X11868843Y-10379555D02*
X11878366Y-10360508D01*
X11878366Y-10360508D02*
X11897414Y-10331936D01*
X11897414Y-10331936D02*
X11906938Y-10322412D01*
X12087890Y-10550984D02*
X11973604Y-10550984D01*
X12030747Y-10550984D02*
X12030747Y-10350984D01*
X12030747Y-10350984D02*
X12011700Y-10379555D01*
X12011700Y-10379555D02*
X11992652Y-10398603D01*
X11992652Y-10398603D02*
X11973604Y-10408127D01*
X12164081Y-10370031D02*
X12173604Y-10360508D01*
X12173604Y-10360508D02*
X12192652Y-10350984D01*
X12192652Y-10350984D02*
X12240271Y-10350984D01*
X12240271Y-10350984D02*
X12259319Y-10360508D01*
X12259319Y-10360508D02*
X12268843Y-10370031D01*
X12268843Y-10370031D02*
X12278366Y-10389079D01*
X12278366Y-10389079D02*
X12278366Y-10408127D01*
X12278366Y-10408127D02*
X12268843Y-10436698D01*
X12268843Y-10436698D02*
X12154557Y-10550984D01*
X12154557Y-10550984D02*
X12278366Y-10550984D01*
X12516462Y-10550984D02*
X12516462Y-10350984D01*
X12602176Y-10550984D02*
X12602176Y-10446222D01*
X12602176Y-10446222D02*
X12592652Y-10427174D01*
X12592652Y-10427174D02*
X12573605Y-10417650D01*
X12573605Y-10417650D02*
X12545033Y-10417650D01*
X12545033Y-10417650D02*
X12525985Y-10427174D01*
X12525985Y-10427174D02*
X12516462Y-10436698D01*
X12725985Y-10550984D02*
X12706938Y-10541460D01*
X12706938Y-10541460D02*
X12697414Y-10531936D01*
X12697414Y-10531936D02*
X12687890Y-10512889D01*
X12687890Y-10512889D02*
X12687890Y-10455746D01*
X12687890Y-10455746D02*
X12697414Y-10436698D01*
X12697414Y-10436698D02*
X12706938Y-10427174D01*
X12706938Y-10427174D02*
X12725985Y-10417650D01*
X12725985Y-10417650D02*
X12754557Y-10417650D01*
X12754557Y-10417650D02*
X12773605Y-10427174D01*
X12773605Y-10427174D02*
X12783128Y-10436698D01*
X12783128Y-10436698D02*
X12792652Y-10455746D01*
X12792652Y-10455746D02*
X12792652Y-10512889D01*
X12792652Y-10512889D02*
X12783128Y-10531936D01*
X12783128Y-10531936D02*
X12773605Y-10541460D01*
X12773605Y-10541460D02*
X12754557Y-10550984D01*
X12754557Y-10550984D02*
X12725985Y-10550984D01*
X12906938Y-10550984D02*
X12887890Y-10541460D01*
X12887890Y-10541460D02*
X12878366Y-10522412D01*
X12878366Y-10522412D02*
X12878366Y-10350984D01*
X13059319Y-10541460D02*
X13040271Y-10550984D01*
X13040271Y-10550984D02*
X13002176Y-10550984D01*
X13002176Y-10550984D02*
X12983128Y-10541460D01*
X12983128Y-10541460D02*
X12973605Y-10522412D01*
X12973605Y-10522412D02*
X12973605Y-10446222D01*
X12973605Y-10446222D02*
X12983128Y-10427174D01*
X12983128Y-10427174D02*
X13002176Y-10417650D01*
X13002176Y-10417650D02*
X13040271Y-10417650D01*
X13040271Y-10417650D02*
X13059319Y-10427174D01*
X13059319Y-10427174D02*
X13068843Y-10446222D01*
X13068843Y-10446222D02*
X13068843Y-10465270D01*
X13068843Y-10465270D02*
X12973605Y-10484317D01*
X13145033Y-10541460D02*
X13164081Y-10550984D01*
X13164081Y-10550984D02*
X13202176Y-10550984D01*
X13202176Y-10550984D02*
X13221224Y-10541460D01*
X13221224Y-10541460D02*
X13230747Y-10522412D01*
X13230747Y-10522412D02*
X13230747Y-10512889D01*
X13230747Y-10512889D02*
X13221224Y-10493841D01*
X13221224Y-10493841D02*
X13202176Y-10484317D01*
X13202176Y-10484317D02*
X13173605Y-10484317D01*
X13173605Y-10484317D02*
X13154557Y-10474793D01*
X13154557Y-10474793D02*
X13145033Y-10455746D01*
X13145033Y-10455746D02*
X13145033Y-10446222D01*
X13145033Y-10446222D02*
X13154557Y-10427174D01*
X13154557Y-10427174D02*
X13173605Y-10417650D01*
X13173605Y-10417650D02*
X13202176Y-10417650D01*
X13202176Y-10417650D02*
X13221224Y-10427174D01*
X13297414Y-10627174D02*
X13306938Y-10617650D01*
X13306938Y-10617650D02*
X13325986Y-10589079D01*
X13325986Y-10589079D02*
X13335509Y-10570031D01*
X13335509Y-10570031D02*
X13345033Y-10541460D01*
X13345033Y-10541460D02*
X13354557Y-10493841D01*
X13354557Y-10493841D02*
X13354557Y-10455746D01*
X13354557Y-10455746D02*
X13345033Y-10408127D01*
X13345033Y-10408127D02*
X13335509Y-10379555D01*
X13335509Y-10379555D02*
X13325986Y-10360508D01*
X13325986Y-10360508D02*
X13306938Y-10331936D01*
X13306938Y-10331936D02*
X13297414Y-10322412D01*
X8231875Y-10829500D02*
X8331875Y-10729500D01*
X8231875Y-10629500D01*
X8131875Y-10729500D01*
X8231875Y-10829500D01*
X8583128Y-10640031D02*
X8592652Y-10630508D01*
X8592652Y-10630508D02*
X8611699Y-10620984D01*
X8611699Y-10620984D02*
X8659319Y-10620984D01*
X8659319Y-10620984D02*
X8678366Y-10630508D01*
X8678366Y-10630508D02*
X8687890Y-10640031D01*
X8687890Y-10640031D02*
X8697414Y-10659079D01*
X8697414Y-10659079D02*
X8697414Y-10678127D01*
X8697414Y-10678127D02*
X8687890Y-10706698D01*
X8687890Y-10706698D02*
X8573604Y-10820984D01*
X8573604Y-10820984D02*
X8697414Y-10820984D01*
X8783128Y-10801936D02*
X8792652Y-10811460D01*
X8792652Y-10811460D02*
X8783128Y-10820984D01*
X8783128Y-10820984D02*
X8773604Y-10811460D01*
X8773604Y-10811460D02*
X8783128Y-10801936D01*
X8783128Y-10801936D02*
X8783128Y-10820984D01*
X8964080Y-10620984D02*
X8925985Y-10620984D01*
X8925985Y-10620984D02*
X8906938Y-10630508D01*
X8906938Y-10630508D02*
X8897414Y-10640031D01*
X8897414Y-10640031D02*
X8878366Y-10668603D01*
X8878366Y-10668603D02*
X8868842Y-10706698D01*
X8868842Y-10706698D02*
X8868842Y-10782889D01*
X8868842Y-10782889D02*
X8878366Y-10801936D01*
X8878366Y-10801936D02*
X8887890Y-10811460D01*
X8887890Y-10811460D02*
X8906938Y-10820984D01*
X8906938Y-10820984D02*
X8945033Y-10820984D01*
X8945033Y-10820984D02*
X8964080Y-10811460D01*
X8964080Y-10811460D02*
X8973604Y-10801936D01*
X8973604Y-10801936D02*
X8983128Y-10782889D01*
X8983128Y-10782889D02*
X8983128Y-10735270D01*
X8983128Y-10735270D02*
X8973604Y-10716222D01*
X8973604Y-10716222D02*
X8964080Y-10706698D01*
X8964080Y-10706698D02*
X8945033Y-10697174D01*
X8945033Y-10697174D02*
X8906938Y-10697174D01*
X8906938Y-10697174D02*
X8887890Y-10706698D01*
X8887890Y-10706698D02*
X8878366Y-10716222D01*
X8878366Y-10716222D02*
X8868842Y-10735270D01*
X9106938Y-10620984D02*
X9125985Y-10620984D01*
X9125985Y-10620984D02*
X9145033Y-10630508D01*
X9145033Y-10630508D02*
X9154557Y-10640031D01*
X9154557Y-10640031D02*
X9164080Y-10659079D01*
X9164080Y-10659079D02*
X9173604Y-10697174D01*
X9173604Y-10697174D02*
X9173604Y-10744793D01*
X9173604Y-10744793D02*
X9164080Y-10782889D01*
X9164080Y-10782889D02*
X9154557Y-10801936D01*
X9154557Y-10801936D02*
X9145033Y-10811460D01*
X9145033Y-10811460D02*
X9125985Y-10820984D01*
X9125985Y-10820984D02*
X9106938Y-10820984D01*
X9106938Y-10820984D02*
X9087890Y-10811460D01*
X9087890Y-10811460D02*
X9078366Y-10801936D01*
X9078366Y-10801936D02*
X9068842Y-10782889D01*
X9068842Y-10782889D02*
X9059319Y-10744793D01*
X9059319Y-10744793D02*
X9059319Y-10697174D01*
X9059319Y-10697174D02*
X9068842Y-10659079D01*
X9068842Y-10659079D02*
X9078366Y-10640031D01*
X9078366Y-10640031D02*
X9087890Y-10630508D01*
X9087890Y-10630508D02*
X9106938Y-10620984D01*
X9297414Y-10620984D02*
X9316461Y-10620984D01*
X9316461Y-10620984D02*
X9335509Y-10630508D01*
X9335509Y-10630508D02*
X9345033Y-10640031D01*
X9345033Y-10640031D02*
X9354557Y-10659079D01*
X9354557Y-10659079D02*
X9364080Y-10697174D01*
X9364080Y-10697174D02*
X9364080Y-10744793D01*
X9364080Y-10744793D02*
X9354557Y-10782889D01*
X9354557Y-10782889D02*
X9345033Y-10801936D01*
X9345033Y-10801936D02*
X9335509Y-10811460D01*
X9335509Y-10811460D02*
X9316461Y-10820984D01*
X9316461Y-10820984D02*
X9297414Y-10820984D01*
X9297414Y-10820984D02*
X9278366Y-10811460D01*
X9278366Y-10811460D02*
X9268842Y-10801936D01*
X9268842Y-10801936D02*
X9259319Y-10782889D01*
X9259319Y-10782889D02*
X9249795Y-10744793D01*
X9249795Y-10744793D02*
X9249795Y-10697174D01*
X9249795Y-10697174D02*
X9259319Y-10659079D01*
X9259319Y-10659079D02*
X9268842Y-10640031D01*
X9268842Y-10640031D02*
X9278366Y-10630508D01*
X9278366Y-10630508D02*
X9297414Y-10620984D01*
X9449795Y-10820984D02*
X9449795Y-10687650D01*
X9449795Y-10706698D02*
X9459319Y-10697174D01*
X9459319Y-10697174D02*
X9478366Y-10687650D01*
X9478366Y-10687650D02*
X9506938Y-10687650D01*
X9506938Y-10687650D02*
X9525985Y-10697174D01*
X9525985Y-10697174D02*
X9535509Y-10716222D01*
X9535509Y-10716222D02*
X9535509Y-10820984D01*
X9535509Y-10716222D02*
X9545033Y-10697174D01*
X9545033Y-10697174D02*
X9564080Y-10687650D01*
X9564080Y-10687650D02*
X9592652Y-10687650D01*
X9592652Y-10687650D02*
X9611700Y-10697174D01*
X9611700Y-10697174D02*
X9621223Y-10716222D01*
X9621223Y-10716222D02*
X9621223Y-10820984D01*
X9716461Y-10820984D02*
X9716461Y-10687650D01*
X9716461Y-10706698D02*
X9725985Y-10697174D01*
X9725985Y-10697174D02*
X9745033Y-10687650D01*
X9745033Y-10687650D02*
X9773604Y-10687650D01*
X9773604Y-10687650D02*
X9792652Y-10697174D01*
X9792652Y-10697174D02*
X9802176Y-10716222D01*
X9802176Y-10716222D02*
X9802176Y-10820984D01*
X9802176Y-10716222D02*
X9811700Y-10697174D01*
X9811700Y-10697174D02*
X9830747Y-10687650D01*
X9830747Y-10687650D02*
X9859319Y-10687650D01*
X9859319Y-10687650D02*
X9878366Y-10697174D01*
X9878366Y-10697174D02*
X9887890Y-10716222D01*
X9887890Y-10716222D02*
X9887890Y-10820984D01*
X10278366Y-10611460D02*
X10106938Y-10868603D01*
X10535509Y-10620984D02*
X10554557Y-10620984D01*
X10554557Y-10620984D02*
X10573604Y-10630508D01*
X10573604Y-10630508D02*
X10583128Y-10640031D01*
X10583128Y-10640031D02*
X10592652Y-10659079D01*
X10592652Y-10659079D02*
X10602176Y-10697174D01*
X10602176Y-10697174D02*
X10602176Y-10744793D01*
X10602176Y-10744793D02*
X10592652Y-10782889D01*
X10592652Y-10782889D02*
X10583128Y-10801936D01*
X10583128Y-10801936D02*
X10573604Y-10811460D01*
X10573604Y-10811460D02*
X10554557Y-10820984D01*
X10554557Y-10820984D02*
X10535509Y-10820984D01*
X10535509Y-10820984D02*
X10516462Y-10811460D01*
X10516462Y-10811460D02*
X10506938Y-10801936D01*
X10506938Y-10801936D02*
X10497414Y-10782889D01*
X10497414Y-10782889D02*
X10487890Y-10744793D01*
X10487890Y-10744793D02*
X10487890Y-10697174D01*
X10487890Y-10697174D02*
X10497414Y-10659079D01*
X10497414Y-10659079D02*
X10506938Y-10640031D01*
X10506938Y-10640031D02*
X10516462Y-10630508D01*
X10516462Y-10630508D02*
X10535509Y-10620984D01*
X10687890Y-10801936D02*
X10697414Y-10811460D01*
X10697414Y-10811460D02*
X10687890Y-10820984D01*
X10687890Y-10820984D02*
X10678366Y-10811460D01*
X10678366Y-10811460D02*
X10687890Y-10801936D01*
X10687890Y-10801936D02*
X10687890Y-10820984D01*
X10887890Y-10820984D02*
X10773604Y-10820984D01*
X10830747Y-10820984D02*
X10830747Y-10620984D01*
X10830747Y-10620984D02*
X10811700Y-10649555D01*
X10811700Y-10649555D02*
X10792652Y-10668603D01*
X10792652Y-10668603D02*
X10773604Y-10678127D01*
X11011700Y-10620984D02*
X11030747Y-10620984D01*
X11030747Y-10620984D02*
X11049795Y-10630508D01*
X11049795Y-10630508D02*
X11059319Y-10640031D01*
X11059319Y-10640031D02*
X11068843Y-10659079D01*
X11068843Y-10659079D02*
X11078366Y-10697174D01*
X11078366Y-10697174D02*
X11078366Y-10744793D01*
X11078366Y-10744793D02*
X11068843Y-10782889D01*
X11068843Y-10782889D02*
X11059319Y-10801936D01*
X11059319Y-10801936D02*
X11049795Y-10811460D01*
X11049795Y-10811460D02*
X11030747Y-10820984D01*
X11030747Y-10820984D02*
X11011700Y-10820984D01*
X11011700Y-10820984D02*
X10992652Y-10811460D01*
X10992652Y-10811460D02*
X10983128Y-10801936D01*
X10983128Y-10801936D02*
X10973604Y-10782889D01*
X10973604Y-10782889D02*
X10964081Y-10744793D01*
X10964081Y-10744793D02*
X10964081Y-10697174D01*
X10964081Y-10697174D02*
X10973604Y-10659079D01*
X10973604Y-10659079D02*
X10983128Y-10640031D01*
X10983128Y-10640031D02*
X10992652Y-10630508D01*
X10992652Y-10630508D02*
X11011700Y-10620984D01*
X11154557Y-10640031D02*
X11164081Y-10630508D01*
X11164081Y-10630508D02*
X11183128Y-10620984D01*
X11183128Y-10620984D02*
X11230747Y-10620984D01*
X11230747Y-10620984D02*
X11249795Y-10630508D01*
X11249795Y-10630508D02*
X11259319Y-10640031D01*
X11259319Y-10640031D02*
X11268842Y-10659079D01*
X11268842Y-10659079D02*
X11268842Y-10678127D01*
X11268842Y-10678127D02*
X11259319Y-10706698D01*
X11259319Y-10706698D02*
X11145033Y-10820984D01*
X11145033Y-10820984D02*
X11268842Y-10820984D01*
X11440271Y-10687650D02*
X11440271Y-10820984D01*
X11392652Y-10611460D02*
X11345033Y-10754317D01*
X11345033Y-10754317D02*
X11468842Y-10754317D01*
X11535509Y-10620984D02*
X11535509Y-10659079D01*
X11611700Y-10620984D02*
X11611700Y-10659079D01*
X11906938Y-10897174D02*
X11897414Y-10887650D01*
X11897414Y-10887650D02*
X11878366Y-10859079D01*
X11878366Y-10859079D02*
X11868843Y-10840031D01*
X11868843Y-10840031D02*
X11859319Y-10811460D01*
X11859319Y-10811460D02*
X11849795Y-10763841D01*
X11849795Y-10763841D02*
X11849795Y-10725746D01*
X11849795Y-10725746D02*
X11859319Y-10678127D01*
X11859319Y-10678127D02*
X11868843Y-10649555D01*
X11868843Y-10649555D02*
X11878366Y-10630508D01*
X11878366Y-10630508D02*
X11897414Y-10601936D01*
X11897414Y-10601936D02*
X11906938Y-10592412D01*
X11973604Y-10640031D02*
X11983128Y-10630508D01*
X11983128Y-10630508D02*
X12002176Y-10620984D01*
X12002176Y-10620984D02*
X12049795Y-10620984D01*
X12049795Y-10620984D02*
X12068843Y-10630508D01*
X12068843Y-10630508D02*
X12078366Y-10640031D01*
X12078366Y-10640031D02*
X12087890Y-10659079D01*
X12087890Y-10659079D02*
X12087890Y-10678127D01*
X12087890Y-10678127D02*
X12078366Y-10706698D01*
X12078366Y-10706698D02*
X11964081Y-10820984D01*
X11964081Y-10820984D02*
X12087890Y-10820984D01*
X12325985Y-10820984D02*
X12325985Y-10620984D01*
X12411700Y-10820984D02*
X12411700Y-10716222D01*
X12411700Y-10716222D02*
X12402176Y-10697174D01*
X12402176Y-10697174D02*
X12383128Y-10687650D01*
X12383128Y-10687650D02*
X12354557Y-10687650D01*
X12354557Y-10687650D02*
X12335509Y-10697174D01*
X12335509Y-10697174D02*
X12325985Y-10706698D01*
X12535509Y-10820984D02*
X12516462Y-10811460D01*
X12516462Y-10811460D02*
X12506938Y-10801936D01*
X12506938Y-10801936D02*
X12497414Y-10782889D01*
X12497414Y-10782889D02*
X12497414Y-10725746D01*
X12497414Y-10725746D02*
X12506938Y-10706698D01*
X12506938Y-10706698D02*
X12516462Y-10697174D01*
X12516462Y-10697174D02*
X12535509Y-10687650D01*
X12535509Y-10687650D02*
X12564081Y-10687650D01*
X12564081Y-10687650D02*
X12583128Y-10697174D01*
X12583128Y-10697174D02*
X12592652Y-10706698D01*
X12592652Y-10706698D02*
X12602176Y-10725746D01*
X12602176Y-10725746D02*
X12602176Y-10782889D01*
X12602176Y-10782889D02*
X12592652Y-10801936D01*
X12592652Y-10801936D02*
X12583128Y-10811460D01*
X12583128Y-10811460D02*
X12564081Y-10820984D01*
X12564081Y-10820984D02*
X12535509Y-10820984D01*
X12716462Y-10820984D02*
X12697414Y-10811460D01*
X12697414Y-10811460D02*
X12687890Y-10792412D01*
X12687890Y-10792412D02*
X12687890Y-10620984D01*
X12868843Y-10811460D02*
X12849795Y-10820984D01*
X12849795Y-10820984D02*
X12811700Y-10820984D01*
X12811700Y-10820984D02*
X12792652Y-10811460D01*
X12792652Y-10811460D02*
X12783128Y-10792412D01*
X12783128Y-10792412D02*
X12783128Y-10716222D01*
X12783128Y-10716222D02*
X12792652Y-10697174D01*
X12792652Y-10697174D02*
X12811700Y-10687650D01*
X12811700Y-10687650D02*
X12849795Y-10687650D01*
X12849795Y-10687650D02*
X12868843Y-10697174D01*
X12868843Y-10697174D02*
X12878366Y-10716222D01*
X12878366Y-10716222D02*
X12878366Y-10735270D01*
X12878366Y-10735270D02*
X12783128Y-10754317D01*
X12954557Y-10811460D02*
X12973605Y-10820984D01*
X12973605Y-10820984D02*
X13011700Y-10820984D01*
X13011700Y-10820984D02*
X13030747Y-10811460D01*
X13030747Y-10811460D02*
X13040271Y-10792412D01*
X13040271Y-10792412D02*
X13040271Y-10782889D01*
X13040271Y-10782889D02*
X13030747Y-10763841D01*
X13030747Y-10763841D02*
X13011700Y-10754317D01*
X13011700Y-10754317D02*
X12983128Y-10754317D01*
X12983128Y-10754317D02*
X12964081Y-10744793D01*
X12964081Y-10744793D02*
X12954557Y-10725746D01*
X12954557Y-10725746D02*
X12954557Y-10716222D01*
X12954557Y-10716222D02*
X12964081Y-10697174D01*
X12964081Y-10697174D02*
X12983128Y-10687650D01*
X12983128Y-10687650D02*
X13011700Y-10687650D01*
X13011700Y-10687650D02*
X13030747Y-10697174D01*
X13106938Y-10897174D02*
X13116462Y-10887650D01*
X13116462Y-10887650D02*
X13135509Y-10859079D01*
X13135509Y-10859079D02*
X13145033Y-10840031D01*
X13145033Y-10840031D02*
X13154557Y-10811460D01*
X13154557Y-10811460D02*
X13164081Y-10763841D01*
X13164081Y-10763841D02*
X13164081Y-10725746D01*
X13164081Y-10725746D02*
X13154557Y-10678127D01*
X13154557Y-10678127D02*
X13145033Y-10649555D01*
X13145033Y-10649555D02*
X13135509Y-10630508D01*
X13135509Y-10630508D02*
X13116462Y-10601936D01*
X13116462Y-10601936D02*
X13106938Y-10592412D01*
M02*
