%TF.GenerationSoftware,KiCad,Pcbnew,9.0.7*%
%TF.CreationDate,2026-01-28T20:07:14-06:00*%
%TF.ProjectId,MicroPad actual,4d696372-6f50-4616-9420-61637475616c,rev?*%
%TF.SameCoordinates,Original*%
%TF.FileFunction,Legend,Top*%
%TF.FilePolarity,Positive*%
%FSLAX46Y46*%
G04 Gerber Fmt 4.6, Leading zero omitted, Abs format (unit mm)*
G04 Created by KiCad (PCBNEW 9.0.7) date 2026-01-28 20:07:14*
%MOMM*%
%LPD*%
G01*
G04 APERTURE LIST*
%ADD10C,0.300000*%
%ADD11C,0.150000*%
%ADD12C,0.101600*%
%ADD13C,0.120000*%
%ADD14C,0.127000*%
%ADD15C,0.100000*%
%ADD16C,0.504000*%
G04 APERTURE END LIST*
D10*
X117235760Y-35519578D02*
X117235760Y-34019578D01*
X117235760Y-34019578D02*
X117735760Y-35091007D01*
X117735760Y-35091007D02*
X118235760Y-34019578D01*
X118235760Y-34019578D02*
X118235760Y-35519578D01*
X119592904Y-35519578D02*
X119592904Y-34733864D01*
X119592904Y-34733864D02*
X119521475Y-34591007D01*
X119521475Y-34591007D02*
X119378618Y-34519578D01*
X119378618Y-34519578D02*
X119092904Y-34519578D01*
X119092904Y-34519578D02*
X118950046Y-34591007D01*
X119592904Y-35448150D02*
X119450046Y-35519578D01*
X119450046Y-35519578D02*
X119092904Y-35519578D01*
X119092904Y-35519578D02*
X118950046Y-35448150D01*
X118950046Y-35448150D02*
X118878618Y-35305292D01*
X118878618Y-35305292D02*
X118878618Y-35162435D01*
X118878618Y-35162435D02*
X118950046Y-35019578D01*
X118950046Y-35019578D02*
X119092904Y-34948150D01*
X119092904Y-34948150D02*
X119450046Y-34948150D01*
X119450046Y-34948150D02*
X119592904Y-34876721D01*
X120307189Y-34519578D02*
X120307189Y-35519578D01*
X120307189Y-34662435D02*
X120378618Y-34591007D01*
X120378618Y-34591007D02*
X120521475Y-34519578D01*
X120521475Y-34519578D02*
X120735761Y-34519578D01*
X120735761Y-34519578D02*
X120878618Y-34591007D01*
X120878618Y-34591007D02*
X120950047Y-34733864D01*
X120950047Y-34733864D02*
X120950047Y-35519578D01*
X121664332Y-34519578D02*
X121664332Y-35519578D01*
X121664332Y-34662435D02*
X121735761Y-34591007D01*
X121735761Y-34591007D02*
X121878618Y-34519578D01*
X121878618Y-34519578D02*
X122092904Y-34519578D01*
X122092904Y-34519578D02*
X122235761Y-34591007D01*
X122235761Y-34591007D02*
X122307190Y-34733864D01*
X122307190Y-34733864D02*
X122307190Y-35519578D01*
X122878618Y-34519578D02*
X123235761Y-35519578D01*
X123592904Y-34519578D02*
X123235761Y-35519578D01*
X123235761Y-35519578D02*
X123092904Y-35876721D01*
X123092904Y-35876721D02*
X123021475Y-35948150D01*
X123021475Y-35948150D02*
X122878618Y-36019578D01*
X124092904Y-35448150D02*
X124235761Y-35519578D01*
X124235761Y-35519578D02*
X124521475Y-35519578D01*
X124521475Y-35519578D02*
X124664332Y-35448150D01*
X124664332Y-35448150D02*
X124735761Y-35305292D01*
X124735761Y-35305292D02*
X124735761Y-35233864D01*
X124735761Y-35233864D02*
X124664332Y-35091007D01*
X124664332Y-35091007D02*
X124521475Y-35019578D01*
X124521475Y-35019578D02*
X124307190Y-35019578D01*
X124307190Y-35019578D02*
X124164332Y-34948150D01*
X124164332Y-34948150D02*
X124092904Y-34805292D01*
X124092904Y-34805292D02*
X124092904Y-34733864D01*
X124092904Y-34733864D02*
X124164332Y-34591007D01*
X124164332Y-34591007D02*
X124307190Y-34519578D01*
X124307190Y-34519578D02*
X124521475Y-34519578D01*
X124521475Y-34519578D02*
X124664332Y-34591007D01*
X126521475Y-35519578D02*
X126521475Y-34019578D01*
X126521475Y-34019578D02*
X127021475Y-35091007D01*
X127021475Y-35091007D02*
X127521475Y-34019578D01*
X127521475Y-34019578D02*
X127521475Y-35519578D01*
X128878619Y-35519578D02*
X128878619Y-34733864D01*
X128878619Y-34733864D02*
X128807190Y-34591007D01*
X128807190Y-34591007D02*
X128664333Y-34519578D01*
X128664333Y-34519578D02*
X128378619Y-34519578D01*
X128378619Y-34519578D02*
X128235761Y-34591007D01*
X128878619Y-35448150D02*
X128735761Y-35519578D01*
X128735761Y-35519578D02*
X128378619Y-35519578D01*
X128378619Y-35519578D02*
X128235761Y-35448150D01*
X128235761Y-35448150D02*
X128164333Y-35305292D01*
X128164333Y-35305292D02*
X128164333Y-35162435D01*
X128164333Y-35162435D02*
X128235761Y-35019578D01*
X128235761Y-35019578D02*
X128378619Y-34948150D01*
X128378619Y-34948150D02*
X128735761Y-34948150D01*
X128735761Y-34948150D02*
X128878619Y-34876721D01*
X130235762Y-35448150D02*
X130092904Y-35519578D01*
X130092904Y-35519578D02*
X129807190Y-35519578D01*
X129807190Y-35519578D02*
X129664333Y-35448150D01*
X129664333Y-35448150D02*
X129592904Y-35376721D01*
X129592904Y-35376721D02*
X129521476Y-35233864D01*
X129521476Y-35233864D02*
X129521476Y-34805292D01*
X129521476Y-34805292D02*
X129592904Y-34662435D01*
X129592904Y-34662435D02*
X129664333Y-34591007D01*
X129664333Y-34591007D02*
X129807190Y-34519578D01*
X129807190Y-34519578D02*
X130092904Y-34519578D01*
X130092904Y-34519578D02*
X130235762Y-34591007D01*
X130878618Y-35519578D02*
X130878618Y-34519578D01*
X130878618Y-34805292D02*
X130950047Y-34662435D01*
X130950047Y-34662435D02*
X131021476Y-34591007D01*
X131021476Y-34591007D02*
X131164333Y-34519578D01*
X131164333Y-34519578D02*
X131307190Y-34519578D01*
X132021475Y-35519578D02*
X131878618Y-35448150D01*
X131878618Y-35448150D02*
X131807189Y-35376721D01*
X131807189Y-35376721D02*
X131735761Y-35233864D01*
X131735761Y-35233864D02*
X131735761Y-34805292D01*
X131735761Y-34805292D02*
X131807189Y-34662435D01*
X131807189Y-34662435D02*
X131878618Y-34591007D01*
X131878618Y-34591007D02*
X132021475Y-34519578D01*
X132021475Y-34519578D02*
X132235761Y-34519578D01*
X132235761Y-34519578D02*
X132378618Y-34591007D01*
X132378618Y-34591007D02*
X132450047Y-34662435D01*
X132450047Y-34662435D02*
X132521475Y-34805292D01*
X132521475Y-34805292D02*
X132521475Y-35233864D01*
X132521475Y-35233864D02*
X132450047Y-35376721D01*
X132450047Y-35376721D02*
X132378618Y-35448150D01*
X132378618Y-35448150D02*
X132235761Y-35519578D01*
X132235761Y-35519578D02*
X132021475Y-35519578D01*
X133164332Y-34519578D02*
X133164332Y-36019578D01*
X133164332Y-34591007D02*
X133307190Y-34519578D01*
X133307190Y-34519578D02*
X133592904Y-34519578D01*
X133592904Y-34519578D02*
X133735761Y-34591007D01*
X133735761Y-34591007D02*
X133807190Y-34662435D01*
X133807190Y-34662435D02*
X133878618Y-34805292D01*
X133878618Y-34805292D02*
X133878618Y-35233864D01*
X133878618Y-35233864D02*
X133807190Y-35376721D01*
X133807190Y-35376721D02*
X133735761Y-35448150D01*
X133735761Y-35448150D02*
X133592904Y-35519578D01*
X133592904Y-35519578D02*
X133307190Y-35519578D01*
X133307190Y-35519578D02*
X133164332Y-35448150D01*
X135164333Y-35519578D02*
X135164333Y-34733864D01*
X135164333Y-34733864D02*
X135092904Y-34591007D01*
X135092904Y-34591007D02*
X134950047Y-34519578D01*
X134950047Y-34519578D02*
X134664333Y-34519578D01*
X134664333Y-34519578D02*
X134521475Y-34591007D01*
X135164333Y-35448150D02*
X135021475Y-35519578D01*
X135021475Y-35519578D02*
X134664333Y-35519578D01*
X134664333Y-35519578D02*
X134521475Y-35448150D01*
X134521475Y-35448150D02*
X134450047Y-35305292D01*
X134450047Y-35305292D02*
X134450047Y-35162435D01*
X134450047Y-35162435D02*
X134521475Y-35019578D01*
X134521475Y-35019578D02*
X134664333Y-34948150D01*
X134664333Y-34948150D02*
X135021475Y-34948150D01*
X135021475Y-34948150D02*
X135164333Y-34876721D01*
X136521476Y-35519578D02*
X136521476Y-34019578D01*
X136521476Y-35448150D02*
X136378618Y-35519578D01*
X136378618Y-35519578D02*
X136092904Y-35519578D01*
X136092904Y-35519578D02*
X135950047Y-35448150D01*
X135950047Y-35448150D02*
X135878618Y-35376721D01*
X135878618Y-35376721D02*
X135807190Y-35233864D01*
X135807190Y-35233864D02*
X135807190Y-34805292D01*
X135807190Y-34805292D02*
X135878618Y-34662435D01*
X135878618Y-34662435D02*
X135950047Y-34591007D01*
X135950047Y-34591007D02*
X136092904Y-34519578D01*
X136092904Y-34519578D02*
X136378618Y-34519578D01*
X136378618Y-34519578D02*
X136521476Y-34591007D01*
D11*
X161259819Y-49378458D02*
X162259819Y-48711792D01*
X161259819Y-48711792D02*
X162259819Y-49378458D01*
X162259819Y-48330839D02*
X161259819Y-48330839D01*
X161974104Y-47902268D02*
X161974104Y-47426078D01*
X162259819Y-47997506D02*
X161259819Y-47664173D01*
X161259819Y-47664173D02*
X162259819Y-47330840D01*
X161259819Y-46807030D02*
X161259819Y-46616554D01*
X161259819Y-46616554D02*
X161307438Y-46521316D01*
X161307438Y-46521316D02*
X161402676Y-46426078D01*
X161402676Y-46426078D02*
X161593152Y-46378459D01*
X161593152Y-46378459D02*
X161926485Y-46378459D01*
X161926485Y-46378459D02*
X162116961Y-46426078D01*
X162116961Y-46426078D02*
X162212200Y-46521316D01*
X162212200Y-46521316D02*
X162259819Y-46616554D01*
X162259819Y-46616554D02*
X162259819Y-46807030D01*
X162259819Y-46807030D02*
X162212200Y-46902268D01*
X162212200Y-46902268D02*
X162116961Y-46997506D01*
X162116961Y-46997506D02*
X161926485Y-47045125D01*
X161926485Y-47045125D02*
X161593152Y-47045125D01*
X161593152Y-47045125D02*
X161402676Y-46997506D01*
X161402676Y-46997506D02*
X161307438Y-46902268D01*
X161307438Y-46902268D02*
X161259819Y-46807030D01*
X162259819Y-45187982D02*
X161259819Y-45187982D01*
X161736009Y-45187982D02*
X161736009Y-44616554D01*
X162259819Y-44616554D02*
X161259819Y-44616554D01*
X161736009Y-44140363D02*
X161736009Y-43807030D01*
X162259819Y-43664173D02*
X162259819Y-44140363D01*
X162259819Y-44140363D02*
X161259819Y-44140363D01*
X161259819Y-44140363D02*
X161259819Y-43664173D01*
X162259819Y-42664173D02*
X161783628Y-42997506D01*
X162259819Y-43235601D02*
X161259819Y-43235601D01*
X161259819Y-43235601D02*
X161259819Y-42854649D01*
X161259819Y-42854649D02*
X161307438Y-42759411D01*
X161307438Y-42759411D02*
X161355057Y-42711792D01*
X161355057Y-42711792D02*
X161450295Y-42664173D01*
X161450295Y-42664173D02*
X161593152Y-42664173D01*
X161593152Y-42664173D02*
X161688390Y-42711792D01*
X161688390Y-42711792D02*
X161736009Y-42759411D01*
X161736009Y-42759411D02*
X161783628Y-42854649D01*
X161783628Y-42854649D02*
X161783628Y-43235601D01*
X161736009Y-42235601D02*
X161736009Y-41902268D01*
X162259819Y-41759411D02*
X162259819Y-42235601D01*
X162259819Y-42235601D02*
X161259819Y-42235601D01*
X161259819Y-42235601D02*
X161259819Y-41759411D01*
X87861905Y-66754819D02*
X87861905Y-65754819D01*
X87861905Y-65754819D02*
X88100000Y-65754819D01*
X88100000Y-65754819D02*
X88242857Y-65802438D01*
X88242857Y-65802438D02*
X88338095Y-65897676D01*
X88338095Y-65897676D02*
X88385714Y-65992914D01*
X88385714Y-65992914D02*
X88433333Y-66183390D01*
X88433333Y-66183390D02*
X88433333Y-66326247D01*
X88433333Y-66326247D02*
X88385714Y-66516723D01*
X88385714Y-66516723D02*
X88338095Y-66611961D01*
X88338095Y-66611961D02*
X88242857Y-66707200D01*
X88242857Y-66707200D02*
X88100000Y-66754819D01*
X88100000Y-66754819D02*
X87861905Y-66754819D01*
X88814286Y-65850057D02*
X88861905Y-65802438D01*
X88861905Y-65802438D02*
X88957143Y-65754819D01*
X88957143Y-65754819D02*
X89195238Y-65754819D01*
X89195238Y-65754819D02*
X89290476Y-65802438D01*
X89290476Y-65802438D02*
X89338095Y-65850057D01*
X89338095Y-65850057D02*
X89385714Y-65945295D01*
X89385714Y-65945295D02*
X89385714Y-66040533D01*
X89385714Y-66040533D02*
X89338095Y-66183390D01*
X89338095Y-66183390D02*
X88766667Y-66754819D01*
X88766667Y-66754819D02*
X89385714Y-66754819D01*
X85628571Y-68537295D02*
X85171428Y-68537295D01*
X85400000Y-68537295D02*
X85400000Y-67737295D01*
X85400000Y-67737295D02*
X85323809Y-67851580D01*
X85323809Y-67851580D02*
X85247619Y-67927771D01*
X85247619Y-67927771D02*
X85171428Y-67965866D01*
X158261905Y-66879819D02*
X158261905Y-65879819D01*
X158261905Y-65879819D02*
X158500000Y-65879819D01*
X158500000Y-65879819D02*
X158642857Y-65927438D01*
X158642857Y-65927438D02*
X158738095Y-66022676D01*
X158738095Y-66022676D02*
X158785714Y-66117914D01*
X158785714Y-66117914D02*
X158833333Y-66308390D01*
X158833333Y-66308390D02*
X158833333Y-66451247D01*
X158833333Y-66451247D02*
X158785714Y-66641723D01*
X158785714Y-66641723D02*
X158738095Y-66736961D01*
X158738095Y-66736961D02*
X158642857Y-66832200D01*
X158642857Y-66832200D02*
X158500000Y-66879819D01*
X158500000Y-66879819D02*
X158261905Y-66879819D01*
X159785714Y-66879819D02*
X159214286Y-66879819D01*
X159500000Y-66879819D02*
X159500000Y-65879819D01*
X159500000Y-65879819D02*
X159404762Y-66022676D01*
X159404762Y-66022676D02*
X159309524Y-66117914D01*
X159309524Y-66117914D02*
X159214286Y-66165533D01*
X156028571Y-68662295D02*
X155571428Y-68662295D01*
X155800000Y-68662295D02*
X155800000Y-67862295D01*
X155800000Y-67862295D02*
X155723809Y-67976580D01*
X155723809Y-67976580D02*
X155647619Y-68052771D01*
X155647619Y-68052771D02*
X155571428Y-68090866D01*
X87191667Y-33569700D02*
X87334524Y-33617319D01*
X87334524Y-33617319D02*
X87572619Y-33617319D01*
X87572619Y-33617319D02*
X87667857Y-33569700D01*
X87667857Y-33569700D02*
X87715476Y-33522080D01*
X87715476Y-33522080D02*
X87763095Y-33426842D01*
X87763095Y-33426842D02*
X87763095Y-33331604D01*
X87763095Y-33331604D02*
X87715476Y-33236366D01*
X87715476Y-33236366D02*
X87667857Y-33188747D01*
X87667857Y-33188747D02*
X87572619Y-33141128D01*
X87572619Y-33141128D02*
X87382143Y-33093509D01*
X87382143Y-33093509D02*
X87286905Y-33045890D01*
X87286905Y-33045890D02*
X87239286Y-32998271D01*
X87239286Y-32998271D02*
X87191667Y-32903033D01*
X87191667Y-32903033D02*
X87191667Y-32807795D01*
X87191667Y-32807795D02*
X87239286Y-32712557D01*
X87239286Y-32712557D02*
X87286905Y-32664938D01*
X87286905Y-32664938D02*
X87382143Y-32617319D01*
X87382143Y-32617319D02*
X87620238Y-32617319D01*
X87620238Y-32617319D02*
X87763095Y-32664938D01*
X88096429Y-32617319D02*
X88334524Y-33617319D01*
X88334524Y-33617319D02*
X88525000Y-32903033D01*
X88525000Y-32903033D02*
X88715476Y-33617319D01*
X88715476Y-33617319D02*
X88953572Y-32617319D01*
X89239286Y-32617319D02*
X89905952Y-32617319D01*
X89905952Y-32617319D02*
X89477381Y-33617319D01*
X141541667Y-71114450D02*
X141684524Y-71162069D01*
X141684524Y-71162069D02*
X141922619Y-71162069D01*
X141922619Y-71162069D02*
X142017857Y-71114450D01*
X142017857Y-71114450D02*
X142065476Y-71066830D01*
X142065476Y-71066830D02*
X142113095Y-70971592D01*
X142113095Y-70971592D02*
X142113095Y-70876354D01*
X142113095Y-70876354D02*
X142065476Y-70781116D01*
X142065476Y-70781116D02*
X142017857Y-70733497D01*
X142017857Y-70733497D02*
X141922619Y-70685878D01*
X141922619Y-70685878D02*
X141732143Y-70638259D01*
X141732143Y-70638259D02*
X141636905Y-70590640D01*
X141636905Y-70590640D02*
X141589286Y-70543021D01*
X141589286Y-70543021D02*
X141541667Y-70447783D01*
X141541667Y-70447783D02*
X141541667Y-70352545D01*
X141541667Y-70352545D02*
X141589286Y-70257307D01*
X141589286Y-70257307D02*
X141636905Y-70209688D01*
X141636905Y-70209688D02*
X141732143Y-70162069D01*
X141732143Y-70162069D02*
X141970238Y-70162069D01*
X141970238Y-70162069D02*
X142113095Y-70209688D01*
X142446429Y-70162069D02*
X142684524Y-71162069D01*
X142684524Y-71162069D02*
X142875000Y-70447783D01*
X142875000Y-70447783D02*
X143065476Y-71162069D01*
X143065476Y-71162069D02*
X143303572Y-70162069D01*
X143589286Y-70162069D02*
X144208333Y-70162069D01*
X144208333Y-70162069D02*
X143875000Y-70543021D01*
X143875000Y-70543021D02*
X144017857Y-70543021D01*
X144017857Y-70543021D02*
X144113095Y-70590640D01*
X144113095Y-70590640D02*
X144160714Y-70638259D01*
X144160714Y-70638259D02*
X144208333Y-70733497D01*
X144208333Y-70733497D02*
X144208333Y-70971592D01*
X144208333Y-70971592D02*
X144160714Y-71066830D01*
X144160714Y-71066830D02*
X144113095Y-71114450D01*
X144113095Y-71114450D02*
X144017857Y-71162069D01*
X144017857Y-71162069D02*
X143732143Y-71162069D01*
X143732143Y-71162069D02*
X143636905Y-71114450D01*
X143636905Y-71114450D02*
X143589286Y-71066830D01*
X141541667Y-52064450D02*
X141684524Y-52112069D01*
X141684524Y-52112069D02*
X141922619Y-52112069D01*
X141922619Y-52112069D02*
X142017857Y-52064450D01*
X142017857Y-52064450D02*
X142065476Y-52016830D01*
X142065476Y-52016830D02*
X142113095Y-51921592D01*
X142113095Y-51921592D02*
X142113095Y-51826354D01*
X142113095Y-51826354D02*
X142065476Y-51731116D01*
X142065476Y-51731116D02*
X142017857Y-51683497D01*
X142017857Y-51683497D02*
X141922619Y-51635878D01*
X141922619Y-51635878D02*
X141732143Y-51588259D01*
X141732143Y-51588259D02*
X141636905Y-51540640D01*
X141636905Y-51540640D02*
X141589286Y-51493021D01*
X141589286Y-51493021D02*
X141541667Y-51397783D01*
X141541667Y-51397783D02*
X141541667Y-51302545D01*
X141541667Y-51302545D02*
X141589286Y-51207307D01*
X141589286Y-51207307D02*
X141636905Y-51159688D01*
X141636905Y-51159688D02*
X141732143Y-51112069D01*
X141732143Y-51112069D02*
X141970238Y-51112069D01*
X141970238Y-51112069D02*
X142113095Y-51159688D01*
X142446429Y-51112069D02*
X142684524Y-52112069D01*
X142684524Y-52112069D02*
X142875000Y-51397783D01*
X142875000Y-51397783D02*
X143065476Y-52112069D01*
X143065476Y-52112069D02*
X143303572Y-51112069D01*
X144113095Y-51112069D02*
X143922619Y-51112069D01*
X143922619Y-51112069D02*
X143827381Y-51159688D01*
X143827381Y-51159688D02*
X143779762Y-51207307D01*
X143779762Y-51207307D02*
X143684524Y-51350164D01*
X143684524Y-51350164D02*
X143636905Y-51540640D01*
X143636905Y-51540640D02*
X143636905Y-51921592D01*
X143636905Y-51921592D02*
X143684524Y-52016830D01*
X143684524Y-52016830D02*
X143732143Y-52064450D01*
X143732143Y-52064450D02*
X143827381Y-52112069D01*
X143827381Y-52112069D02*
X144017857Y-52112069D01*
X144017857Y-52112069D02*
X144113095Y-52064450D01*
X144113095Y-52064450D02*
X144160714Y-52016830D01*
X144160714Y-52016830D02*
X144208333Y-51921592D01*
X144208333Y-51921592D02*
X144208333Y-51683497D01*
X144208333Y-51683497D02*
X144160714Y-51588259D01*
X144160714Y-51588259D02*
X144113095Y-51540640D01*
X144113095Y-51540640D02*
X144017857Y-51493021D01*
X144017857Y-51493021D02*
X143827381Y-51493021D01*
X143827381Y-51493021D02*
X143732143Y-51540640D01*
X143732143Y-51540640D02*
X143684524Y-51588259D01*
X143684524Y-51588259D02*
X143636905Y-51683497D01*
X103441667Y-71114450D02*
X103584524Y-71162069D01*
X103584524Y-71162069D02*
X103822619Y-71162069D01*
X103822619Y-71162069D02*
X103917857Y-71114450D01*
X103917857Y-71114450D02*
X103965476Y-71066830D01*
X103965476Y-71066830D02*
X104013095Y-70971592D01*
X104013095Y-70971592D02*
X104013095Y-70876354D01*
X104013095Y-70876354D02*
X103965476Y-70781116D01*
X103965476Y-70781116D02*
X103917857Y-70733497D01*
X103917857Y-70733497D02*
X103822619Y-70685878D01*
X103822619Y-70685878D02*
X103632143Y-70638259D01*
X103632143Y-70638259D02*
X103536905Y-70590640D01*
X103536905Y-70590640D02*
X103489286Y-70543021D01*
X103489286Y-70543021D02*
X103441667Y-70447783D01*
X103441667Y-70447783D02*
X103441667Y-70352545D01*
X103441667Y-70352545D02*
X103489286Y-70257307D01*
X103489286Y-70257307D02*
X103536905Y-70209688D01*
X103536905Y-70209688D02*
X103632143Y-70162069D01*
X103632143Y-70162069D02*
X103870238Y-70162069D01*
X103870238Y-70162069D02*
X104013095Y-70209688D01*
X104346429Y-70162069D02*
X104584524Y-71162069D01*
X104584524Y-71162069D02*
X104775000Y-70447783D01*
X104775000Y-70447783D02*
X104965476Y-71162069D01*
X104965476Y-71162069D02*
X105203572Y-70162069D01*
X106108333Y-71162069D02*
X105536905Y-71162069D01*
X105822619Y-71162069D02*
X105822619Y-70162069D01*
X105822619Y-70162069D02*
X105727381Y-70304926D01*
X105727381Y-70304926D02*
X105632143Y-70400164D01*
X105632143Y-70400164D02*
X105536905Y-70447783D01*
X122491667Y-52064450D02*
X122634524Y-52112069D01*
X122634524Y-52112069D02*
X122872619Y-52112069D01*
X122872619Y-52112069D02*
X122967857Y-52064450D01*
X122967857Y-52064450D02*
X123015476Y-52016830D01*
X123015476Y-52016830D02*
X123063095Y-51921592D01*
X123063095Y-51921592D02*
X123063095Y-51826354D01*
X123063095Y-51826354D02*
X123015476Y-51731116D01*
X123015476Y-51731116D02*
X122967857Y-51683497D01*
X122967857Y-51683497D02*
X122872619Y-51635878D01*
X122872619Y-51635878D02*
X122682143Y-51588259D01*
X122682143Y-51588259D02*
X122586905Y-51540640D01*
X122586905Y-51540640D02*
X122539286Y-51493021D01*
X122539286Y-51493021D02*
X122491667Y-51397783D01*
X122491667Y-51397783D02*
X122491667Y-51302545D01*
X122491667Y-51302545D02*
X122539286Y-51207307D01*
X122539286Y-51207307D02*
X122586905Y-51159688D01*
X122586905Y-51159688D02*
X122682143Y-51112069D01*
X122682143Y-51112069D02*
X122920238Y-51112069D01*
X122920238Y-51112069D02*
X123063095Y-51159688D01*
X123396429Y-51112069D02*
X123634524Y-52112069D01*
X123634524Y-52112069D02*
X123825000Y-51397783D01*
X123825000Y-51397783D02*
X124015476Y-52112069D01*
X124015476Y-52112069D02*
X124253572Y-51112069D01*
X125110714Y-51112069D02*
X124634524Y-51112069D01*
X124634524Y-51112069D02*
X124586905Y-51588259D01*
X124586905Y-51588259D02*
X124634524Y-51540640D01*
X124634524Y-51540640D02*
X124729762Y-51493021D01*
X124729762Y-51493021D02*
X124967857Y-51493021D01*
X124967857Y-51493021D02*
X125063095Y-51540640D01*
X125063095Y-51540640D02*
X125110714Y-51588259D01*
X125110714Y-51588259D02*
X125158333Y-51683497D01*
X125158333Y-51683497D02*
X125158333Y-51921592D01*
X125158333Y-51921592D02*
X125110714Y-52016830D01*
X125110714Y-52016830D02*
X125063095Y-52064450D01*
X125063095Y-52064450D02*
X124967857Y-52112069D01*
X124967857Y-52112069D02*
X124729762Y-52112069D01*
X124729762Y-52112069D02*
X124634524Y-52064450D01*
X124634524Y-52064450D02*
X124586905Y-52016830D01*
D12*
X155322440Y-28134729D02*
X155322440Y-28648776D01*
X155322440Y-28648776D02*
X155352678Y-28709252D01*
X155352678Y-28709252D02*
X155382916Y-28739491D01*
X155382916Y-28739491D02*
X155443392Y-28769729D01*
X155443392Y-28769729D02*
X155564345Y-28769729D01*
X155564345Y-28769729D02*
X155624821Y-28739491D01*
X155624821Y-28739491D02*
X155655059Y-28709252D01*
X155655059Y-28709252D02*
X155685297Y-28648776D01*
X155685297Y-28648776D02*
X155685297Y-28134729D01*
X156320297Y-28769729D02*
X155957440Y-28769729D01*
X156138868Y-28769729D02*
X156138868Y-28134729D01*
X156138868Y-28134729D02*
X156078392Y-28225443D01*
X156078392Y-28225443D02*
X156017916Y-28285919D01*
X156017916Y-28285919D02*
X155957440Y-28316157D01*
D11*
X147304166Y-32317319D02*
X147304166Y-33031604D01*
X147304166Y-33031604D02*
X147256547Y-33174461D01*
X147256547Y-33174461D02*
X147161309Y-33269700D01*
X147161309Y-33269700D02*
X147018452Y-33317319D01*
X147018452Y-33317319D02*
X146923214Y-33317319D01*
X148304166Y-33317319D02*
X147732738Y-33317319D01*
X148018452Y-33317319D02*
X148018452Y-32317319D01*
X148018452Y-32317319D02*
X147923214Y-32460176D01*
X147923214Y-32460176D02*
X147827976Y-32555414D01*
X147827976Y-32555414D02*
X147732738Y-32603033D01*
X122491667Y-71114450D02*
X122634524Y-71162069D01*
X122634524Y-71162069D02*
X122872619Y-71162069D01*
X122872619Y-71162069D02*
X122967857Y-71114450D01*
X122967857Y-71114450D02*
X123015476Y-71066830D01*
X123015476Y-71066830D02*
X123063095Y-70971592D01*
X123063095Y-70971592D02*
X123063095Y-70876354D01*
X123063095Y-70876354D02*
X123015476Y-70781116D01*
X123015476Y-70781116D02*
X122967857Y-70733497D01*
X122967857Y-70733497D02*
X122872619Y-70685878D01*
X122872619Y-70685878D02*
X122682143Y-70638259D01*
X122682143Y-70638259D02*
X122586905Y-70590640D01*
X122586905Y-70590640D02*
X122539286Y-70543021D01*
X122539286Y-70543021D02*
X122491667Y-70447783D01*
X122491667Y-70447783D02*
X122491667Y-70352545D01*
X122491667Y-70352545D02*
X122539286Y-70257307D01*
X122539286Y-70257307D02*
X122586905Y-70209688D01*
X122586905Y-70209688D02*
X122682143Y-70162069D01*
X122682143Y-70162069D02*
X122920238Y-70162069D01*
X122920238Y-70162069D02*
X123063095Y-70209688D01*
X123396429Y-70162069D02*
X123634524Y-71162069D01*
X123634524Y-71162069D02*
X123825000Y-70447783D01*
X123825000Y-70447783D02*
X124015476Y-71162069D01*
X124015476Y-71162069D02*
X124253572Y-70162069D01*
X124586905Y-70257307D02*
X124634524Y-70209688D01*
X124634524Y-70209688D02*
X124729762Y-70162069D01*
X124729762Y-70162069D02*
X124967857Y-70162069D01*
X124967857Y-70162069D02*
X125063095Y-70209688D01*
X125063095Y-70209688D02*
X125110714Y-70257307D01*
X125110714Y-70257307D02*
X125158333Y-70352545D01*
X125158333Y-70352545D02*
X125158333Y-70447783D01*
X125158333Y-70447783D02*
X125110714Y-70590640D01*
X125110714Y-70590640D02*
X124539286Y-71162069D01*
X124539286Y-71162069D02*
X125158333Y-71162069D01*
X103441667Y-52064450D02*
X103584524Y-52112069D01*
X103584524Y-52112069D02*
X103822619Y-52112069D01*
X103822619Y-52112069D02*
X103917857Y-52064450D01*
X103917857Y-52064450D02*
X103965476Y-52016830D01*
X103965476Y-52016830D02*
X104013095Y-51921592D01*
X104013095Y-51921592D02*
X104013095Y-51826354D01*
X104013095Y-51826354D02*
X103965476Y-51731116D01*
X103965476Y-51731116D02*
X103917857Y-51683497D01*
X103917857Y-51683497D02*
X103822619Y-51635878D01*
X103822619Y-51635878D02*
X103632143Y-51588259D01*
X103632143Y-51588259D02*
X103536905Y-51540640D01*
X103536905Y-51540640D02*
X103489286Y-51493021D01*
X103489286Y-51493021D02*
X103441667Y-51397783D01*
X103441667Y-51397783D02*
X103441667Y-51302545D01*
X103441667Y-51302545D02*
X103489286Y-51207307D01*
X103489286Y-51207307D02*
X103536905Y-51159688D01*
X103536905Y-51159688D02*
X103632143Y-51112069D01*
X103632143Y-51112069D02*
X103870238Y-51112069D01*
X103870238Y-51112069D02*
X104013095Y-51159688D01*
X104346429Y-51112069D02*
X104584524Y-52112069D01*
X104584524Y-52112069D02*
X104775000Y-51397783D01*
X104775000Y-51397783D02*
X104965476Y-52112069D01*
X104965476Y-52112069D02*
X105203572Y-51112069D01*
X106013095Y-51445402D02*
X106013095Y-52112069D01*
X105775000Y-51064450D02*
X105536905Y-51778735D01*
X105536905Y-51778735D02*
X106155952Y-51778735D01*
D13*
%TO.C,D2*%
X85800000Y-67050000D02*
X85800000Y-71050000D01*
X85800000Y-67050000D02*
X91400000Y-67050000D01*
X85800000Y-71050000D02*
X90800000Y-71050000D01*
X91400000Y-70450000D02*
X90800000Y-71050000D01*
X91400000Y-70450000D02*
X91400000Y-67050000D01*
%TO.C,D1*%
X156200000Y-67175000D02*
X156200000Y-71175000D01*
X156200000Y-67175000D02*
X161800000Y-67175000D01*
X156200000Y-71175000D02*
X161200000Y-71175000D01*
X161800000Y-70575000D02*
X161200000Y-71175000D01*
X161800000Y-70575000D02*
X161800000Y-67175000D01*
%TO.C,SW7*%
X85425000Y-36262500D02*
X86025000Y-36262500D01*
X85725000Y-36562500D02*
X85425000Y-36262500D01*
X86025000Y-36262500D02*
X85725000Y-36562500D01*
X87125000Y-34462500D02*
X87125000Y-46262500D01*
X91225000Y-34462500D02*
X87125000Y-34462500D01*
X91225000Y-46262500D02*
X87125000Y-46262500D01*
X92725000Y-40362500D02*
X93725000Y-40362500D01*
X93225000Y-39862500D02*
X93225000Y-40862500D01*
X95225000Y-34462500D02*
X99325000Y-34462500D01*
X99325000Y-34462500D02*
X99325000Y-36862500D01*
X99325000Y-39062500D02*
X99325000Y-41662500D01*
X99325000Y-43862500D02*
X99325000Y-46262500D01*
X99325000Y-46262500D02*
X95225000Y-46262500D01*
X96225000Y-40362500D02*
G75*
G02*
X90225000Y-40362500I-3000000J0D01*
G01*
X90225000Y-40362500D02*
G75*
G02*
X96225000Y-40362500I3000000J0D01*
G01*
%TO.C,SW3*%
X135890000Y-71596250D02*
X149860000Y-71596250D01*
X135890000Y-85566250D02*
X135890000Y-71596250D01*
X149860000Y-71596250D02*
X149860000Y-85566250D01*
X149860000Y-85566250D02*
X135890000Y-85566250D01*
%TO.C,SW6*%
X135890000Y-52546250D02*
X149860000Y-52546250D01*
X135890000Y-66516250D02*
X135890000Y-52546250D01*
X149860000Y-52546250D02*
X149860000Y-66516250D01*
X149860000Y-66516250D02*
X135890000Y-66516250D01*
%TO.C,SW1*%
X97790000Y-71596250D02*
X111760000Y-71596250D01*
X97790000Y-85566250D02*
X97790000Y-71596250D01*
X111760000Y-71596250D02*
X111760000Y-85566250D01*
X111760000Y-85566250D02*
X97790000Y-85566250D01*
%TO.C,SW5*%
X116840000Y-52546250D02*
X130810000Y-52546250D01*
X116840000Y-66516250D02*
X116840000Y-52546250D01*
X130810000Y-52546250D02*
X130810000Y-66516250D01*
X130810000Y-66516250D02*
X116840000Y-66516250D01*
D14*
%TO.C,U1*%
X155416250Y-48990250D02*
X155416250Y-31845250D01*
X157321250Y-50895250D02*
X171291250Y-50895250D01*
X159811250Y-29940250D02*
X159814978Y-29029978D01*
X160314978Y-28530250D02*
X168310250Y-28530250D01*
X168810250Y-29030250D02*
X168810250Y-29940250D01*
D15*
X171291250Y-29940250D02*
X157321250Y-29940250D01*
D14*
X171291250Y-29940250D02*
X157321250Y-29940250D01*
X173196250Y-48990250D02*
X173196250Y-31845250D01*
X155416250Y-31845250D02*
G75*
G02*
X157321250Y-29940250I1905001J-1D01*
G01*
X157321250Y-50895250D02*
G75*
G02*
X155416250Y-48990250I1J1905001D01*
G01*
X159814978Y-29029978D02*
G75*
G02*
X160314978Y-28530251I500018J-291D01*
G01*
X168310250Y-28530250D02*
G75*
G02*
X168810250Y-29030250I0J-500000D01*
G01*
X171291250Y-29940250D02*
G75*
G02*
X173196250Y-31845250I0J-1905000D01*
G01*
X173196250Y-48990250D02*
G75*
G02*
X171291250Y-50895250I-1905000J0D01*
G01*
D16*
X155608250Y-30181250D02*
G75*
G02*
X155104250Y-30181250I-252000J0D01*
G01*
X155104250Y-30181250D02*
G75*
G02*
X155608250Y-30181250I252000J0D01*
G01*
X156751250Y-31061250D02*
G75*
G02*
X156247250Y-31061250I-252000J0D01*
G01*
X156247250Y-31061250D02*
G75*
G02*
X156751250Y-31061250I252000J0D01*
G01*
D13*
%TO.C,J1*%
X146257500Y-33862500D02*
X147637500Y-33862500D01*
X146257500Y-35242500D02*
X146257500Y-33862500D01*
X146257500Y-36512500D02*
X146257500Y-44242500D01*
X146257500Y-36512500D02*
X149017500Y-36512500D01*
X146257500Y-44242500D02*
X149017500Y-44242500D01*
X149017500Y-36512500D02*
X149017500Y-44242500D01*
%TO.C,SW2*%
X116840000Y-71596250D02*
X130810000Y-71596250D01*
X116840000Y-85566250D02*
X116840000Y-71596250D01*
X130810000Y-71596250D02*
X130810000Y-85566250D01*
X130810000Y-85566250D02*
X116840000Y-85566250D01*
%TO.C,SW4*%
X97790000Y-52546250D02*
X111760000Y-52546250D01*
X97790000Y-66516250D02*
X97790000Y-52546250D01*
X111760000Y-52546250D02*
X111760000Y-66516250D01*
X111760000Y-66516250D02*
X97790000Y-66516250D01*
%TD*%
M02*
