M48
; DRILL file {KiCad 9.0.7} date 2026-01-28T20:06:28-0600
; FORMAT={-:-/ absolute / metric / decimal}
; #@! TF.CreationDate,2026-01-28T20:06:28-06:00
; #@! TF.GenerationSoftware,Kicad,Pcbnew,9.0.7
; #@! TF.FileFunction,Plated,1,2,PTH
FMAT,2
METRIC
; #@! TA.AperFunction,Plated,PTH,ViaDrill
T1C0.300
; #@! TA.AperFunction,Plated,PTH,ComponentDrill
T2C0.889
; #@! TA.AperFunction,Plated,PTH,ComponentDrill
T3C1.000
; #@! TA.AperFunction,Plated,PTH,ComponentDrill
T4C1.500
; #@! TA.AperFunction,Plated,PTH,ComponentDrill
T5C2.600
%
G90
G05
T1
X142.878Y-47.626
X151.213Y-47.626
X163.119Y-41.673
X168.0Y-39.0
X169.072Y-39.291
X169.072Y-39.291
X169.072Y-39.291
T2
X156.686Y-32.861
X156.686Y-35.401
X156.686Y-37.941
X156.686Y-40.481
X156.686Y-43.021
X156.686Y-45.561
X156.686Y-48.101
X171.926Y-32.861
X171.926Y-35.401
X171.926Y-37.941
X171.926Y-40.481
X171.926Y-43.021
X171.926Y-45.561
X171.926Y-48.101
T3
X85.725Y-37.862
X85.725Y-40.362
X85.725Y-42.862
X100.225Y-37.862
X100.225Y-42.862
X147.637Y-35.242
X147.637Y-37.782
X147.637Y-40.322
X147.637Y-42.862
T4
X100.965Y-56.991
X100.965Y-76.041
X107.315Y-54.451
X107.315Y-73.501
X120.015Y-56.991
X120.015Y-76.041
X126.365Y-54.451
X126.365Y-73.501
X139.065Y-56.991
X139.065Y-76.041
X145.415Y-54.451
X145.415Y-73.501
T5
X93.225Y-34.762
X93.225Y-45.962
M30
