%TF.GenerationSoftware,KiCad,Pcbnew,9.0.7*%
%TF.CreationDate,2026-01-28T20:06:28-06:00*%
%TF.ProjectId,MicroPad actual,4d696372-6f50-4616-9420-61637475616c,rev?*%
%TF.SameCoordinates,Original*%
%TF.FileFunction,Drillmap*%
%TF.FilePolarity,Positive*%
%FSLAX45Y45*%
G04 Gerber Fmt 4.5, Leading zero omitted, Abs format (unit mm)*
G04 Created by KiCad (PCBNEW 9.0.7) date 2026-01-28 20:06:28*
%MOMM*%
%LPD*%
G01*
G04 APERTURE LIST*
%ADD10C,0.050000*%
%ADD11C,0.200000*%
%ADD12C,0.170000*%
%ADD13C,0.400000*%
G04 APERTURE END LIST*
D10*
X8334375Y-2997625D02*
X17609375Y-2997625D01*
X17609375Y-9025000D01*
X8334375Y-9025000D01*
X8334375Y-2997625D01*
D11*
D12*
X9884500Y-5868125D02*
X10054500Y-6038125D01*
X10054500Y-5868125D02*
X9884500Y-6038125D01*
X9884500Y-7773125D02*
X10054500Y-7943125D01*
X10054500Y-7773125D02*
X9884500Y-7943125D01*
X10900500Y-5868125D02*
X11070500Y-6038125D01*
X11070500Y-5868125D02*
X10900500Y-6038125D01*
X10900500Y-7773125D02*
X11070500Y-7943125D01*
X11070500Y-7773125D02*
X10900500Y-7943125D01*
X11789500Y-5868125D02*
X11959500Y-6038125D01*
X11959500Y-5868125D02*
X11789500Y-6038125D01*
X11789500Y-7773125D02*
X11959500Y-7943125D01*
X11959500Y-7773125D02*
X11789500Y-7943125D01*
X12805500Y-5868125D02*
X12975500Y-6038125D01*
X12975500Y-5868125D02*
X12805500Y-6038125D01*
X12805500Y-7773125D02*
X12975500Y-7943125D01*
X12975500Y-7773125D02*
X12805500Y-7943125D01*
X13694500Y-5868125D02*
X13864500Y-6038125D01*
X13864500Y-5868125D02*
X13694500Y-6038125D01*
X13694500Y-7773125D02*
X13864500Y-7943125D01*
X13864500Y-7773125D02*
X13694500Y-7943125D01*
X14710500Y-5868125D02*
X14880500Y-6038125D01*
X14880500Y-5868125D02*
X14710500Y-6038125D01*
X14710500Y-7773125D02*
X14880500Y-7943125D01*
X14880500Y-7773125D02*
X14710500Y-7943125D01*
D13*
X10677500Y-5953125D02*
G75*
G02*
X10277500Y-5953125I-200000J0D01*
G01*
X10277500Y-5953125D02*
G75*
G02*
X10677500Y-5953125I200000J0D01*
G01*
X10677500Y-7858125D02*
G75*
G02*
X10277500Y-7858125I-200000J0D01*
G01*
X10277500Y-7858125D02*
G75*
G02*
X10677500Y-7858125I200000J0D01*
G01*
X12582500Y-5953125D02*
G75*
G02*
X12182500Y-5953125I-200000J0D01*
G01*
X12182500Y-5953125D02*
G75*
G02*
X12582500Y-5953125I200000J0D01*
G01*
X12582500Y-7858125D02*
G75*
G02*
X12182500Y-7858125I-200000J0D01*
G01*
X12182500Y-7858125D02*
G75*
G02*
X12582500Y-7858125I200000J0D01*
G01*
X14487500Y-5953125D02*
G75*
G02*
X14087500Y-5953125I-200000J0D01*
G01*
X14087500Y-5953125D02*
G75*
G02*
X14487500Y-5953125I200000J0D01*
G01*
X14487500Y-7858125D02*
G75*
G02*
X14087500Y-7858125I-200000J0D01*
G01*
X14087500Y-7858125D02*
G75*
G02*
X14487500Y-7858125I200000J0D01*
G01*
D11*
X8592652Y-9338984D02*
X8592652Y-9138984D01*
X8592652Y-9138984D02*
X8640271Y-9138984D01*
X8640271Y-9138984D02*
X8668842Y-9148508D01*
X8668842Y-9148508D02*
X8687890Y-9167555D01*
X8687890Y-9167555D02*
X8697414Y-9186603D01*
X8697414Y-9186603D02*
X8706938Y-9224698D01*
X8706938Y-9224698D02*
X8706938Y-9253270D01*
X8706938Y-9253270D02*
X8697414Y-9291365D01*
X8697414Y-9291365D02*
X8687890Y-9310412D01*
X8687890Y-9310412D02*
X8668842Y-9329460D01*
X8668842Y-9329460D02*
X8640271Y-9338984D01*
X8640271Y-9338984D02*
X8592652Y-9338984D01*
X8792652Y-9338984D02*
X8792652Y-9205650D01*
X8792652Y-9243746D02*
X8802176Y-9224698D01*
X8802176Y-9224698D02*
X8811699Y-9215174D01*
X8811699Y-9215174D02*
X8830747Y-9205650D01*
X8830747Y-9205650D02*
X8849795Y-9205650D01*
X8916461Y-9338984D02*
X8916461Y-9205650D01*
X8916461Y-9138984D02*
X8906938Y-9148508D01*
X8906938Y-9148508D02*
X8916461Y-9158031D01*
X8916461Y-9158031D02*
X8925985Y-9148508D01*
X8925985Y-9148508D02*
X8916461Y-9138984D01*
X8916461Y-9138984D02*
X8916461Y-9158031D01*
X9040271Y-9338984D02*
X9021223Y-9329460D01*
X9021223Y-9329460D02*
X9011699Y-9310412D01*
X9011699Y-9310412D02*
X9011699Y-9138984D01*
X9145033Y-9338984D02*
X9125985Y-9329460D01*
X9125985Y-9329460D02*
X9116461Y-9310412D01*
X9116461Y-9310412D02*
X9116461Y-9138984D01*
X9373604Y-9338984D02*
X9373604Y-9138984D01*
X9373604Y-9138984D02*
X9440271Y-9281841D01*
X9440271Y-9281841D02*
X9506938Y-9138984D01*
X9506938Y-9138984D02*
X9506938Y-9338984D01*
X9687890Y-9338984D02*
X9687890Y-9234222D01*
X9687890Y-9234222D02*
X9678366Y-9215174D01*
X9678366Y-9215174D02*
X9659319Y-9205650D01*
X9659319Y-9205650D02*
X9621223Y-9205650D01*
X9621223Y-9205650D02*
X9602176Y-9215174D01*
X9687890Y-9329460D02*
X9668842Y-9338984D01*
X9668842Y-9338984D02*
X9621223Y-9338984D01*
X9621223Y-9338984D02*
X9602176Y-9329460D01*
X9602176Y-9329460D02*
X9592652Y-9310412D01*
X9592652Y-9310412D02*
X9592652Y-9291365D01*
X9592652Y-9291365D02*
X9602176Y-9272317D01*
X9602176Y-9272317D02*
X9621223Y-9262793D01*
X9621223Y-9262793D02*
X9668842Y-9262793D01*
X9668842Y-9262793D02*
X9687890Y-9253270D01*
X9783128Y-9205650D02*
X9783128Y-9405650D01*
X9783128Y-9215174D02*
X9802176Y-9205650D01*
X9802176Y-9205650D02*
X9840271Y-9205650D01*
X9840271Y-9205650D02*
X9859319Y-9215174D01*
X9859319Y-9215174D02*
X9868842Y-9224698D01*
X9868842Y-9224698D02*
X9878366Y-9243746D01*
X9878366Y-9243746D02*
X9878366Y-9300889D01*
X9878366Y-9300889D02*
X9868842Y-9319936D01*
X9868842Y-9319936D02*
X9859319Y-9329460D01*
X9859319Y-9329460D02*
X9840271Y-9338984D01*
X9840271Y-9338984D02*
X9802176Y-9338984D01*
X9802176Y-9338984D02*
X9783128Y-9329460D01*
X9964080Y-9319936D02*
X9973604Y-9329460D01*
X9973604Y-9329460D02*
X9964080Y-9338984D01*
X9964080Y-9338984D02*
X9954557Y-9329460D01*
X9954557Y-9329460D02*
X9964080Y-9319936D01*
X9964080Y-9319936D02*
X9964080Y-9338984D01*
X9964080Y-9215174D02*
X9973604Y-9224698D01*
X9973604Y-9224698D02*
X9964080Y-9234222D01*
X9964080Y-9234222D02*
X9954557Y-9224698D01*
X9954557Y-9224698D02*
X9964080Y-9215174D01*
X9964080Y-9215174D02*
X9964080Y-9234222D01*
D12*
X8161875Y-9582500D02*
X8331875Y-9752500D01*
X8331875Y-9582500D02*
X8161875Y-9752500D01*
D11*
X8697414Y-9758984D02*
X8583128Y-9758984D01*
X8640271Y-9758984D02*
X8640271Y-9558984D01*
X8640271Y-9558984D02*
X8621223Y-9587555D01*
X8621223Y-9587555D02*
X8602176Y-9606603D01*
X8602176Y-9606603D02*
X8583128Y-9616127D01*
X8783128Y-9739936D02*
X8792652Y-9749460D01*
X8792652Y-9749460D02*
X8783128Y-9758984D01*
X8783128Y-9758984D02*
X8773604Y-9749460D01*
X8773604Y-9749460D02*
X8783128Y-9739936D01*
X8783128Y-9739936D02*
X8783128Y-9758984D01*
X8859319Y-9558984D02*
X8992652Y-9558984D01*
X8992652Y-9558984D02*
X8906938Y-9758984D01*
X9106938Y-9558984D02*
X9125985Y-9558984D01*
X9125985Y-9558984D02*
X9145033Y-9568508D01*
X9145033Y-9568508D02*
X9154557Y-9578031D01*
X9154557Y-9578031D02*
X9164080Y-9597079D01*
X9164080Y-9597079D02*
X9173604Y-9635174D01*
X9173604Y-9635174D02*
X9173604Y-9682793D01*
X9173604Y-9682793D02*
X9164080Y-9720889D01*
X9164080Y-9720889D02*
X9154557Y-9739936D01*
X9154557Y-9739936D02*
X9145033Y-9749460D01*
X9145033Y-9749460D02*
X9125985Y-9758984D01*
X9125985Y-9758984D02*
X9106938Y-9758984D01*
X9106938Y-9758984D02*
X9087890Y-9749460D01*
X9087890Y-9749460D02*
X9078366Y-9739936D01*
X9078366Y-9739936D02*
X9068842Y-9720889D01*
X9068842Y-9720889D02*
X9059319Y-9682793D01*
X9059319Y-9682793D02*
X9059319Y-9635174D01*
X9059319Y-9635174D02*
X9068842Y-9597079D01*
X9068842Y-9597079D02*
X9078366Y-9578031D01*
X9078366Y-9578031D02*
X9087890Y-9568508D01*
X9087890Y-9568508D02*
X9106938Y-9558984D01*
X9297414Y-9558984D02*
X9316461Y-9558984D01*
X9316461Y-9558984D02*
X9335509Y-9568508D01*
X9335509Y-9568508D02*
X9345033Y-9578031D01*
X9345033Y-9578031D02*
X9354557Y-9597079D01*
X9354557Y-9597079D02*
X9364080Y-9635174D01*
X9364080Y-9635174D02*
X9364080Y-9682793D01*
X9364080Y-9682793D02*
X9354557Y-9720889D01*
X9354557Y-9720889D02*
X9345033Y-9739936D01*
X9345033Y-9739936D02*
X9335509Y-9749460D01*
X9335509Y-9749460D02*
X9316461Y-9758984D01*
X9316461Y-9758984D02*
X9297414Y-9758984D01*
X9297414Y-9758984D02*
X9278366Y-9749460D01*
X9278366Y-9749460D02*
X9268842Y-9739936D01*
X9268842Y-9739936D02*
X9259319Y-9720889D01*
X9259319Y-9720889D02*
X9249795Y-9682793D01*
X9249795Y-9682793D02*
X9249795Y-9635174D01*
X9249795Y-9635174D02*
X9259319Y-9597079D01*
X9259319Y-9597079D02*
X9268842Y-9578031D01*
X9268842Y-9578031D02*
X9278366Y-9568508D01*
X9278366Y-9568508D02*
X9297414Y-9558984D01*
X9449795Y-9758984D02*
X9449795Y-9625650D01*
X9449795Y-9644698D02*
X9459319Y-9635174D01*
X9459319Y-9635174D02*
X9478366Y-9625650D01*
X9478366Y-9625650D02*
X9506938Y-9625650D01*
X9506938Y-9625650D02*
X9525985Y-9635174D01*
X9525985Y-9635174D02*
X9535509Y-9654222D01*
X9535509Y-9654222D02*
X9535509Y-9758984D01*
X9535509Y-9654222D02*
X9545033Y-9635174D01*
X9545033Y-9635174D02*
X9564080Y-9625650D01*
X9564080Y-9625650D02*
X9592652Y-9625650D01*
X9592652Y-9625650D02*
X9611700Y-9635174D01*
X9611700Y-9635174D02*
X9621223Y-9654222D01*
X9621223Y-9654222D02*
X9621223Y-9758984D01*
X9716461Y-9758984D02*
X9716461Y-9625650D01*
X9716461Y-9644698D02*
X9725985Y-9635174D01*
X9725985Y-9635174D02*
X9745033Y-9625650D01*
X9745033Y-9625650D02*
X9773604Y-9625650D01*
X9773604Y-9625650D02*
X9792652Y-9635174D01*
X9792652Y-9635174D02*
X9802176Y-9654222D01*
X9802176Y-9654222D02*
X9802176Y-9758984D01*
X9802176Y-9654222D02*
X9811700Y-9635174D01*
X9811700Y-9635174D02*
X9830747Y-9625650D01*
X9830747Y-9625650D02*
X9859319Y-9625650D01*
X9859319Y-9625650D02*
X9878366Y-9635174D01*
X9878366Y-9635174D02*
X9887890Y-9654222D01*
X9887890Y-9654222D02*
X9887890Y-9758984D01*
X10278366Y-9549460D02*
X10106938Y-9806603D01*
X10535509Y-9558984D02*
X10554557Y-9558984D01*
X10554557Y-9558984D02*
X10573604Y-9568508D01*
X10573604Y-9568508D02*
X10583128Y-9578031D01*
X10583128Y-9578031D02*
X10592652Y-9597079D01*
X10592652Y-9597079D02*
X10602176Y-9635174D01*
X10602176Y-9635174D02*
X10602176Y-9682793D01*
X10602176Y-9682793D02*
X10592652Y-9720889D01*
X10592652Y-9720889D02*
X10583128Y-9739936D01*
X10583128Y-9739936D02*
X10573604Y-9749460D01*
X10573604Y-9749460D02*
X10554557Y-9758984D01*
X10554557Y-9758984D02*
X10535509Y-9758984D01*
X10535509Y-9758984D02*
X10516462Y-9749460D01*
X10516462Y-9749460D02*
X10506938Y-9739936D01*
X10506938Y-9739936D02*
X10497414Y-9720889D01*
X10497414Y-9720889D02*
X10487890Y-9682793D01*
X10487890Y-9682793D02*
X10487890Y-9635174D01*
X10487890Y-9635174D02*
X10497414Y-9597079D01*
X10497414Y-9597079D02*
X10506938Y-9578031D01*
X10506938Y-9578031D02*
X10516462Y-9568508D01*
X10516462Y-9568508D02*
X10535509Y-9558984D01*
X10687890Y-9739936D02*
X10697414Y-9749460D01*
X10697414Y-9749460D02*
X10687890Y-9758984D01*
X10687890Y-9758984D02*
X10678366Y-9749460D01*
X10678366Y-9749460D02*
X10687890Y-9739936D01*
X10687890Y-9739936D02*
X10687890Y-9758984D01*
X10821223Y-9558984D02*
X10840271Y-9558984D01*
X10840271Y-9558984D02*
X10859319Y-9568508D01*
X10859319Y-9568508D02*
X10868843Y-9578031D01*
X10868843Y-9578031D02*
X10878366Y-9597079D01*
X10878366Y-9597079D02*
X10887890Y-9635174D01*
X10887890Y-9635174D02*
X10887890Y-9682793D01*
X10887890Y-9682793D02*
X10878366Y-9720889D01*
X10878366Y-9720889D02*
X10868843Y-9739936D01*
X10868843Y-9739936D02*
X10859319Y-9749460D01*
X10859319Y-9749460D02*
X10840271Y-9758984D01*
X10840271Y-9758984D02*
X10821223Y-9758984D01*
X10821223Y-9758984D02*
X10802176Y-9749460D01*
X10802176Y-9749460D02*
X10792652Y-9739936D01*
X10792652Y-9739936D02*
X10783128Y-9720889D01*
X10783128Y-9720889D02*
X10773604Y-9682793D01*
X10773604Y-9682793D02*
X10773604Y-9635174D01*
X10773604Y-9635174D02*
X10783128Y-9597079D01*
X10783128Y-9597079D02*
X10792652Y-9578031D01*
X10792652Y-9578031D02*
X10802176Y-9568508D01*
X10802176Y-9568508D02*
X10821223Y-9558984D01*
X11059319Y-9558984D02*
X11021223Y-9558984D01*
X11021223Y-9558984D02*
X11002176Y-9568508D01*
X11002176Y-9568508D02*
X10992652Y-9578031D01*
X10992652Y-9578031D02*
X10973604Y-9606603D01*
X10973604Y-9606603D02*
X10964081Y-9644698D01*
X10964081Y-9644698D02*
X10964081Y-9720889D01*
X10964081Y-9720889D02*
X10973604Y-9739936D01*
X10973604Y-9739936D02*
X10983128Y-9749460D01*
X10983128Y-9749460D02*
X11002176Y-9758984D01*
X11002176Y-9758984D02*
X11040271Y-9758984D01*
X11040271Y-9758984D02*
X11059319Y-9749460D01*
X11059319Y-9749460D02*
X11068843Y-9739936D01*
X11068843Y-9739936D02*
X11078366Y-9720889D01*
X11078366Y-9720889D02*
X11078366Y-9673270D01*
X11078366Y-9673270D02*
X11068843Y-9654222D01*
X11068843Y-9654222D02*
X11059319Y-9644698D01*
X11059319Y-9644698D02*
X11040271Y-9635174D01*
X11040271Y-9635174D02*
X11002176Y-9635174D01*
X11002176Y-9635174D02*
X10983128Y-9644698D01*
X10983128Y-9644698D02*
X10973604Y-9654222D01*
X10973604Y-9654222D02*
X10964081Y-9673270D01*
X11249795Y-9558984D02*
X11211700Y-9558984D01*
X11211700Y-9558984D02*
X11192652Y-9568508D01*
X11192652Y-9568508D02*
X11183128Y-9578031D01*
X11183128Y-9578031D02*
X11164081Y-9606603D01*
X11164081Y-9606603D02*
X11154557Y-9644698D01*
X11154557Y-9644698D02*
X11154557Y-9720889D01*
X11154557Y-9720889D02*
X11164081Y-9739936D01*
X11164081Y-9739936D02*
X11173604Y-9749460D01*
X11173604Y-9749460D02*
X11192652Y-9758984D01*
X11192652Y-9758984D02*
X11230747Y-9758984D01*
X11230747Y-9758984D02*
X11249795Y-9749460D01*
X11249795Y-9749460D02*
X11259319Y-9739936D01*
X11259319Y-9739936D02*
X11268842Y-9720889D01*
X11268842Y-9720889D02*
X11268842Y-9673270D01*
X11268842Y-9673270D02*
X11259319Y-9654222D01*
X11259319Y-9654222D02*
X11249795Y-9644698D01*
X11249795Y-9644698D02*
X11230747Y-9635174D01*
X11230747Y-9635174D02*
X11192652Y-9635174D01*
X11192652Y-9635174D02*
X11173604Y-9644698D01*
X11173604Y-9644698D02*
X11164081Y-9654222D01*
X11164081Y-9654222D02*
X11154557Y-9673270D01*
X11364081Y-9758984D02*
X11402176Y-9758984D01*
X11402176Y-9758984D02*
X11421223Y-9749460D01*
X11421223Y-9749460D02*
X11430747Y-9739936D01*
X11430747Y-9739936D02*
X11449795Y-9711365D01*
X11449795Y-9711365D02*
X11459319Y-9673270D01*
X11459319Y-9673270D02*
X11459319Y-9597079D01*
X11459319Y-9597079D02*
X11449795Y-9578031D01*
X11449795Y-9578031D02*
X11440271Y-9568508D01*
X11440271Y-9568508D02*
X11421223Y-9558984D01*
X11421223Y-9558984D02*
X11383128Y-9558984D01*
X11383128Y-9558984D02*
X11364081Y-9568508D01*
X11364081Y-9568508D02*
X11354557Y-9578031D01*
X11354557Y-9578031D02*
X11345033Y-9597079D01*
X11345033Y-9597079D02*
X11345033Y-9644698D01*
X11345033Y-9644698D02*
X11354557Y-9663746D01*
X11354557Y-9663746D02*
X11364081Y-9673270D01*
X11364081Y-9673270D02*
X11383128Y-9682793D01*
X11383128Y-9682793D02*
X11421223Y-9682793D01*
X11421223Y-9682793D02*
X11440271Y-9673270D01*
X11440271Y-9673270D02*
X11449795Y-9663746D01*
X11449795Y-9663746D02*
X11459319Y-9644698D01*
X11535509Y-9558984D02*
X11535509Y-9597079D01*
X11611700Y-9558984D02*
X11611700Y-9597079D01*
X11906938Y-9835174D02*
X11897414Y-9825650D01*
X11897414Y-9825650D02*
X11878366Y-9797079D01*
X11878366Y-9797079D02*
X11868843Y-9778031D01*
X11868843Y-9778031D02*
X11859319Y-9749460D01*
X11859319Y-9749460D02*
X11849795Y-9701841D01*
X11849795Y-9701841D02*
X11849795Y-9663746D01*
X11849795Y-9663746D02*
X11859319Y-9616127D01*
X11859319Y-9616127D02*
X11868843Y-9587555D01*
X11868843Y-9587555D02*
X11878366Y-9568508D01*
X11878366Y-9568508D02*
X11897414Y-9539936D01*
X11897414Y-9539936D02*
X11906938Y-9530412D01*
X12087890Y-9758984D02*
X11973604Y-9758984D01*
X12030747Y-9758984D02*
X12030747Y-9558984D01*
X12030747Y-9558984D02*
X12011700Y-9587555D01*
X12011700Y-9587555D02*
X11992652Y-9606603D01*
X11992652Y-9606603D02*
X11973604Y-9616127D01*
X12164081Y-9578031D02*
X12173604Y-9568508D01*
X12173604Y-9568508D02*
X12192652Y-9558984D01*
X12192652Y-9558984D02*
X12240271Y-9558984D01*
X12240271Y-9558984D02*
X12259319Y-9568508D01*
X12259319Y-9568508D02*
X12268843Y-9578031D01*
X12268843Y-9578031D02*
X12278366Y-9597079D01*
X12278366Y-9597079D02*
X12278366Y-9616127D01*
X12278366Y-9616127D02*
X12268843Y-9644698D01*
X12268843Y-9644698D02*
X12154557Y-9758984D01*
X12154557Y-9758984D02*
X12278366Y-9758984D01*
X12516462Y-9758984D02*
X12516462Y-9558984D01*
X12602176Y-9758984D02*
X12602176Y-9654222D01*
X12602176Y-9654222D02*
X12592652Y-9635174D01*
X12592652Y-9635174D02*
X12573605Y-9625650D01*
X12573605Y-9625650D02*
X12545033Y-9625650D01*
X12545033Y-9625650D02*
X12525985Y-9635174D01*
X12525985Y-9635174D02*
X12516462Y-9644698D01*
X12725985Y-9758984D02*
X12706938Y-9749460D01*
X12706938Y-9749460D02*
X12697414Y-9739936D01*
X12697414Y-9739936D02*
X12687890Y-9720889D01*
X12687890Y-9720889D02*
X12687890Y-9663746D01*
X12687890Y-9663746D02*
X12697414Y-9644698D01*
X12697414Y-9644698D02*
X12706938Y-9635174D01*
X12706938Y-9635174D02*
X12725985Y-9625650D01*
X12725985Y-9625650D02*
X12754557Y-9625650D01*
X12754557Y-9625650D02*
X12773605Y-9635174D01*
X12773605Y-9635174D02*
X12783128Y-9644698D01*
X12783128Y-9644698D02*
X12792652Y-9663746D01*
X12792652Y-9663746D02*
X12792652Y-9720889D01*
X12792652Y-9720889D02*
X12783128Y-9739936D01*
X12783128Y-9739936D02*
X12773605Y-9749460D01*
X12773605Y-9749460D02*
X12754557Y-9758984D01*
X12754557Y-9758984D02*
X12725985Y-9758984D01*
X12906938Y-9758984D02*
X12887890Y-9749460D01*
X12887890Y-9749460D02*
X12878366Y-9730412D01*
X12878366Y-9730412D02*
X12878366Y-9558984D01*
X13059319Y-9749460D02*
X13040271Y-9758984D01*
X13040271Y-9758984D02*
X13002176Y-9758984D01*
X13002176Y-9758984D02*
X12983128Y-9749460D01*
X12983128Y-9749460D02*
X12973605Y-9730412D01*
X12973605Y-9730412D02*
X12973605Y-9654222D01*
X12973605Y-9654222D02*
X12983128Y-9635174D01*
X12983128Y-9635174D02*
X13002176Y-9625650D01*
X13002176Y-9625650D02*
X13040271Y-9625650D01*
X13040271Y-9625650D02*
X13059319Y-9635174D01*
X13059319Y-9635174D02*
X13068843Y-9654222D01*
X13068843Y-9654222D02*
X13068843Y-9673270D01*
X13068843Y-9673270D02*
X12973605Y-9692317D01*
X13145033Y-9749460D02*
X13164081Y-9758984D01*
X13164081Y-9758984D02*
X13202176Y-9758984D01*
X13202176Y-9758984D02*
X13221224Y-9749460D01*
X13221224Y-9749460D02*
X13230747Y-9730412D01*
X13230747Y-9730412D02*
X13230747Y-9720889D01*
X13230747Y-9720889D02*
X13221224Y-9701841D01*
X13221224Y-9701841D02*
X13202176Y-9692317D01*
X13202176Y-9692317D02*
X13173605Y-9692317D01*
X13173605Y-9692317D02*
X13154557Y-9682793D01*
X13154557Y-9682793D02*
X13145033Y-9663746D01*
X13145033Y-9663746D02*
X13145033Y-9654222D01*
X13145033Y-9654222D02*
X13154557Y-9635174D01*
X13154557Y-9635174D02*
X13173605Y-9625650D01*
X13173605Y-9625650D02*
X13202176Y-9625650D01*
X13202176Y-9625650D02*
X13221224Y-9635174D01*
X13297414Y-9835174D02*
X13306938Y-9825650D01*
X13306938Y-9825650D02*
X13325986Y-9797079D01*
X13325986Y-9797079D02*
X13335509Y-9778031D01*
X13335509Y-9778031D02*
X13345033Y-9749460D01*
X13345033Y-9749460D02*
X13354557Y-9701841D01*
X13354557Y-9701841D02*
X13354557Y-9663746D01*
X13354557Y-9663746D02*
X13345033Y-9616127D01*
X13345033Y-9616127D02*
X13335509Y-9587555D01*
X13335509Y-9587555D02*
X13325986Y-9568508D01*
X13325986Y-9568508D02*
X13306938Y-9539936D01*
X13306938Y-9539936D02*
X13297414Y-9530412D01*
X13659319Y-9835174D02*
X13649795Y-9825650D01*
X13649795Y-9825650D02*
X13630747Y-9797079D01*
X13630747Y-9797079D02*
X13621224Y-9778031D01*
X13621224Y-9778031D02*
X13611700Y-9749460D01*
X13611700Y-9749460D02*
X13602176Y-9701841D01*
X13602176Y-9701841D02*
X13602176Y-9663746D01*
X13602176Y-9663746D02*
X13611700Y-9616127D01*
X13611700Y-9616127D02*
X13621224Y-9587555D01*
X13621224Y-9587555D02*
X13630747Y-9568508D01*
X13630747Y-9568508D02*
X13649795Y-9539936D01*
X13649795Y-9539936D02*
X13659319Y-9530412D01*
X13735509Y-9625650D02*
X13735509Y-9758984D01*
X13735509Y-9644698D02*
X13745033Y-9635174D01*
X13745033Y-9635174D02*
X13764081Y-9625650D01*
X13764081Y-9625650D02*
X13792652Y-9625650D01*
X13792652Y-9625650D02*
X13811700Y-9635174D01*
X13811700Y-9635174D02*
X13821224Y-9654222D01*
X13821224Y-9654222D02*
X13821224Y-9758984D01*
X13945033Y-9758984D02*
X13925986Y-9749460D01*
X13925986Y-9749460D02*
X13916462Y-9739936D01*
X13916462Y-9739936D02*
X13906938Y-9720889D01*
X13906938Y-9720889D02*
X13906938Y-9663746D01*
X13906938Y-9663746D02*
X13916462Y-9644698D01*
X13916462Y-9644698D02*
X13925986Y-9635174D01*
X13925986Y-9635174D02*
X13945033Y-9625650D01*
X13945033Y-9625650D02*
X13973605Y-9625650D01*
X13973605Y-9625650D02*
X13992652Y-9635174D01*
X13992652Y-9635174D02*
X14002176Y-9644698D01*
X14002176Y-9644698D02*
X14011700Y-9663746D01*
X14011700Y-9663746D02*
X14011700Y-9720889D01*
X14011700Y-9720889D02*
X14002176Y-9739936D01*
X14002176Y-9739936D02*
X13992652Y-9749460D01*
X13992652Y-9749460D02*
X13973605Y-9758984D01*
X13973605Y-9758984D02*
X13945033Y-9758984D01*
X14068843Y-9625650D02*
X14145033Y-9625650D01*
X14097414Y-9558984D02*
X14097414Y-9730412D01*
X14097414Y-9730412D02*
X14106938Y-9749460D01*
X14106938Y-9749460D02*
X14125986Y-9758984D01*
X14125986Y-9758984D02*
X14145033Y-9758984D01*
X14364081Y-9625650D02*
X14364081Y-9825650D01*
X14364081Y-9635174D02*
X14383128Y-9625650D01*
X14383128Y-9625650D02*
X14421224Y-9625650D01*
X14421224Y-9625650D02*
X14440271Y-9635174D01*
X14440271Y-9635174D02*
X14449795Y-9644698D01*
X14449795Y-9644698D02*
X14459319Y-9663746D01*
X14459319Y-9663746D02*
X14459319Y-9720889D01*
X14459319Y-9720889D02*
X14449795Y-9739936D01*
X14449795Y-9739936D02*
X14440271Y-9749460D01*
X14440271Y-9749460D02*
X14421224Y-9758984D01*
X14421224Y-9758984D02*
X14383128Y-9758984D01*
X14383128Y-9758984D02*
X14364081Y-9749460D01*
X14573605Y-9758984D02*
X14554557Y-9749460D01*
X14554557Y-9749460D02*
X14545033Y-9730412D01*
X14545033Y-9730412D02*
X14545033Y-9558984D01*
X14735509Y-9758984D02*
X14735509Y-9654222D01*
X14735509Y-9654222D02*
X14725986Y-9635174D01*
X14725986Y-9635174D02*
X14706938Y-9625650D01*
X14706938Y-9625650D02*
X14668843Y-9625650D01*
X14668843Y-9625650D02*
X14649795Y-9635174D01*
X14735509Y-9749460D02*
X14716462Y-9758984D01*
X14716462Y-9758984D02*
X14668843Y-9758984D01*
X14668843Y-9758984D02*
X14649795Y-9749460D01*
X14649795Y-9749460D02*
X14640271Y-9730412D01*
X14640271Y-9730412D02*
X14640271Y-9711365D01*
X14640271Y-9711365D02*
X14649795Y-9692317D01*
X14649795Y-9692317D02*
X14668843Y-9682793D01*
X14668843Y-9682793D02*
X14716462Y-9682793D01*
X14716462Y-9682793D02*
X14735509Y-9673270D01*
X14802176Y-9625650D02*
X14878367Y-9625650D01*
X14830748Y-9558984D02*
X14830748Y-9730412D01*
X14830748Y-9730412D02*
X14840271Y-9749460D01*
X14840271Y-9749460D02*
X14859319Y-9758984D01*
X14859319Y-9758984D02*
X14878367Y-9758984D01*
X15021224Y-9749460D02*
X15002176Y-9758984D01*
X15002176Y-9758984D02*
X14964081Y-9758984D01*
X14964081Y-9758984D02*
X14945033Y-9749460D01*
X14945033Y-9749460D02*
X14935509Y-9730412D01*
X14935509Y-9730412D02*
X14935509Y-9654222D01*
X14935509Y-9654222D02*
X14945033Y-9635174D01*
X14945033Y-9635174D02*
X14964081Y-9625650D01*
X14964081Y-9625650D02*
X15002176Y-9625650D01*
X15002176Y-9625650D02*
X15021224Y-9635174D01*
X15021224Y-9635174D02*
X15030748Y-9654222D01*
X15030748Y-9654222D02*
X15030748Y-9673270D01*
X15030748Y-9673270D02*
X14935509Y-9692317D01*
X15202176Y-9758984D02*
X15202176Y-9558984D01*
X15202176Y-9749460D02*
X15183129Y-9758984D01*
X15183129Y-9758984D02*
X15145033Y-9758984D01*
X15145033Y-9758984D02*
X15125986Y-9749460D01*
X15125986Y-9749460D02*
X15116462Y-9739936D01*
X15116462Y-9739936D02*
X15106938Y-9720889D01*
X15106938Y-9720889D02*
X15106938Y-9663746D01*
X15106938Y-9663746D02*
X15116462Y-9644698D01*
X15116462Y-9644698D02*
X15125986Y-9635174D01*
X15125986Y-9635174D02*
X15145033Y-9625650D01*
X15145033Y-9625650D02*
X15183129Y-9625650D01*
X15183129Y-9625650D02*
X15202176Y-9635174D01*
X15278367Y-9835174D02*
X15287890Y-9825650D01*
X15287890Y-9825650D02*
X15306938Y-9797079D01*
X15306938Y-9797079D02*
X15316462Y-9778031D01*
X15316462Y-9778031D02*
X15325986Y-9749460D01*
X15325986Y-9749460D02*
X15335509Y-9701841D01*
X15335509Y-9701841D02*
X15335509Y-9663746D01*
X15335509Y-9663746D02*
X15325986Y-9616127D01*
X15325986Y-9616127D02*
X15316462Y-9587555D01*
X15316462Y-9587555D02*
X15306938Y-9568508D01*
X15306938Y-9568508D02*
X15287890Y-9539936D01*
X15287890Y-9539936D02*
X15278367Y-9530412D01*
X8331875Y-9957500D02*
G75*
G02*
X8131875Y-9957500I-100000J0D01*
G01*
X8131875Y-9957500D02*
G75*
G02*
X8331875Y-9957500I100000J0D01*
G01*
X8678366Y-9915650D02*
X8678366Y-10048984D01*
X8630747Y-9839460D02*
X8583128Y-9982317D01*
X8583128Y-9982317D02*
X8706938Y-9982317D01*
X8783128Y-10029936D02*
X8792652Y-10039460D01*
X8792652Y-10039460D02*
X8783128Y-10048984D01*
X8783128Y-10048984D02*
X8773604Y-10039460D01*
X8773604Y-10039460D02*
X8783128Y-10029936D01*
X8783128Y-10029936D02*
X8783128Y-10048984D01*
X8916461Y-9848984D02*
X8935509Y-9848984D01*
X8935509Y-9848984D02*
X8954557Y-9858508D01*
X8954557Y-9858508D02*
X8964080Y-9868031D01*
X8964080Y-9868031D02*
X8973604Y-9887079D01*
X8973604Y-9887079D02*
X8983128Y-9925174D01*
X8983128Y-9925174D02*
X8983128Y-9972793D01*
X8983128Y-9972793D02*
X8973604Y-10010889D01*
X8973604Y-10010889D02*
X8964080Y-10029936D01*
X8964080Y-10029936D02*
X8954557Y-10039460D01*
X8954557Y-10039460D02*
X8935509Y-10048984D01*
X8935509Y-10048984D02*
X8916461Y-10048984D01*
X8916461Y-10048984D02*
X8897414Y-10039460D01*
X8897414Y-10039460D02*
X8887890Y-10029936D01*
X8887890Y-10029936D02*
X8878366Y-10010889D01*
X8878366Y-10010889D02*
X8868842Y-9972793D01*
X8868842Y-9972793D02*
X8868842Y-9925174D01*
X8868842Y-9925174D02*
X8878366Y-9887079D01*
X8878366Y-9887079D02*
X8887890Y-9868031D01*
X8887890Y-9868031D02*
X8897414Y-9858508D01*
X8897414Y-9858508D02*
X8916461Y-9848984D01*
X9106938Y-9848984D02*
X9125985Y-9848984D01*
X9125985Y-9848984D02*
X9145033Y-9858508D01*
X9145033Y-9858508D02*
X9154557Y-9868031D01*
X9154557Y-9868031D02*
X9164080Y-9887079D01*
X9164080Y-9887079D02*
X9173604Y-9925174D01*
X9173604Y-9925174D02*
X9173604Y-9972793D01*
X9173604Y-9972793D02*
X9164080Y-10010889D01*
X9164080Y-10010889D02*
X9154557Y-10029936D01*
X9154557Y-10029936D02*
X9145033Y-10039460D01*
X9145033Y-10039460D02*
X9125985Y-10048984D01*
X9125985Y-10048984D02*
X9106938Y-10048984D01*
X9106938Y-10048984D02*
X9087890Y-10039460D01*
X9087890Y-10039460D02*
X9078366Y-10029936D01*
X9078366Y-10029936D02*
X9068842Y-10010889D01*
X9068842Y-10010889D02*
X9059319Y-9972793D01*
X9059319Y-9972793D02*
X9059319Y-9925174D01*
X9059319Y-9925174D02*
X9068842Y-9887079D01*
X9068842Y-9887079D02*
X9078366Y-9868031D01*
X9078366Y-9868031D02*
X9087890Y-9858508D01*
X9087890Y-9858508D02*
X9106938Y-9848984D01*
X9297414Y-9848984D02*
X9316461Y-9848984D01*
X9316461Y-9848984D02*
X9335509Y-9858508D01*
X9335509Y-9858508D02*
X9345033Y-9868031D01*
X9345033Y-9868031D02*
X9354557Y-9887079D01*
X9354557Y-9887079D02*
X9364080Y-9925174D01*
X9364080Y-9925174D02*
X9364080Y-9972793D01*
X9364080Y-9972793D02*
X9354557Y-10010889D01*
X9354557Y-10010889D02*
X9345033Y-10029936D01*
X9345033Y-10029936D02*
X9335509Y-10039460D01*
X9335509Y-10039460D02*
X9316461Y-10048984D01*
X9316461Y-10048984D02*
X9297414Y-10048984D01*
X9297414Y-10048984D02*
X9278366Y-10039460D01*
X9278366Y-10039460D02*
X9268842Y-10029936D01*
X9268842Y-10029936D02*
X9259319Y-10010889D01*
X9259319Y-10010889D02*
X9249795Y-9972793D01*
X9249795Y-9972793D02*
X9249795Y-9925174D01*
X9249795Y-9925174D02*
X9259319Y-9887079D01*
X9259319Y-9887079D02*
X9268842Y-9868031D01*
X9268842Y-9868031D02*
X9278366Y-9858508D01*
X9278366Y-9858508D02*
X9297414Y-9848984D01*
X9449795Y-10048984D02*
X9449795Y-9915650D01*
X9449795Y-9934698D02*
X9459319Y-9925174D01*
X9459319Y-9925174D02*
X9478366Y-9915650D01*
X9478366Y-9915650D02*
X9506938Y-9915650D01*
X9506938Y-9915650D02*
X9525985Y-9925174D01*
X9525985Y-9925174D02*
X9535509Y-9944222D01*
X9535509Y-9944222D02*
X9535509Y-10048984D01*
X9535509Y-9944222D02*
X9545033Y-9925174D01*
X9545033Y-9925174D02*
X9564080Y-9915650D01*
X9564080Y-9915650D02*
X9592652Y-9915650D01*
X9592652Y-9915650D02*
X9611700Y-9925174D01*
X9611700Y-9925174D02*
X9621223Y-9944222D01*
X9621223Y-9944222D02*
X9621223Y-10048984D01*
X9716461Y-10048984D02*
X9716461Y-9915650D01*
X9716461Y-9934698D02*
X9725985Y-9925174D01*
X9725985Y-9925174D02*
X9745033Y-9915650D01*
X9745033Y-9915650D02*
X9773604Y-9915650D01*
X9773604Y-9915650D02*
X9792652Y-9925174D01*
X9792652Y-9925174D02*
X9802176Y-9944222D01*
X9802176Y-9944222D02*
X9802176Y-10048984D01*
X9802176Y-9944222D02*
X9811700Y-9925174D01*
X9811700Y-9925174D02*
X9830747Y-9915650D01*
X9830747Y-9915650D02*
X9859319Y-9915650D01*
X9859319Y-9915650D02*
X9878366Y-9925174D01*
X9878366Y-9925174D02*
X9887890Y-9944222D01*
X9887890Y-9944222D02*
X9887890Y-10048984D01*
X10278366Y-9839460D02*
X10106938Y-10096603D01*
X10535509Y-9848984D02*
X10554557Y-9848984D01*
X10554557Y-9848984D02*
X10573604Y-9858508D01*
X10573604Y-9858508D02*
X10583128Y-9868031D01*
X10583128Y-9868031D02*
X10592652Y-9887079D01*
X10592652Y-9887079D02*
X10602176Y-9925174D01*
X10602176Y-9925174D02*
X10602176Y-9972793D01*
X10602176Y-9972793D02*
X10592652Y-10010889D01*
X10592652Y-10010889D02*
X10583128Y-10029936D01*
X10583128Y-10029936D02*
X10573604Y-10039460D01*
X10573604Y-10039460D02*
X10554557Y-10048984D01*
X10554557Y-10048984D02*
X10535509Y-10048984D01*
X10535509Y-10048984D02*
X10516462Y-10039460D01*
X10516462Y-10039460D02*
X10506938Y-10029936D01*
X10506938Y-10029936D02*
X10497414Y-10010889D01*
X10497414Y-10010889D02*
X10487890Y-9972793D01*
X10487890Y-9972793D02*
X10487890Y-9925174D01*
X10487890Y-9925174D02*
X10497414Y-9887079D01*
X10497414Y-9887079D02*
X10506938Y-9868031D01*
X10506938Y-9868031D02*
X10516462Y-9858508D01*
X10516462Y-9858508D02*
X10535509Y-9848984D01*
X10687890Y-10029936D02*
X10697414Y-10039460D01*
X10697414Y-10039460D02*
X10687890Y-10048984D01*
X10687890Y-10048984D02*
X10678366Y-10039460D01*
X10678366Y-10039460D02*
X10687890Y-10029936D01*
X10687890Y-10029936D02*
X10687890Y-10048984D01*
X10887890Y-10048984D02*
X10773604Y-10048984D01*
X10830747Y-10048984D02*
X10830747Y-9848984D01*
X10830747Y-9848984D02*
X10811700Y-9877555D01*
X10811700Y-9877555D02*
X10792652Y-9896603D01*
X10792652Y-9896603D02*
X10773604Y-9906127D01*
X11068843Y-9848984D02*
X10973604Y-9848984D01*
X10973604Y-9848984D02*
X10964081Y-9944222D01*
X10964081Y-9944222D02*
X10973604Y-9934698D01*
X10973604Y-9934698D02*
X10992652Y-9925174D01*
X10992652Y-9925174D02*
X11040271Y-9925174D01*
X11040271Y-9925174D02*
X11059319Y-9934698D01*
X11059319Y-9934698D02*
X11068843Y-9944222D01*
X11068843Y-9944222D02*
X11078366Y-9963270D01*
X11078366Y-9963270D02*
X11078366Y-10010889D01*
X11078366Y-10010889D02*
X11068843Y-10029936D01*
X11068843Y-10029936D02*
X11059319Y-10039460D01*
X11059319Y-10039460D02*
X11040271Y-10048984D01*
X11040271Y-10048984D02*
X10992652Y-10048984D01*
X10992652Y-10048984D02*
X10973604Y-10039460D01*
X10973604Y-10039460D02*
X10964081Y-10029936D01*
X11145033Y-9848984D02*
X11278366Y-9848984D01*
X11278366Y-9848984D02*
X11192652Y-10048984D01*
X11449795Y-9848984D02*
X11354557Y-9848984D01*
X11354557Y-9848984D02*
X11345033Y-9944222D01*
X11345033Y-9944222D02*
X11354557Y-9934698D01*
X11354557Y-9934698D02*
X11373604Y-9925174D01*
X11373604Y-9925174D02*
X11421223Y-9925174D01*
X11421223Y-9925174D02*
X11440271Y-9934698D01*
X11440271Y-9934698D02*
X11449795Y-9944222D01*
X11449795Y-9944222D02*
X11459319Y-9963270D01*
X11459319Y-9963270D02*
X11459319Y-10010889D01*
X11459319Y-10010889D02*
X11449795Y-10029936D01*
X11449795Y-10029936D02*
X11440271Y-10039460D01*
X11440271Y-10039460D02*
X11421223Y-10048984D01*
X11421223Y-10048984D02*
X11373604Y-10048984D01*
X11373604Y-10048984D02*
X11354557Y-10039460D01*
X11354557Y-10039460D02*
X11345033Y-10029936D01*
X11535509Y-9848984D02*
X11535509Y-9887079D01*
X11611700Y-9848984D02*
X11611700Y-9887079D01*
X11906938Y-10125174D02*
X11897414Y-10115650D01*
X11897414Y-10115650D02*
X11878366Y-10087079D01*
X11878366Y-10087079D02*
X11868843Y-10068031D01*
X11868843Y-10068031D02*
X11859319Y-10039460D01*
X11859319Y-10039460D02*
X11849795Y-9991841D01*
X11849795Y-9991841D02*
X11849795Y-9953746D01*
X11849795Y-9953746D02*
X11859319Y-9906127D01*
X11859319Y-9906127D02*
X11868843Y-9877555D01*
X11868843Y-9877555D02*
X11878366Y-9858508D01*
X11878366Y-9858508D02*
X11897414Y-9829936D01*
X11897414Y-9829936D02*
X11906938Y-9820412D01*
X12068843Y-9848984D02*
X12030747Y-9848984D01*
X12030747Y-9848984D02*
X12011700Y-9858508D01*
X12011700Y-9858508D02*
X12002176Y-9868031D01*
X12002176Y-9868031D02*
X11983128Y-9896603D01*
X11983128Y-9896603D02*
X11973604Y-9934698D01*
X11973604Y-9934698D02*
X11973604Y-10010889D01*
X11973604Y-10010889D02*
X11983128Y-10029936D01*
X11983128Y-10029936D02*
X11992652Y-10039460D01*
X11992652Y-10039460D02*
X12011700Y-10048984D01*
X12011700Y-10048984D02*
X12049795Y-10048984D01*
X12049795Y-10048984D02*
X12068843Y-10039460D01*
X12068843Y-10039460D02*
X12078366Y-10029936D01*
X12078366Y-10029936D02*
X12087890Y-10010889D01*
X12087890Y-10010889D02*
X12087890Y-9963270D01*
X12087890Y-9963270D02*
X12078366Y-9944222D01*
X12078366Y-9944222D02*
X12068843Y-9934698D01*
X12068843Y-9934698D02*
X12049795Y-9925174D01*
X12049795Y-9925174D02*
X12011700Y-9925174D01*
X12011700Y-9925174D02*
X11992652Y-9934698D01*
X11992652Y-9934698D02*
X11983128Y-9944222D01*
X11983128Y-9944222D02*
X11973604Y-9963270D01*
X12325985Y-10048984D02*
X12325985Y-9848984D01*
X12411700Y-10048984D02*
X12411700Y-9944222D01*
X12411700Y-9944222D02*
X12402176Y-9925174D01*
X12402176Y-9925174D02*
X12383128Y-9915650D01*
X12383128Y-9915650D02*
X12354557Y-9915650D01*
X12354557Y-9915650D02*
X12335509Y-9925174D01*
X12335509Y-9925174D02*
X12325985Y-9934698D01*
X12535509Y-10048984D02*
X12516462Y-10039460D01*
X12516462Y-10039460D02*
X12506938Y-10029936D01*
X12506938Y-10029936D02*
X12497414Y-10010889D01*
X12497414Y-10010889D02*
X12497414Y-9953746D01*
X12497414Y-9953746D02*
X12506938Y-9934698D01*
X12506938Y-9934698D02*
X12516462Y-9925174D01*
X12516462Y-9925174D02*
X12535509Y-9915650D01*
X12535509Y-9915650D02*
X12564081Y-9915650D01*
X12564081Y-9915650D02*
X12583128Y-9925174D01*
X12583128Y-9925174D02*
X12592652Y-9934698D01*
X12592652Y-9934698D02*
X12602176Y-9953746D01*
X12602176Y-9953746D02*
X12602176Y-10010889D01*
X12602176Y-10010889D02*
X12592652Y-10029936D01*
X12592652Y-10029936D02*
X12583128Y-10039460D01*
X12583128Y-10039460D02*
X12564081Y-10048984D01*
X12564081Y-10048984D02*
X12535509Y-10048984D01*
X12716462Y-10048984D02*
X12697414Y-10039460D01*
X12697414Y-10039460D02*
X12687890Y-10020412D01*
X12687890Y-10020412D02*
X12687890Y-9848984D01*
X12868843Y-10039460D02*
X12849795Y-10048984D01*
X12849795Y-10048984D02*
X12811700Y-10048984D01*
X12811700Y-10048984D02*
X12792652Y-10039460D01*
X12792652Y-10039460D02*
X12783128Y-10020412D01*
X12783128Y-10020412D02*
X12783128Y-9944222D01*
X12783128Y-9944222D02*
X12792652Y-9925174D01*
X12792652Y-9925174D02*
X12811700Y-9915650D01*
X12811700Y-9915650D02*
X12849795Y-9915650D01*
X12849795Y-9915650D02*
X12868843Y-9925174D01*
X12868843Y-9925174D02*
X12878366Y-9944222D01*
X12878366Y-9944222D02*
X12878366Y-9963270D01*
X12878366Y-9963270D02*
X12783128Y-9982317D01*
X12954557Y-10039460D02*
X12973605Y-10048984D01*
X12973605Y-10048984D02*
X13011700Y-10048984D01*
X13011700Y-10048984D02*
X13030747Y-10039460D01*
X13030747Y-10039460D02*
X13040271Y-10020412D01*
X13040271Y-10020412D02*
X13040271Y-10010889D01*
X13040271Y-10010889D02*
X13030747Y-9991841D01*
X13030747Y-9991841D02*
X13011700Y-9982317D01*
X13011700Y-9982317D02*
X12983128Y-9982317D01*
X12983128Y-9982317D02*
X12964081Y-9972793D01*
X12964081Y-9972793D02*
X12954557Y-9953746D01*
X12954557Y-9953746D02*
X12954557Y-9944222D01*
X12954557Y-9944222D02*
X12964081Y-9925174D01*
X12964081Y-9925174D02*
X12983128Y-9915650D01*
X12983128Y-9915650D02*
X13011700Y-9915650D01*
X13011700Y-9915650D02*
X13030747Y-9925174D01*
X13106938Y-10125174D02*
X13116462Y-10115650D01*
X13116462Y-10115650D02*
X13135509Y-10087079D01*
X13135509Y-10087079D02*
X13145033Y-10068031D01*
X13145033Y-10068031D02*
X13154557Y-10039460D01*
X13154557Y-10039460D02*
X13164081Y-9991841D01*
X13164081Y-9991841D02*
X13164081Y-9953746D01*
X13164081Y-9953746D02*
X13154557Y-9906127D01*
X13154557Y-9906127D02*
X13145033Y-9877555D01*
X13145033Y-9877555D02*
X13135509Y-9858508D01*
X13135509Y-9858508D02*
X13116462Y-9829936D01*
X13116462Y-9829936D02*
X13106938Y-9820412D01*
X13468843Y-10125174D02*
X13459319Y-10115650D01*
X13459319Y-10115650D02*
X13440271Y-10087079D01*
X13440271Y-10087079D02*
X13430747Y-10068031D01*
X13430747Y-10068031D02*
X13421224Y-10039460D01*
X13421224Y-10039460D02*
X13411700Y-9991841D01*
X13411700Y-9991841D02*
X13411700Y-9953746D01*
X13411700Y-9953746D02*
X13421224Y-9906127D01*
X13421224Y-9906127D02*
X13430747Y-9877555D01*
X13430747Y-9877555D02*
X13440271Y-9858508D01*
X13440271Y-9858508D02*
X13459319Y-9829936D01*
X13459319Y-9829936D02*
X13468843Y-9820412D01*
X13545033Y-9915650D02*
X13545033Y-10048984D01*
X13545033Y-9934698D02*
X13554557Y-9925174D01*
X13554557Y-9925174D02*
X13573605Y-9915650D01*
X13573605Y-9915650D02*
X13602176Y-9915650D01*
X13602176Y-9915650D02*
X13621224Y-9925174D01*
X13621224Y-9925174D02*
X13630747Y-9944222D01*
X13630747Y-9944222D02*
X13630747Y-10048984D01*
X13754557Y-10048984D02*
X13735509Y-10039460D01*
X13735509Y-10039460D02*
X13725986Y-10029936D01*
X13725986Y-10029936D02*
X13716462Y-10010889D01*
X13716462Y-10010889D02*
X13716462Y-9953746D01*
X13716462Y-9953746D02*
X13725986Y-9934698D01*
X13725986Y-9934698D02*
X13735509Y-9925174D01*
X13735509Y-9925174D02*
X13754557Y-9915650D01*
X13754557Y-9915650D02*
X13783128Y-9915650D01*
X13783128Y-9915650D02*
X13802176Y-9925174D01*
X13802176Y-9925174D02*
X13811700Y-9934698D01*
X13811700Y-9934698D02*
X13821224Y-9953746D01*
X13821224Y-9953746D02*
X13821224Y-10010889D01*
X13821224Y-10010889D02*
X13811700Y-10029936D01*
X13811700Y-10029936D02*
X13802176Y-10039460D01*
X13802176Y-10039460D02*
X13783128Y-10048984D01*
X13783128Y-10048984D02*
X13754557Y-10048984D01*
X13878367Y-9915650D02*
X13954557Y-9915650D01*
X13906938Y-9848984D02*
X13906938Y-10020412D01*
X13906938Y-10020412D02*
X13916462Y-10039460D01*
X13916462Y-10039460D02*
X13935509Y-10048984D01*
X13935509Y-10048984D02*
X13954557Y-10048984D01*
X14173605Y-9915650D02*
X14173605Y-10115650D01*
X14173605Y-9925174D02*
X14192652Y-9915650D01*
X14192652Y-9915650D02*
X14230748Y-9915650D01*
X14230748Y-9915650D02*
X14249795Y-9925174D01*
X14249795Y-9925174D02*
X14259319Y-9934698D01*
X14259319Y-9934698D02*
X14268843Y-9953746D01*
X14268843Y-9953746D02*
X14268843Y-10010889D01*
X14268843Y-10010889D02*
X14259319Y-10029936D01*
X14259319Y-10029936D02*
X14249795Y-10039460D01*
X14249795Y-10039460D02*
X14230748Y-10048984D01*
X14230748Y-10048984D02*
X14192652Y-10048984D01*
X14192652Y-10048984D02*
X14173605Y-10039460D01*
X14383128Y-10048984D02*
X14364081Y-10039460D01*
X14364081Y-10039460D02*
X14354557Y-10020412D01*
X14354557Y-10020412D02*
X14354557Y-9848984D01*
X14545033Y-10048984D02*
X14545033Y-9944222D01*
X14545033Y-9944222D02*
X14535509Y-9925174D01*
X14535509Y-9925174D02*
X14516462Y-9915650D01*
X14516462Y-9915650D02*
X14478367Y-9915650D01*
X14478367Y-9915650D02*
X14459319Y-9925174D01*
X14545033Y-10039460D02*
X14525986Y-10048984D01*
X14525986Y-10048984D02*
X14478367Y-10048984D01*
X14478367Y-10048984D02*
X14459319Y-10039460D01*
X14459319Y-10039460D02*
X14449795Y-10020412D01*
X14449795Y-10020412D02*
X14449795Y-10001365D01*
X14449795Y-10001365D02*
X14459319Y-9982317D01*
X14459319Y-9982317D02*
X14478367Y-9972793D01*
X14478367Y-9972793D02*
X14525986Y-9972793D01*
X14525986Y-9972793D02*
X14545033Y-9963270D01*
X14611700Y-9915650D02*
X14687890Y-9915650D01*
X14640271Y-9848984D02*
X14640271Y-10020412D01*
X14640271Y-10020412D02*
X14649795Y-10039460D01*
X14649795Y-10039460D02*
X14668843Y-10048984D01*
X14668843Y-10048984D02*
X14687890Y-10048984D01*
X14830748Y-10039460D02*
X14811700Y-10048984D01*
X14811700Y-10048984D02*
X14773605Y-10048984D01*
X14773605Y-10048984D02*
X14754557Y-10039460D01*
X14754557Y-10039460D02*
X14745033Y-10020412D01*
X14745033Y-10020412D02*
X14745033Y-9944222D01*
X14745033Y-9944222D02*
X14754557Y-9925174D01*
X14754557Y-9925174D02*
X14773605Y-9915650D01*
X14773605Y-9915650D02*
X14811700Y-9915650D01*
X14811700Y-9915650D02*
X14830748Y-9925174D01*
X14830748Y-9925174D02*
X14840271Y-9944222D01*
X14840271Y-9944222D02*
X14840271Y-9963270D01*
X14840271Y-9963270D02*
X14745033Y-9982317D01*
X15011700Y-10048984D02*
X15011700Y-9848984D01*
X15011700Y-10039460D02*
X14992652Y-10048984D01*
X14992652Y-10048984D02*
X14954557Y-10048984D01*
X14954557Y-10048984D02*
X14935509Y-10039460D01*
X14935509Y-10039460D02*
X14925986Y-10029936D01*
X14925986Y-10029936D02*
X14916462Y-10010889D01*
X14916462Y-10010889D02*
X14916462Y-9953746D01*
X14916462Y-9953746D02*
X14925986Y-9934698D01*
X14925986Y-9934698D02*
X14935509Y-9925174D01*
X14935509Y-9925174D02*
X14954557Y-9915650D01*
X14954557Y-9915650D02*
X14992652Y-9915650D01*
X14992652Y-9915650D02*
X15011700Y-9925174D01*
X15087890Y-10125174D02*
X15097414Y-10115650D01*
X15097414Y-10115650D02*
X15116462Y-10087079D01*
X15116462Y-10087079D02*
X15125986Y-10068031D01*
X15125986Y-10068031D02*
X15135509Y-10039460D01*
X15135509Y-10039460D02*
X15145033Y-9991841D01*
X15145033Y-9991841D02*
X15145033Y-9953746D01*
X15145033Y-9953746D02*
X15135509Y-9906127D01*
X15135509Y-9906127D02*
X15125986Y-9877555D01*
X15125986Y-9877555D02*
X15116462Y-9858508D01*
X15116462Y-9858508D02*
X15097414Y-9829936D01*
X15097414Y-9829936D02*
X15087890Y-9820412D01*
M02*
